<?xml version="1.0" encoding="UTF-8"?>
<svg version="1.1" xmlns="http://www.w3.org/2000/svg" width="512" height="512">
<path d="M0 0 C6.47785086 5.74941783 9.4428941 11.89319589 10.375 20.4375 C9.41971457 29.51271161 6.72806332 35.73494318 0 42 C-1.3173304 43.02098894 -2.646597 44.02733454 -4 45 C30.19091902 77.37491782 71.00414638 100.9144632 119 102.25 C165.19036319 100.96470294 209.61362175 79.65492201 242 47 C243.03223874 45.6914661 244.04720592 44.36746525 245 43 C244.29875 42.835 243.5975 42.67 242.875 42.5 C237.3339135 39.60899835 233.87980169 33.8636016 232 28 C230.97169601 19.13493722 231.44507148 11.2467173 237 4 C243.86848146 -2.52845762 250.56193581 -5.05020247 260 -5 C267.97203865 -4.00349517 273.9737807 -0.22391311 279 6 C283.17113141 13.73514396 284.2543782 21.0144336 281.9375 29.5 C280.00616033 34.84832524 276.1884132 40.4057934 271 43 C271.309375 43.598125 271.61875 44.19625 271.9375 44.8125 C273 47 273 47 274 50 C275.31921819 50.6941798 276.65459552 51.35804283 278 52 C279.10290245 53.06381223 280.16147107 54.1743634 281.1875 55.3125 C292.16174115 66.5524118 305.98926446 75.73640792 319.609375 83.484375 C324.73545792 86.42914604 324.73545792 86.42914604 326.1875 89.5625 C325.94442005 92.7225394 325.39755785 93.91180445 323 96 C311.49700968 97.34063628 297.77888032 84.79768365 289 78 C280.2979046 71.0716283 272.20305522 63.51946729 264 56 C263.67 99.23 263.34 142.46 263 187 C282.8 187 302.6 187 323 187 C326 190 326 190 326.3125 193.0625 C326 196 326 196 324 198 C321.15703249 198.25069833 321.15703249 198.25069833 317.43445587 198.25168228 C316.40620611 198.2560426 316.40620611 198.2560426 315.35718364 198.26049101 C313.03722966 198.26784774 310.71753549 198.26082153 308.39758301 198.25396729 C306.72673675 198.25626948 305.0558915 198.25944438 303.38504839 198.26342177 C298.77576364 198.27181157 294.16656115 198.26762563 289.55727601 198.26144934 C284.59334888 198.25694287 279.62943636 198.26389959 274.66551208 198.26940918 C264.93410616 198.27832421 255.202731 198.27637181 245.47132385 198.2705839 C237.56568325 198.26607568 229.6600513 198.26545085 221.75440979 198.26763153 C220.63123691 198.267938 219.50806404 198.26824446 218.35085562 198.26856022 C216.06948515 198.26919964 213.78811467 198.26984806 211.50674421 198.2705054 C190.09083401 198.27621487 168.6749409 198.26964113 147.2590335 198.25890467 C128.86457497 198.2499686 110.47014167 198.25152047 92.07568359 198.26074219 C70.73884588 198.27143394 49.40202318 198.27566549 28.06518316 198.26951766 C25.79198551 198.26888053 23.51878786 198.26825179 21.24559021 198.26763153 C19.56770032 198.2671687 19.56770032 198.2671687 17.85591367 198.26669653 C9.95549825 198.26496629 2.0550923 198.26789174 -5.84532166 198.27259064 C-15.46715627 198.27818733 -25.08895823 198.27670866 -34.71078908 198.26602915 C-39.62436558 198.26075604 -44.53788755 198.25874342 -49.4514637 198.26532745 C-53.94312009 198.27125531 -58.43467103 198.2680646 -62.92631775 198.25737235 C-64.55750647 198.2551248 -66.18870396 198.25630463 -67.8198871 198.26112393 C-70.02487283 198.26714241 -72.22948992 198.2610325 -74.43445587 198.25168228 C-76.2771313 198.25119522 -76.2771313 198.25119522 -78.15703249 198.25069833 C-81 198 -81 198 -83 196 C-83.3125 192.5 -83.3125 192.5 -83 189 C-65.79534947 177.53023298 -41.67741656 187 -21 187 C-21.33 143.44 -21.66 99.88 -22 55 C-27.445 60.445 -27.445 60.445 -33 66 C-36.63042326 69.08163835 -40.25650405 72.06742484 -44 75 C-45.00804687 75.81339844 -46.01609375 76.62679687 -47.0546875 77.46484375 C-53.99330181 83.00440598 -61.20313465 87.73551284 -68.8828125 92.1875 C-70.95988 93.39521845 -73.00086289 94.66724193 -75 96 C-78.5625 96.25 -78.5625 96.25 -82 96 C-84 94 -84 94 -84.3125 91.0625 C-83.94817797 87.49214407 -83.68004466 87.19476908 -81 85 C-78.78625469 83.64763419 -76.56523287 82.3458961 -74.3125 81.0625 C-62.03248836 73.85946858 -50.97314627 65.24320894 -40.6328125 55.48046875 C-37.6783769 52.69698714 -34.62489991 50.05476786 -31.5234375 47.4375 C-29.75657708 45.87805417 -29.75657708 45.87805417 -28 43 C-28.70125 42.835 -29.4025 42.67 -30.125 42.5 C-35.6660865 39.60899835 -39.12019831 33.8636016 -41 28 C-42.02830399 19.13493722 -41.55492852 11.2467173 -36 4 C-26.00103423 -5.50396747 -11.75527231 -8.43843199 0 0 Z M-27.25 12.5625 C-30.17699062 16.63937979 -30.66581336 20.0433894 -30 25 C-27.76448472 29.30543683 -25.2420995 32.60229159 -21 35 C-15.97005375 35.82568632 -12.15559296 35.56729109 -7.5625 33.3125 C-4.20343988 30.28115306 -2.30644369 28.25860352 -1.68359375 23.66796875 C-1.41786348 17.95048191 -2.03152848 14.39749547 -6 10 C-9.73227781 6.80090474 -13.10789149 6.53375871 -17.85546875 6.71484375 C-22.24211937 7.29813245 -24.40675571 9.32436067 -27.25 12.5625 Z M244.625 13.75 C242.63842933 17.72314134 242.12169021 20.6432356 243 25 C245.53420588 29.6314797 247.93097685 33.31032562 253 35 C257.69131123 35.54508569 261.10330648 35.44834676 265.375 33.3125 C268.89480764 30.21171708 270.48862691 27.64369922 271.875 23.1875 C272.04215228 18.92511685 271.08229092 15.71328685 269 12 C264.48377749 7.70408103 261.39771829 6.63480423 255.31640625 6.72265625 C250.39688109 7.31167191 247.73709917 10.14651675 244.625 13.75 Z M245.75 59.875 C239.48273183 65.69427002 232.92295045 70.97900316 226 76 C225.46133301 76.39509766 224.92266602 76.79019531 224.36767578 77.19726562 C187.03518449 104.27966655 141.19475901 118.06545342 95.28466797 111.47631836 C59.66774055 105.76771464 25.16192772 87.98239217 -0.796875 62.96484375 C-3.66806989 60.4041859 -6.86942777 58.23612302 -10 56 C-10 99.23 -10 142.46 -10 187 C76.46 187 162.92 187 252 187 C252 143.44 252 99.88 252 55 C249.74936385 55 247.38247526 58.3315828 245.75 59.875 Z " fill="#E01A28" transform="translate(135,263)"/>
<path d="M0 0 C1.27039627 -0.00563965 2.54079254 -0.0112793 3.84968567 -0.01708984 C5.26547298 -0.01320088 6.68125973 -0.00910452 8.0970459 -0.00482178 C9.58176343 -0.00753056 11.06647961 -0.01109086 12.55119324 -0.01544189 C16.59036981 -0.02458158 20.62944455 -0.02101518 24.66862297 -0.01468372 C28.88911088 -0.00963188 33.10958988 -0.0143129 37.33007812 -0.01745605 C44.41859508 -0.02109809 51.50707041 -0.0162904 58.59558105 -0.0067749 C66.79921063 0.00411011 75.0027408 0.0005847 83.20636797 -0.01042771 C90.2407849 -0.01949385 97.27517184 -0.02078917 104.30959272 -0.01555037 C108.51490884 -0.01242696 112.72017819 -0.01203148 116.92549133 -0.01862335 C120.87842796 -0.02438643 124.83123602 -0.02041909 128.78415871 -0.00883484 C130.23784483 -0.00618267 131.69154172 -0.0069628 133.14522362 -0.01136017 C135.12374875 -0.0167949 137.10229744 -0.00878318 139.08081055 0 C140.18989525 0.00075405 141.29897995 0.0015081 142.44167328 0.002285 C145.04040527 0.25396729 145.04040527 0.25396729 147.04040527 2.25396729 C147.23780009 4.74535992 147.30972565 7.12567521 147.29437256 9.6182251 C147.29905253 10.77023344 147.29905253 10.77023344 147.30382705 11.94551468 C147.31183853 14.53278406 147.30547124 17.11982094 147.29919434 19.70709229 C147.3019028 21.55633685 147.30546292 23.40558034 147.30981445 25.25482178 C147.31895791 30.28776172 147.31538616 35.32061997 147.30905628 40.3535614 C147.30400639 45.61105577 147.30868491 50.86854296 147.31182861 56.1260376 C147.31547122 64.95645407 147.31066146 73.78683713 147.30114746 82.61724854 C147.29026235 92.83853966 147.29378772 103.059751 147.30480027 113.28104019 C147.31386478 122.04367889 147.31516253 130.80629352 147.30992293 139.56893539 C147.30679862 144.80823831 147.30640649 150.04750367 147.31299591 155.2868042 C147.31875661 160.21153005 147.31479597 165.13615266 147.3032074 170.06086731 C147.30055396 171.87254159 147.30133748 173.6842245 147.30573273 175.49589539 C147.31116278 177.96061897 147.30438528 180.42500749 147.29437256 182.88970947 C147.30106472 183.97617201 147.30106472 183.97617201 147.30789208 185.08458328 C147.26870544 190.02566712 147.26870544 190.02566712 145.04040527 192.25396729 C142.44167328 192.50564957 142.44167328 192.50564957 139.08081055 192.50793457 C137.81041428 192.51357422 136.54001801 192.51921387 135.23112488 192.52502441 C133.81533757 192.52113545 132.39955082 192.51703909 130.98376465 192.51275635 C129.49904712 192.51546513 128.01433093 192.51902543 126.52961731 192.52337646 C122.49044073 192.53251615 118.451366 192.52894975 114.41218758 192.52261829 C110.19169966 192.51756645 105.97122066 192.52224747 101.75073242 192.52539062 C94.66221546 192.52903266 87.57374014 192.52422497 80.48522949 192.51470947 C72.28159992 192.50382446 64.07806974 192.50734987 55.87444258 192.51836228 C48.84002565 192.52742842 41.8056387 192.52872374 34.77121782 192.52348495 C30.5659017 192.52036153 26.36063236 192.51996605 22.15531921 192.52655792 C18.20238259 192.532321 14.24957453 192.52835366 10.29665184 192.51676941 C8.84296571 192.51411724 7.38926883 192.51489737 5.93558693 192.51929474 C3.95706179 192.52472947 1.9785131 192.51671775 0 192.50793457 C-1.1090847 192.50718052 -2.2181694 192.50642647 -3.36086273 192.50564957 C-5.95959473 192.25396729 -5.95959473 192.25396729 -7.95959473 190.25396729 C-8.15698954 187.76257465 -8.2289151 185.38225936 -8.21356201 182.88970947 C-8.21668199 182.12170391 -8.21980197 181.35369835 -8.2230165 180.56241989 C-8.23102798 177.97515051 -8.22466069 175.38811363 -8.21838379 172.80084229 C-8.22109226 170.95159772 -8.22465237 169.10235423 -8.22900391 167.25311279 C-8.23814736 162.22017285 -8.23457562 157.1873146 -8.22824574 152.15437317 C-8.22319584 146.8968788 -8.22787436 141.63939161 -8.23101807 136.38189697 C-8.23466067 127.5514805 -8.22985091 118.72109744 -8.22033691 109.89068604 C-8.20945181 99.66939491 -8.21297718 89.44818357 -8.22398973 79.22689438 C-8.23305424 70.46425568 -8.23435198 61.70164105 -8.22911239 52.93899918 C-8.22598807 47.69969626 -8.22559595 42.4604309 -8.23218536 37.22113037 C-8.23794606 32.29640452 -8.23398542 27.37178191 -8.22239685 22.44706726 C-8.21974341 20.63539298 -8.22052694 18.82371007 -8.22492218 17.01203918 C-8.23035223 14.5473156 -8.22357473 12.08292708 -8.21356201 9.6182251 C-8.21802346 8.89391674 -8.2224849 8.16960838 -8.22708154 7.42335129 C-8.17401235 0.73180328 -6.38956126 0.00434417 0 0 Z M3.04040527 11.25396729 C3.04040527 67.35396729 3.04040527 123.45396729 3.04040527 181.25396729 C46.93040527 181.25396729 90.82040527 181.25396729 136.04040527 181.25396729 C136.04040527 125.15396729 136.04040527 69.05396729 136.04040527 11.25396729 C92.15040527 11.25396729 48.26040527 11.25396729 3.04040527 11.25396729 Z " fill="#E01A28" transform="translate(186.9595947265625,50.74603271484375)"/>
<path d="M0 0 C1.28715408 -0.01062721 1.28715408 -0.01062721 2.60031128 -0.02146912 C3.54375397 -0.0189917 4.48719666 -0.01651428 5.45922852 -0.01396179 C6.94714401 -0.02162819 6.94714401 -0.02162819 8.46511841 -0.02944946 C11.75618459 -0.0433921 15.04704249 -0.04238533 18.33813477 -0.04008484 C20.61735106 -0.0439689 22.89656663 -0.04830296 25.17578125 -0.05307007 C29.957462 -0.06054213 34.73906893 -0.06023364 39.52075195 -0.05497742 C45.66146852 -0.04917834 51.80188392 -0.0661198 57.94255066 -0.08932209 C62.65044942 -0.10402182 67.35827499 -0.10493632 72.06619263 -0.10181236 C74.33090817 -0.10232737 76.59562763 -0.10759842 78.86032104 -0.11762428 C82.02109617 -0.12989999 85.1812761 -0.12325065 88.34204102 -0.11161804 C89.2854837 -0.11926178 90.22892639 -0.12690552 91.20095825 -0.13478088 C92.05906097 -0.12776657 92.9171637 -0.12075226 93.80126953 -0.11352539 C94.92288231 -0.113777 94.92288231 -0.113777 96.06715393 -0.1140337 C97.90063477 0.26069641 97.90063477 0.26069641 99.90063477 3.26069641 C100.15231705 5.55801392 100.15231705 5.55801392 100.15460205 8.30879211 C100.1602417 9.35193573 100.16588135 10.39507935 100.17169189 11.46983337 C100.16764343 12.61382599 100.16359497 13.7578186 100.15942383 14.93647766 C100.16292847 16.14153961 100.16643311 17.34660156 100.17004395 18.58818054 C100.17734527 21.89397196 100.17562386 25.19951349 100.16928577 28.50529099 C100.1642257 31.96323231 100.16891725 35.42116288 100.17205811 38.87910461 C100.17569773 44.68633443 100.17089876 50.49351338 100.16137695 56.30073547 C100.15049238 63.01668403 100.15401796 69.73251115 100.16502976 76.44845676 C100.17410276 82.21243359 100.17538786 87.97637384 100.17015243 93.74035549 C100.16703278 97.18389311 100.1666232 100.62737363 100.1732254 104.07090759 C100.18006986 107.90895822 100.17058587 111.74687258 100.15942383 115.58491516 C100.16347229 116.72890778 100.16752075 117.87290039 100.17169189 119.05155945 C100.16605225 120.09470306 100.1604126 121.13784668 100.15460205 122.21260071 C100.153848 123.12035751 100.15309395 124.02811432 100.15231705 124.96337891 C99.90063477 127.26069641 99.90063477 127.26069641 97.90063477 130.26069641 C96.06715393 130.63542652 96.06715393 130.63542652 93.80126953 130.63491821 C92.94316681 130.64193253 92.08506409 130.64894684 91.20095825 130.65617371 C90.25751556 130.64852997 89.31407288 130.64088623 88.34204102 130.63301086 C87.35009735 130.63666153 86.35815369 130.64031219 85.33615112 130.64407349 C82.04497353 130.65220432 78.75428438 130.63854768 75.46313477 130.62397766 C73.18391927 130.62345936 70.90470333 130.6239759 68.62548828 130.62548828 C63.84376369 130.62539844 59.06220729 130.61494549 54.28051758 130.59687805 C48.13984614 130.57419059 41.99942068 130.57364558 35.85871887 130.5803957 C31.15081583 130.58373131 26.44296925 130.57711329 21.7350769 130.56726646 C19.47037043 130.56340713 17.20565769 130.56226927 14.94094849 130.56385231 C11.78025264 130.56422165 8.61987651 130.55163967 5.45922852 130.53535461 C4.51578583 130.53783203 3.57234314 130.54030945 2.60031128 130.54286194 C1.3131572 130.53223473 1.3131572 130.53223473 0 130.52139282 C-1.12161278 130.51831352 -1.12161278 130.51831352 -2.2658844 130.515172 C-4.09936523 130.26069641 -4.09936523 130.26069641 -6.09936523 128.26069641 C-6.35104752 126.05239868 -6.35104752 126.05239868 -6.35333252 123.25019836 C-6.35897217 122.19015594 -6.36461182 121.13011353 -6.37042236 120.03794861 C-6.3663739 118.8700882 -6.36232544 117.70222778 -6.3581543 116.49897766 C-6.36165894 115.2729483 -6.36516357 114.04691895 -6.36877441 112.78373718 C-6.37608358 109.41597402 -6.37434934 106.04845563 -6.36801624 102.68070602 C-6.36296243 99.16089797 -6.36764597 95.64110057 -6.37078857 92.12129211 C-6.37443003 86.20973323 -6.36962444 80.29822428 -6.36010742 74.38667297 C-6.3492225 67.54632599 -6.35274795 60.70609822 -6.36376023 53.86575413 C-6.37282802 47.99905404 -6.37412089 42.13238991 -6.36888289 36.26568508 C-6.36576038 32.7590076 -6.36536152 29.25238619 -6.37195587 25.74571228 C-6.37879088 21.83789921 -6.36932487 17.93022032 -6.3581543 14.02241516 C-6.36220276 12.85455475 -6.36625122 11.68669434 -6.37042236 10.48344421 C-6.36478271 9.42340179 -6.35914307 8.36335938 -6.35333252 7.27119446 C-6.35257847 6.34646835 -6.35182442 5.42174225 -6.35104752 4.46899414 C-5.87610942 0.30181677 -3.67594691 0.01009204 0 0 Z M4.90063477 11.26069641 C4.90063477 46.90069641 4.90063477 82.54069641 4.90063477 119.26069641 C32.62063477 119.26069641 60.34063477 119.26069641 88.90063477 119.26069641 C88.90063477 83.62069641 88.90063477 47.98069641 88.90063477 11.26069641 C61.18063477 11.26069641 33.46063477 11.26069641 4.90063477 11.26069641 Z " fill="#E01A28" transform="translate(57.099365234375,81.73930358886719)"/>
<path d="M0 0 C0.84824341 -0.00708481 1.69648682 -0.01416962 2.57043457 -0.02146912 C3.50295547 -0.0189917 4.43547638 -0.01651428 5.39625549 -0.01396179 C6.37683929 -0.01907272 7.3574231 -0.02418365 8.36772156 -0.02944946 C11.6215163 -0.04339305 14.87510037 -0.0423851 18.12892151 -0.04008484 C20.38332194 -0.04396917 22.63772163 -0.04830328 24.89212036 -0.05307007 C29.62252675 -0.06054256 34.35285852 -0.06023356 39.08326721 -0.05497742 C45.15438451 -0.04918165 51.22519684 -0.06611159 57.29626369 -0.08932209 C61.95359085 -0.10403222 66.61084411 -0.10493484 71.26819038 -0.10181236 C73.5069597 -0.10232695 75.74573301 -0.10759033 77.9844799 -0.11762428 C81.11152509 -0.1299185 84.23797038 -0.12323907 87.36500549 -0.11161804 C88.29550217 -0.11926178 89.22599884 -0.12690552 90.18469238 -0.13478088 C91.03575562 -0.12776657 91.88681885 -0.12075226 92.76367188 -0.11352539 C93.50311759 -0.11369313 94.2425633 -0.11386087 95.00441647 -0.1140337 C97.58408554 0.38402084 98.43706893 1.11893673 99.94532776 3.26069641 C100.32005787 5.55801392 100.32005787 5.55801392 100.31954956 8.30879211 C100.32656387 9.35193573 100.33357819 10.39507935 100.34080505 11.46983337 C100.33316132 12.61382599 100.32551758 13.7578186 100.31764221 14.93647766 C100.32129288 16.14153961 100.32494354 17.34660156 100.32870483 18.58818054 C100.33542859 21.89408949 100.32868706 25.199437 100.31537271 28.50529099 C100.30406249 31.96322936 100.30816538 35.42115306 100.31011963 38.87910461 C100.31100274 44.68636413 100.29991866 50.49350695 100.2815094 56.30073547 C100.26034145 63.0166907 100.25683177 69.73247494 100.26307136 76.44845676 C100.26876428 82.9064313 100.26312021 89.36434556 100.25189781 95.8223114 C100.24725086 98.57185479 100.24637838 101.32136134 100.24848366 104.07090759 C100.25071545 107.90897499 100.23626391 111.74687947 100.21998596 115.58491516 C100.22246338 116.72890778 100.2249408 117.87290039 100.22749329 119.05155945 C100.22040848 120.09470306 100.21332367 121.13784668 100.20602417 122.21260071 C100.20294487 123.57423592 100.20294487 123.57423592 100.19980335 124.96337891 C99.94532776 127.26069641 99.94532776 127.26069641 97.94532776 130.26069641 C96.11184692 130.63542652 96.11184692 130.63542652 93.84596252 130.63491821 C92.9878598 130.64193253 92.12975708 130.64894684 91.24565125 130.65617371 C90.30220856 130.64852997 89.35876587 130.64088623 88.38673401 130.63301086 C87.39479034 130.63666153 86.40284668 130.64031219 85.38084412 130.64407349 C82.08966653 130.65220432 78.79897738 130.63854768 75.50782776 130.62397766 C73.22861227 130.62345936 70.94939632 130.6239759 68.67018127 130.62548828 C63.88845668 130.62539844 59.10690028 130.61494549 54.32521057 130.59687805 C48.18453914 130.57419059 42.04411367 130.57364558 35.90341187 130.5803957 C31.19550883 130.58373131 26.48766224 130.57711329 21.7797699 130.56726646 C19.51506343 130.56340713 17.25035068 130.56226927 14.98564148 130.56385231 C11.82494563 130.56422165 8.66456951 130.55163967 5.50392151 130.53535461 C4.56047882 130.53783203 3.61703613 130.54030945 2.64500427 130.54286194 C1.35785019 130.53223473 1.35785019 130.53223473 0.04469299 130.52139282 C-1.07691978 130.51831352 -1.07691978 130.51831352 -2.22119141 130.515172 C-4.05467224 130.26069641 -4.05467224 130.26069641 -6.05467224 128.26069641 C-6.30635452 126.05239868 -6.30635452 126.05239868 -6.30863953 123.25019836 C-6.31427917 122.19015594 -6.31991882 121.13011353 -6.32572937 120.03794861 C-6.32168091 118.8700882 -6.31763245 117.70222778 -6.3134613 116.49897766 C-6.31696594 115.2729483 -6.32047058 114.04691895 -6.32408142 112.78373718 C-6.33139059 109.41597402 -6.32965635 106.04845563 -6.32332325 102.68070602 C-6.31826943 99.16089797 -6.32295297 95.64110057 -6.32609558 92.12129211 C-6.32973704 86.20973323 -6.32493144 80.29822428 -6.31541443 74.38667297 C-6.30452951 67.54632599 -6.30805496 60.70609822 -6.31906724 53.86575413 C-6.32813502 47.99905404 -6.3294279 42.13238991 -6.3241899 36.26568508 C-6.32106738 32.7590076 -6.32066853 29.25238619 -6.32726288 25.74571228 C-6.33409789 21.83789921 -6.32463187 17.93022032 -6.3134613 14.02241516 C-6.31750977 12.85455475 -6.32155823 11.68669434 -6.32572937 10.48344421 C-6.32008972 9.42340179 -6.31445007 8.36335938 -6.30863953 7.27119446 C-6.30788548 6.34646835 -6.30713142 5.42174225 -6.30635452 4.46899414 C-5.83418959 0.32614889 -3.66136695 0.01016997 0 0 Z M4.94532776 11.26069641 C4.94532776 46.90069641 4.94532776 82.54069641 4.94532776 119.26069641 C32.66532776 119.26069641 60.38532776 119.26069641 88.94532776 119.26069641 C88.94532776 83.62069641 88.94532776 47.98069641 88.94532776 11.26069641 C61.22532776 11.26069641 33.50532776 11.26069641 4.94532776 11.26069641 Z " fill="#E01A28" transform="translate(361.05467224121094,81.73930358886719)"/>
<path d="M0 0 C0.8428656 -0.00365067 1.6857312 -0.00730133 2.55413818 -0.01106262 C5.33244142 -0.01915024 8.11015821 -0.00557405 10.88842773 0.0090332 C12.82226053 0.00955198 14.75609387 0.00903361 16.68992615 0.00752258 C20.73916515 0.00761222 24.78820472 0.0180259 28.83740234 0.03613281 C34.02831406 0.05883478 39.21893483 0.05936043 44.40988255 0.05261517 C48.40157153 0.04927447 52.39319414 0.05590694 56.38487053 0.0657444 C58.29903758 0.06959381 60.21321202 0.07074569 62.12738228 0.06915855 C64.80121062 0.06878784 67.47466528 0.08140937 70.1484375 0.09765625 C70.93971542 0.09517883 71.73099335 0.09270142 72.54624939 0.09014893 C79.43005057 0.15692988 79.43005057 0.15692988 82.50952148 2.37231445 C83.76483303 4.88293754 83.64378825 6.60338756 83.6566925 9.41404724 C83.66384781 10.48105865 83.67100311 11.54807007 83.67837524 12.64741516 C83.68106415 13.82305527 83.68375305 14.99869537 83.68652344 16.20996094 C83.69309464 17.44413757 83.69966583 18.67831421 83.70643616 19.94989014 C83.72279047 23.34037345 83.73439729 26.73079435 83.74264169 30.12130237 C83.74779038 32.23832682 83.75386607 34.35534688 83.76015282 36.47236824 C83.77920245 43.09263608 83.79343571 49.71289277 83.80176479 56.33318275 C83.81154628 63.98200154 83.83789015 71.63053164 83.87826568 79.27924865 C83.90838718 85.18756976 83.92322974 91.09580791 83.9265458 97.00420433 C83.92890028 100.53505731 83.93791197 104.06560179 83.96300697 107.5963726 C83.99053363 111.5327679 83.98646871 115.46878041 83.97949219 119.40527344 C83.99230225 120.57888931 84.0051123 121.75250519 84.01831055 122.96168518 C84.01136673 124.03151642 84.00442291 125.10134766 83.99726868 126.20359802 C83.99965703 127.13477668 84.00204538 128.06595533 84.00450611 129.02535152 C83.50952148 131.37231445 83.50952148 131.37231445 81.71859264 133.1715498 C78.27660253 135.04248096 74.76901748 134.78908277 70.94897461 134.76049805 C69.65563454 134.76838348 69.65563454 134.76838348 68.33616638 134.77642822 C65.48751686 134.78962645 62.63942664 134.78089077 59.79077148 134.77075195 C57.81066785 134.77277274 55.83056495 134.77568422 53.85046387 134.77944946 C49.70109978 134.78387258 45.55192946 134.77744211 41.40258789 134.76342773 C36.08266018 134.74633592 30.76318651 134.75617716 25.44327545 134.77414513 C21.35464046 134.78498326 17.2661132 134.78153647 13.17747498 134.77376175 C11.21585537 134.77175983 9.254226 134.77421874 7.2926178 134.78120041 C4.55150425 134.7888153 1.81112704 134.77721016 -0.92993164 134.76049805 C-1.74148209 134.76657074 -2.55303253 134.77264343 -3.38917542 134.77890015 C-7.77068616 134.72938589 -10.36155984 134.51620282 -13.49047852 131.37231445 C-13.99663639 129.01252747 -13.99663639 129.01252747 -14.00514221 126.17236328 C-14.01786667 125.09556305 -14.03059113 124.01876282 -14.04370117 122.90933228 C-14.03717529 121.72793671 -14.03064941 120.54654114 -14.02392578 119.3293457 C-14.03254135 118.08526947 -14.04115692 116.84119324 -14.05003357 115.55941772 C-14.06886784 112.14594927 -14.06958132 108.73344973 -14.0607121 105.32000351 C-14.0556069 102.47191745 -14.06289083 99.62391877 -14.07018417 96.77584171 C-14.08719283 90.05824733 -14.08360736 83.34088006 -14.06689453 76.62329102 C-14.04996595 69.689025 -14.06581496 62.75538814 -14.09811741 55.82119083 C-14.12479052 49.87034217 -14.13209576 43.91968964 -14.12360233 37.96878719 C-14.11866705 34.41334508 -14.12092055 30.85828172 -14.14138985 27.30288696 C-14.16311204 23.34010051 -14.14437403 19.37807608 -14.12158203 15.4152832 C-14.13327423 14.23388763 -14.14496643 13.05249207 -14.15701294 11.83529663 C-14.14435898 10.7584964 -14.13170502 9.68169617 -14.1186676 8.57226562 C-14.11808129 7.63501144 -14.11749498 6.69775726 -14.11689091 5.73210144 C-13.49047852 3.37231445 -13.49047852 3.37231445 -11.19354248 1.57070637 C-7.47531063 -0.07775591 -3.99171245 -0.0386588 0 0 Z M-2.49047852 12.37231445 C-2.49047852 49.00231445 -2.49047852 85.63231445 -2.49047852 123.37231445 C22.25952148 123.37231445 47.00952148 123.37231445 72.50952148 123.37231445 C72.50952148 86.74231445 72.50952148 50.11231445 72.50952148 12.37231445 C47.75952148 12.37231445 23.00952148 12.37231445 -2.49047852 12.37231445 Z " fill="#E01A28" transform="translate(221.490478515625,79.627685546875)"/>
<path d="M0 0 C0.9077417 -0.01260864 1.8154834 -0.02521729 2.75073242 -0.03820801 C4.21023315 -0.02606262 4.21023315 -0.02606262 5.69921875 -0.01367188 C6.70509033 -0.01749878 7.71096191 -0.02132568 8.74731445 -0.02526855 C10.87224326 -0.02798838 12.99720551 -0.02062228 15.12207031 -0.00390625 C18.37510807 0.01750172 21.6259372 -0.0037062 24.87890625 -0.02929688 C26.94401529 -0.02665361 29.00912296 -0.02152867 31.07421875 -0.01367188 C32.04721924 -0.0217688 33.02021973 -0.02986572 34.02270508 -0.03820801 C35.38431763 -0.01929504 35.38431763 -0.01929504 36.7734375 0 C37.96779419 0.00477356 37.96779419 0.00477356 39.1862793 0.00964355 C42.33324346 0.73606749 43.48427053 1.93001805 45.38671875 4.51757812 C45.88792419 7.47729492 45.88792419 7.47729492 45.88842773 10.96679688 C45.89780869 12.27495361 45.90718964 13.58311035 45.91685486 14.9309082 C45.90637655 16.35563817 45.89500754 17.78036182 45.8828125 19.20507812 C45.88296752 20.6695157 45.88445692 22.1339537 45.88722229 23.59838867 C45.88860579 26.66506118 45.87605729 29.7312657 45.85327148 32.79785156 C45.82488638 36.72557667 45.82762452 40.65252437 45.8403616 44.58030701 C45.84732199 47.60354229 45.8395255 50.62659839 45.82710457 53.64981079 C45.82259353 55.09786288 45.82225024 56.54593423 45.82616997 57.99398804 C45.82908536 60.01881076 45.81040371 62.04362973 45.79077148 64.06835938 C45.7853685 65.21989502 45.77996552 66.37143066 45.7743988 67.55786133 C45.34241092 70.85584319 44.82270707 72.26472779 42.38671875 74.51757812 C40.26856995 75.0255127 40.26856995 75.0255127 37.79516602 75.03515625 C36.86732803 75.04776489 35.93949005 75.06037354 34.98353577 75.07336426 C33.48348244 75.06121887 33.48348244 75.06121887 31.953125 75.04882812 C30.40890114 75.05456848 30.40890114 75.05456848 28.83348083 75.0604248 C26.65549747 75.06314771 24.47748161 75.05576016 22.29956055 75.0390625 C18.96524043 75.01768087 15.63308053 75.03884102 12.29882812 75.06445312 C10.18358899 75.06180949 8.0683512 75.05668377 5.953125 75.04882812 C4.95511368 75.05692505 3.95710236 75.06502197 2.92884827 75.07336426 C1.53236305 75.05445129 1.53236305 75.05445129 0.10766602 75.03515625 C-0.70935287 75.03197388 -1.52637177 75.0287915 -2.3681488 75.0255127 C-5.54765202 74.30618783 -6.69658049 73.13313268 -8.61328125 70.51757812 C-9.12121582 67.55786133 -9.12121582 67.55786133 -9.13085938 64.06835938 C-9.14346802 62.76020264 -9.15607666 61.4520459 -9.16906738 60.10424805 C-9.16190758 58.67951925 -9.15370359 57.25479538 -9.14453125 55.83007812 C-9.14722674 54.36563865 -9.15110963 52.90120093 -9.15612793 51.43676758 C-9.16202044 48.37010632 -9.15346871 45.30391164 -9.13476562 42.23730469 C-9.11197535 38.30944176 -9.12509988 34.38267207 -9.14905548 30.45484924 C-9.16352066 27.43159776 -9.15890436 24.4086048 -9.14854431 21.38534546 C-9.14587897 19.93728506 -9.14914007 18.48920106 -9.15846252 17.04116821 C-9.16863784 15.01638243 -9.15037457 12.99151418 -9.13085938 10.96679688 C-9.127677 9.81526123 -9.12449463 8.66372559 -9.12121582 7.47729492 C-8.20324862 2.12833249 -5.28686044 0.02113032 0 0 Z M3.38671875 11.51757812 C3.38671875 28.67757812 3.38671875 45.83757812 3.38671875 63.51757812 C13.28671875 63.51757812 23.18671875 63.51757812 33.38671875 63.51757812 C33.38671875 46.35757813 33.38671875 29.19757813 33.38671875 11.51757812 C23.48671875 11.51757812 13.58671875 11.51757812 3.38671875 11.51757812 Z " fill="#E01A28" transform="translate(84.61328125,109.482421875)"/>
<path d="M0 0 C0.91096939 -0.00945648 1.82193878 -0.01891296 2.76051331 -0.02865601 C3.73665085 -0.02258331 4.71278839 -0.01651062 5.71850586 -0.01025391 C6.72674911 -0.01312408 7.73499237 -0.01599426 8.77378845 -0.01895142 C10.90290896 -0.02099111 13.03204825 -0.0154679 15.16113281 -0.00292969 C18.4248223 0.0131416 21.68727649 -0.00279062 24.95092773 -0.02197266 C27.01928985 -0.01999054 29.08765119 -0.01614751 31.15600586 -0.01025391 C32.13416763 -0.0163266 33.11232941 -0.02239929 34.12013245 -0.02865601 C35.02794968 -0.01919952 35.93576691 -0.00974304 36.87109375 0 C38.06878136 0.00358017 38.06878136 0.00358017 39.29066467 0.00723267 C41.37084961 0.38818359 41.37084961 0.38818359 43.12782288 1.49726868 C44.9900952 4.33019127 44.7524063 6.66287357 44.7590332 10.03100586 C44.76429016 10.70122772 44.76954712 11.37144958 44.77496338 12.0619812 C44.78816313 14.2764214 44.77942703 16.49014239 44.76928711 18.70458984 C44.77130763 20.24250934 44.77421888 21.7804279 44.77798462 23.31834412 C44.78240771 26.54052864 44.77597671 29.76246362 44.76196289 32.98461914 C44.74485637 37.11991729 44.75472114 41.25463197 44.77268028 45.38990879 C44.78350642 48.56487955 44.78007749 51.73971132 44.77229691 54.9146862 C44.77029239 56.43975836 44.77276299 57.96484305 44.77973557 59.48990059 C44.78733276 61.61852727 44.77577252 63.74620044 44.7590332 65.87475586 C44.75664642 67.08704361 44.75425964 68.29933136 44.75180054 69.5483551 C44.62608673 70.4854985 44.50037292 71.42264191 44.37084961 72.38818359 C41.19728338 74.50389441 40.39869345 74.64239711 36.76342773 74.6628418 C35.83236206 74.67237381 34.90129639 74.68190582 33.9420166 74.69172668 C32.93884399 74.69081528 31.93567139 74.68990387 30.90209961 74.68896484 C29.35431824 74.69539253 29.35431824 74.69539253 27.77526855 74.70195007 C25.59310643 74.70769445 23.41092515 74.70819285 21.22875977 74.70385742 C17.88386524 74.7006959 14.53985359 74.72416125 11.19506836 74.74951172 C9.0765799 74.75178447 6.95808905 74.75248832 4.83959961 74.75146484 C3.836427 74.76067459 2.83325439 74.76988434 1.79968262 74.77937317 C0.86861694 74.77314438 -0.06244873 74.76691559 -1.02172852 74.76049805 C-1.84096802 74.76112747 -2.66020752 74.7617569 -3.50427246 74.7624054 C-5.62915039 74.38818359 -5.62915039 74.38818359 -7.39186096 73.27336121 C-9.23165675 70.47018375 -9.01809943 68.18603172 -9.03320312 64.85302734 C-9.04006638 64.19416534 -9.04692963 63.53530334 -9.05400085 62.85647583 C-9.07229756 60.67932569 -9.06842807 58.50289409 -9.06274414 56.32568359 C-9.06730426 54.81257899 -9.07260933 53.29947646 -9.07862854 51.78637695 C-9.08756498 48.61547429 -9.08513024 45.44482341 -9.07519531 42.27392578 C-9.06369844 38.20810278 -9.08392434 34.14314735 -9.11311245 30.07743835 C-9.13144712 26.95302806 -9.13118765 23.8288268 -9.12547493 20.70437622 C-9.12532141 19.20523867 -9.131391 17.70608721 -9.1437664 16.20700073 C-9.15862623 14.11189109 -9.14803986 12.01839845 -9.13085938 9.92333984 C-9.13069321 8.7310376 -9.13052704 7.53873535 -9.13035583 6.31030273 C-8.62915039 3.38818359 -8.62915039 3.38818359 -6.88711548 1.5039978 C-4.37334738 0.26177392 -2.79240135 0.00833883 0 0 Z M2.37084961 11.38818359 C2.37084961 28.54818359 2.37084961 45.70818359 2.37084961 63.38818359 C12.60084961 63.38818359 22.83084961 63.38818359 33.37084961 63.38818359 C33.37084961 46.22818359 33.37084961 29.06818359 33.37084961 11.38818359 C23.14084961 11.38818359 12.91084961 11.38818359 2.37084961 11.38818359 Z " fill="#E01A28" transform="translate(389.629150390625,109.61181640625)"/>
</svg>
