<?xml version="1.0" encoding="UTF-8"?>
<svg version="1.1" xmlns="http://www.w3.org/2000/svg" width="512" height="512">
<path d="M0 0 C1.32696648 -0.02398109 1.32696648 -0.02398109 2.68074036 -0.04844666 C3.63905258 -0.05380936 4.59736481 -0.05917206 5.5847168 -0.06469727 C6.56885056 -0.07372574 7.55298431 -0.08275421 8.56694031 -0.09205627 C10.65250598 -0.10658318 12.73811747 -0.11545155 14.82373047 -0.11914062 C18.01112095 -0.1310185 21.19656443 -0.18016504 24.38354492 -0.23071289 C26.40892609 -0.24017893 28.43431916 -0.2474131 30.4597168 -0.25219727 C31.41195633 -0.27172958 32.36419586 -0.2912619 33.34529114 -0.31138611 C37.82039535 -0.2809662 40.05360677 -0.16396232 43.79125977 2.46850586 C45.92731473 5.60909565 46.50126651 7.51467967 46.8659668 11.27124023 C46.98520508 12.40110352 47.10444336 13.5309668 47.22729492 14.69506836 C47.37908203 16.45173828 47.37908203 16.45173828 47.53393555 18.24389648 C47.65446289 19.41114258 47.77499023 20.57838867 47.89916992 21.78100586 C48.41763124 26.98043223 48.78138508 32.07811468 48.72143555 37.30639648 C49.3762793 37.45334961 50.03112305 37.60030273 50.70581055 37.75170898 C57.39182998 39.39488325 63.00307787 41.80543931 68.99487305 45.19702148 C72.27736834 46.53259263 73.43233634 46.59167525 76.72143555 45.30639648 C78.92694339 43.65512248 80.93277824 42.01521986 82.97143555 40.18139648 C84.12434558 39.18184924 85.277994 38.18315305 86.43237305 37.18530273 C88.39873914 35.46713524 90.36110728 33.74452266 92.32299805 32.02124023 C95.67848591 29.21346946 97.99272934 27.48537696 102.28393555 26.43139648 C107.33470141 27.71704598 110.1216128 30.6565762 113.72143555 34.30639648 C114.30924805 34.89291992 114.89706055 35.47944336 115.50268555 36.08374023 C116.65568632 37.23936147 117.80408488 38.3995915 118.94799805 39.56420898 C120.7694397 41.35355475 122.65857834 43.01928181 124.59643555 44.68139648 C125.97301611 45.88792886 127.34791075 47.09638654 128.72143555 48.30639648 C129.54901367 49.01924805 130.3765918 49.73209961 131.22924805 50.46655273 C132.05166992 51.21807617 132.8740918 51.96959961 133.72143555 52.74389648 C134.48456055 53.42323242 135.24768555 54.10256836 136.03393555 54.80249023 C137.97216557 57.67842876 138.3226986 59.83554206 138.13500977 63.29248047 C137.43643311 66.69422712 135.49642543 69.0626365 133.28393555 71.61889648 C132.83816162 72.16868164 132.3923877 72.7184668 131.93310547 73.28491211 C129.68462805 76.04323486 127.35644333 78.72953596 125.01831055 81.41186523 C124.1984668 82.36706055 123.37862305 83.32225586 122.53393555 84.30639648 C121.77725586 85.15202148 121.02057617 85.99764648 120.2409668 86.86889648 C118.50828393 89.15543108 118.50828393 89.15543108 118.7644043 91.62280273 C120.31840733 95.98035409 122.24472248 100.14337501 124.1940918 104.33569336 C124.50217773 105.01567383 124.81026367 105.6956543 125.12768555 106.39624023 C125.4093457 107.00330811 125.69100586 107.61037598 125.98120117 108.23583984 C126.92856182 110.88576255 127.31764361 113.52737236 127.72143555 116.30639648 C128.50268799 116.38680176 129.28394043 116.46720703 130.08886719 116.55004883 C133.65459456 116.92071315 137.21923736 117.30096692 140.78393555 117.68139648 C142.62761719 117.87088867 142.62761719 117.87088867 144.50854492 118.06420898 C159.65718005 119.69748501 159.65718005 119.69748501 163.37220764 122.59303284 C165.10291949 124.79083705 165.1066877 126.027784 165.12548828 128.80615234 C165.14451454 130.16787819 165.14451454 130.16787819 165.16392517 131.55711365 C165.15952171 133.02435631 165.15952171 133.02435631 165.1550293 134.52124023 C165.16027115 135.52852676 165.165513 136.53581329 165.1709137 137.57362366 C165.17733889 139.70450926 165.17599049 141.8354303 165.16748047 143.96630859 C165.15897673 147.22810024 165.18771581 150.4881376 165.21948242 153.74975586 C165.22109464 155.81941679 165.2205165 157.88908083 165.2175293 159.95874023 C165.22876328 160.93487778 165.23999725 161.91101532 165.25157166 162.91673279 C165.18206607 169.66631124 165.18206607 169.66631124 162.85083008 172.90576172 C160.21832752 174.63732182 158.2870004 175.04803521 155.15893555 175.43139648 C153.46510742 175.64795898 153.46510742 175.64795898 151.73706055 175.86889648 C150.39878327 176.01713643 149.06021205 176.16273499 147.72143555 176.30639648 C146.50230469 176.44174805 146.50230469 176.44174805 145.25854492 176.57983398 C139.74934581 177.18876712 134.23706072 177.75891099 128.72143555 178.30639648 C128.37363037 179.1383252 128.37363037 179.1383252 128.01879883 179.98706055 C126.96276709 182.51077057 125.90462303 185.03358965 124.84643555 187.55639648 C124.48163086 188.4290918 124.11682617 189.30178711 123.7409668 190.20092773 C123.38647461 191.04526367 123.03198242 191.88959961 122.66674805 192.75952148 C122.17972412 193.92209473 122.17972412 193.92209473 121.68286133 195.1081543 C121.03657248 196.58585486 120.33939089 198.04221996 119.59619141 199.47363281 C118.57644959 201.24966678 118.57644959 201.24966678 118.7800293 203.17749023 C120.19584964 206.37924163 122.47889688 208.78243759 124.78393555 211.36889648 C125.78240783 212.52700632 126.77847286 213.6871956 127.7722168 214.84936523 C128.26802246 215.4286377 128.76382812 216.00791016 129.2746582 216.60473633 C138.50211258 227.45781715 138.50211258 227.45781715 139.15893555 232.99389648 C135.50724341 241.40866532 127.34183291 247.84398755 120.90380859 254.25439453 C119.39064889 255.76211744 117.8830067 257.27521407 116.37573242 258.78881836 C115.41186081 259.75203041 114.44767971 260.71493288 113.4831543 261.67749023 C112.61650146 262.54301514 111.74984863 263.40854004 110.85693359 264.30029297 C108.44169784 266.56918427 107.3474852 267.20205488 104.09643555 267.74389648 C100.57468273 267.28737297 99.71986174 266.80386209 97.0300293 264.70483398 C95.9786377 263.88825317 95.9786377 263.88825317 94.90600586 263.05517578 C90.66014687 259.65630587 86.46101268 256.20301858 82.28198242 252.72241211 C81.60586914 252.16618164 80.92975586 251.60995117 80.2331543 251.03686523 C79.62947021 250.53566162 79.02578613 250.03445801 78.40380859 249.51806641 C76.62157857 248.10765224 76.62157857 248.10765224 73.72143555 247.30639648 C71.36005064 248.33015218 69.16419967 249.39798386 66.90893555 250.61889648 C56.22920108 256.30639648 56.22920108 256.30639648 49.72143555 256.30639648 C49.67132324 256.98105957 49.62121094 257.65572266 49.56958008 258.35083008 C49.33488021 261.46153465 49.09071194 264.57142985 48.84643555 267.68139648 C48.76780273 268.74229492 48.68916992 269.80319336 48.6081543 270.89624023 C48.20923272 275.89810308 47.74117618 280.8869644 46.96362305 285.84545898 C46.84615723 286.61325684 46.72869141 287.38105469 46.60766602 288.17211914 C45.2510313 291.43925431 43.79067111 292.53489471 40.72143555 294.30639648 C37.46335036 294.85965353 34.26527834 294.81986238 30.9675293 294.76733398 C30.0296608 294.76641754 29.0917923 294.7655011 28.12550354 294.76455688 C26.14774498 294.75852817 24.16999524 294.74280413 22.19238281 294.71801758 C19.16591754 294.68148077 16.14067663 294.67699861 13.11401367 294.67749023 C11.19017497 294.66765956 9.26634456 294.65600278 7.3425293 294.64233398 C5.98616615 294.63899551 5.98616615 294.63899551 4.60240173 294.6355896 C3.75794998 294.6228299 2.91349823 294.61007019 2.04345703 294.59692383 C1.30353012 294.58930023 0.56360321 294.58167664 -0.19874573 294.57382202 C-2.60003626 294.26506126 -4.21156209 293.55158116 -6.27856445 292.30639648 C-8.66276154 288.92738996 -8.85341538 285.16427565 -9.34887695 281.13452148 C-9.43483124 280.45210388 -9.52078552 279.76968628 -9.60934448 279.06658936 C-9.88097736 276.89731586 -10.14240506 274.72695325 -10.40356445 272.55639648 C-10.5864851 271.08105246 -10.7700715 269.60579081 -10.9543457 268.13061523 C-11.40346718 264.52346446 -11.84344797 260.91526654 -12.27856445 257.30639648 C-13.40133789 256.91967773 -14.52411133 256.53295898 -15.6809082 256.13452148 C-17.19269723 255.60868182 -18.704412 255.08262864 -20.21606445 254.55639648 C-21.31917969 254.17741211 -21.31917969 254.17741211 -22.44458008 253.79077148 C-27.85566592 251.90043582 -33.07402289 249.70576792 -38.27856445 247.30639648 C-38.74641357 247.69907715 -39.2142627 248.09175781 -39.69628906 248.49633789 C-41.86569994 250.31267575 -44.04082978 252.1220381 -46.21606445 253.93139648 C-46.95147461 254.54885742 -47.68688477 255.16631836 -48.44458008 255.80249023 C-50.69737454 257.67162101 -52.9755057 259.49959843 -55.27856445 261.30639648 C-56.04700684 261.91193359 -56.81544922 262.5174707 -57.60717773 263.14135742 C-61.09577225 265.7020791 -63.43199425 267.20718904 -67.77856445 267.71655273 C-73.09781462 265.57341734 -76.38638991 261.86790357 -80.27856445 257.74389648 C-81.0468457 256.95692383 -81.81512695 256.16995117 -82.60668945 255.35913086 C-86.8015719 251.03226657 -90.84601891 246.59661183 -94.77075195 242.02368164 C-95.76163787 240.89513703 -96.78775398 239.79641531 -97.84887695 238.73364258 C-100.40482142 236.07032749 -101.28740187 234.7977568 -101.2199707 231.04858398 C-100.07676928 226.50423973 -98.20342252 224.00440241 -95.21606445 220.49389648 C-94.72452881 219.89367676 -94.23299316 219.29345703 -93.7265625 218.67504883 C-92.73015543 217.4592865 -91.72832229 216.24794973 -90.72094727 215.04125977 C-88.63775892 212.53565104 -86.61685967 209.98360802 -84.59106445 207.43139648 C-83.48749464 206.05591741 -82.38343552 204.68083053 -81.27856445 203.30639648 C-81.54596436 202.69119141 -81.81336426 202.07598633 -82.08886719 201.44213867 C-83.301112 198.64825821 -84.50863314 195.85236035 -85.71606445 193.05639648 C-86.13694336 192.08831055 -86.55782227 191.12022461 -86.99145508 190.12280273 C-87.39428711 189.18823242 -87.79711914 188.25366211 -88.2121582 187.29077148 C-88.58397217 186.43193359 -88.95578613 185.5730957 -89.33886719 184.68823242 C-90.17594127 182.56651385 -90.7900644 180.53053496 -91.27856445 178.30639648 C-92.13087646 178.22599121 -92.98318848 178.14558594 -93.86132812 178.06274414 C-97.03951292 177.75931785 -100.21695086 177.44916744 -103.39404297 177.13452148 C-104.76617894 177.00000786 -106.13857659 176.86813523 -107.51123047 176.73901367 C-109.49034165 176.55237279 -111.46845763 176.35527326 -113.4465332 176.15795898 C-115.22966919 175.98514404 -115.22966919 175.98514404 -117.04882812 175.80883789 C-121.04989488 175.18640268 -123.94574623 174.43502199 -127.06176758 171.79638672 C-129.0082597 167.81318584 -128.74636273 163.84258039 -128.74731445 159.46655273 C-128.75492798 158.50744492 -128.7625415 157.5483371 -128.77038574 156.56016541 C-128.78118148 154.53362631 -128.78404199 152.5070316 -128.77954102 150.48046875 C-128.77856891 147.38308757 -128.82019194 144.28818551 -128.86450195 141.19116211 C-128.86970927 139.22046414 -128.87239714 137.24975758 -128.87231445 135.27905273 C-128.88870972 134.35496109 -128.90510498 133.43086945 -128.92199707 132.47877502 C-128.87513629 128.10953974 -128.71156705 125.92833205 -126.16186523 122.26611328 C-122.8118035 119.98914922 -120.56269059 119.44127701 -116.55200195 118.97827148 C-115.27325195 118.81842773 -113.99450195 118.65858398 -112.67700195 118.49389648 C-111.33594047 118.34728947 -109.99479332 118.20146421 -108.65356445 118.05639648 C-107.3043632 117.89698077 -105.95539947 117.73554113 -104.60668945 117.57202148 C-102.13972914 117.27299599 -99.67153462 116.98387141 -97.2019043 116.70776367 C-94.22297344 116.39022585 -94.22297344 116.39022585 -91.27856445 115.30639648 C-90.16109554 112.80326611 -89.22262041 110.39136661 -88.34106445 107.80639648 C-87.8210303 106.34731253 -87.2989029 104.8889729 -86.7746582 103.43139648 C-86.52184082 102.72370117 -86.26902344 102.01600586 -86.00854492 101.28686523 C-84.62577464 97.53534934 -82.96129699 93.93074348 -81.27856445 90.30639648 C-82.4387207 88.96448242 -82.4387207 88.96448242 -83.62231445 87.59545898 C-86.33706872 84.44941718 -89.03459023 81.2890442 -91.72631836 78.12329102 C-93.08049565 76.53823481 -94.44975765 74.96609091 -95.8215332 73.39624023 C-98.78930451 69.89870282 -101.01781812 66.96393071 -102.71606445 62.68139648 C-102.04906777 57.53599354 -98.74984547 55.01872325 -95.27856445 51.30639648 C-94.38854736 50.35039551 -93.49853027 49.39439453 -92.58154297 48.40942383 C-90.06367585 45.72555076 -87.50853392 43.08045203 -84.93603516 40.44897461 C-83.86640308 39.34741566 -82.80491919 38.23788982 -81.75146484 37.12084961 C-80.20789985 35.48595364 -78.63954133 33.87890045 -77.0637207 32.27514648 C-76.37113914 31.52533508 -76.37113914 31.52533508 -75.66456604 30.76037598 C-72.96682685 28.0781132 -70.91089883 26.96608013 -67.18286133 26.81542969 C-63.3068639 27.30283782 -61.87243516 27.6687243 -59.0246582 30.19311523 C-58.3150293 30.80219727 -57.60540039 31.4112793 -56.87426758 32.03881836 C-56.16206055 32.68399414 -55.44985352 33.32916992 -54.71606445 33.99389648 C-46.65179732 42.22768434 -46.65179732 42.22768434 -36.73168945 46.30249023 C-33.76688847 45.09862996 -30.89821154 43.78639124 -28.02856445 42.36889648 C-22.75683719 39.86797468 -18.01780375 38.27914891 -12.27856445 37.30639648 C-12.20508789 35.94321289 -12.20508789 35.94321289 -12.13012695 34.55249023 C-10.0828796 0.13755625 -10.0828796 0.13755625 0 0 Z M-17.27856445 116.30639648 C-24.81398693 126.56136993 -28.83553236 138.53576085 -27.27856445 151.30639648 C-24.39230172 164.77562257 -18.14443653 175.896807 -6.89575195 184.02905273 C4.50438606 191.30155457 16.77249543 193.27973998 30.0300293 190.65014648 C41.98805103 187.04252484 52.13299659 180.27243634 58.40893555 169.37670898 C64.81311321 157.03019339 66.92142764 145.13898583 63.15893555 131.49389648 C59.1909184 120.19818217 51.35537344 110.72094449 40.9519043 104.70483398 C20.31114247 94.83191015 -1.82020749 99.18808173 -17.27856445 116.30639648 Z " fill="#E01A28" transform="translate(136.278564453125,95.693603515625)"/>
<path d="M0 0 C1.27787132 -0.0099852 1.27787132 -0.0099852 2.58155823 -0.02017212 C4.38288209 -0.03029452 6.18424343 -0.03498927 7.9855957 -0.03466797 C10.74037478 -0.03904102 13.49355133 -0.07536292 16.24804688 -0.11328125 C17.99869244 -0.11914955 19.74934561 -0.12311885 21.5 -0.125 C22.32302109 -0.13937103 23.14604218 -0.15374207 23.9940033 -0.16854858 C29.7097014 -0.12292187 29.7097014 -0.12292187 32.82006836 2.22949219 C34.49401576 4.58596439 35.01632208 6.1119691 35.44140625 8.9609375 C35.65796875 10.38212891 35.65796875 10.38212891 35.87890625 11.83203125 C36.77286706 18.99169953 37.57423987 26.15903072 38.31640625 33.3359375 C38.91493408 33.4486499 39.51346191 33.5613623 40.13012695 33.67749023 C45.25114063 34.66236848 49.55724244 36.2084498 54.17578125 38.62890625 C57.09711146 39.59379816 58.40119536 39.37160453 61.31640625 38.3359375 C63.78801273 36.70759808 66.04430355 34.85435641 68.31640625 32.9609375 C78.27533482 24.78950893 78.27533482 24.78950893 83.12890625 23.7109375 C91.24399554 25.30213148 98.50945369 35.22012519 104.25390625 40.8359375 C105.11564453 41.65191406 105.97738281 42.46789062 106.86523438 43.30859375 C110.41241904 46.79148744 112.95818381 49.32398567 114.6328125 54.0546875 C114.22888731 58.24354137 112.93933226 60.0637298 110.31640625 63.3359375 C109.47981948 64.42007221 108.64389766 65.50472031 107.80859375 66.58984375 C106.49627972 68.2548668 105.17828506 69.91479117 103.8515625 71.56835938 C100.26341823 76.05270505 100.26341823 76.05270505 98.31640625 81.3359375 C99.12894522 83.87035509 99.9630478 85.97904007 101.12890625 88.3359375 C103.0082561 92.28890708 104.67863045 95.96261774 105.31640625 100.3359375 C106.46302734 100.40941406 106.46302734 100.40941406 107.6328125 100.484375 C113.89213303 100.92124695 120.14345617 101.44834378 126.37890625 102.1484375 C127.60738281 102.27863281 128.83585938 102.40882813 130.1015625 102.54296875 C133.7201646 103.43552796 135.0267801 104.45331464 137.31640625 107.3359375 C138.91129393 110.52571286 138.47941779 113.98099579 138.484375 117.484375 C138.4877034 118.29331207 138.4910318 119.10224915 138.49446106 119.93569946 C138.49952811 121.64885896 138.50186945 123.36202833 138.50170898 125.07519531 C138.50389173 127.69352558 138.52203919 130.31143203 138.54101562 132.9296875 C138.54395035 134.59374856 138.54593462 136.25781162 138.546875 137.921875 C138.55406052 138.70428558 138.56124603 139.48669617 138.56864929 140.29281616 C138.53925399 147.30583288 138.53925399 147.30583288 136.31640625 150.3359375 C133.27628914 152.36268224 131.93499723 152.72108418 128.421875 153.1875 C127.46603516 153.31640625 126.51019531 153.4453125 125.52539062 153.578125 C124.52830078 153.70445312 123.53121094 153.83078125 122.50390625 153.9609375 C121.51841797 154.095 120.53292969 154.2290625 119.51757812 154.3671875 C114.75483602 154.99411662 110.13202614 155.51580785 105.31640625 155.3359375 C105.14625 156.0371875 104.97609375 156.7384375 104.80078125 157.4609375 C103.59583094 162.17818976 102.40821569 166.45653232 100.00390625 170.7109375 C98.01464051 174.02589641 98.01464051 174.02589641 98.80078125 176.5390625 C101.46158727 181.44920969 105.15776473 185.62715974 108.70507812 189.921875 C114.87235277 197.67422922 114.87235277 197.67422922 114.31640625 203.3359375 C112.37837445 206.39449521 109.87878991 208.79558978 107.31640625 211.3359375 C105.72244433 213.05328351 104.13007338 214.77210718 102.5390625 216.4921875 C100.82191456 218.2762373 99.1018153 220.05745074 97.37890625 221.8359375 C96.0959668 223.21265625 96.0959668 223.21265625 94.78710938 224.6171875 C87.65278315 231.93109631 87.65278315 231.93109631 83.26171875 232.36328125 C77.92895197 231.64867039 74.06127444 227.79022867 70.12890625 224.3984375 C68.57962565 223.08967279 67.02383533 221.78856651 65.4609375 220.49609375 C64.78393799 219.91480713 64.10693848 219.33352051 63.40942383 218.73461914 C60.97480806 217.10766081 59.22414182 216.60265477 56.31640625 216.3359375 C53.66012974 217.21664325 51.23165205 218.13975358 48.69140625 219.2734375 C41.65648386 222.3359375 41.65648386 222.3359375 38.31640625 222.3359375 C38.24123779 223.09737061 38.16606934 223.85880371 38.08862305 224.64331055 C37.73970851 228.10476431 37.37201219 231.56397423 37.00390625 235.0234375 C36.88595703 236.22162109 36.76800781 237.41980469 36.64648438 238.65429688 C36.52080078 239.81123047 36.39511719 240.96816406 36.265625 242.16015625 C36.15565186 243.22322998 36.04567871 244.28630371 35.93237305 245.3815918 C35.2615241 248.59916734 34.22867759 250.67760302 32.31640625 253.3359375 C28.95882743 255.01472691 25.17007527 254.52070813 21.4765625 254.5390625 C20.59866562 254.54476257 19.72076874 254.55046265 18.81626892 254.55633545 C16.9576844 254.56578901 15.09908309 254.57232084 13.24047852 254.57617188 C10.39374686 254.58588685 7.54773427 254.61691029 4.70117188 254.6484375 C2.89713971 254.65496656 1.09310238 254.66021741 -0.7109375 254.6640625 C-1.56413071 254.6764093 -2.41732391 254.6887561 -3.29637146 254.70147705 C-9.26795181 254.67891035 -9.26795181 254.67891035 -11.39112854 252.92694092 C-16.98005833 246.04706026 -15.85564875 230.91485696 -16.68359375 222.3359375 C-17.27817383 222.21694092 -17.87275391 222.09794434 -18.48535156 221.9753418 C-23.61478846 220.90158106 -27.89570846 219.47847738 -32.54296875 217.04296875 C-35.46519075 216.07778229 -36.76662856 216.30116007 -39.68359375 217.3359375 C-42.17709249 218.96259921 -44.45370758 220.81479623 -46.74609375 222.7109375 C-48.54622134 224.16773201 -50.34660289 225.62401724 -52.15283203 227.07324219 C-53.35068168 228.06132487 -54.49566839 229.11356049 -55.6171875 230.1875 C-58.87592581 231.99859464 -62.09936533 231.99327048 -65.68359375 231.3359375 C-68.31415526 229.82007651 -70.27668839 227.82069732 -72.37109375 225.640625 C-72.95906738 225.05556183 -73.54704102 224.47049866 -74.15283203 223.8677063 C-75.38585315 222.63137745 -76.60904552 221.38517643 -77.82275391 220.12988281 C-79.68174602 218.21284293 -81.5753964 216.33606023 -83.4765625 214.4609375 C-84.67281376 213.25221361 -85.86690237 212.04134475 -87.05859375 210.828125 C-87.62408936 210.26850067 -88.18958496 209.70887634 -88.7722168 209.1322937 C-91.34467716 206.43305239 -92.62399968 204.81003911 -93.09521484 201.0612793 C-92.65289662 198.13269191 -92.02727294 196.66154699 -90.30859375 194.2734375 C-89.78136719 193.49742187 -89.25414062 192.72140625 -88.7109375 191.921875 C-87.13776133 189.91524181 -85.62601575 188.2619044 -83.8125 186.5 C-79.34393504 181.99208417 -79.34393504 181.99208417 -76.68359375 176.3359375 C-77.2929321 170.50440811 -80.11231817 165.21111598 -82.88232422 160.12255859 C-83.68359375 158.3359375 -83.68359375 158.3359375 -83.68359375 155.3359375 C-84.95589844 155.26246094 -84.95589844 155.26246094 -86.25390625 155.1875 C-92.59571962 154.78329651 -98.93063673 154.29433797 -105.24609375 153.5859375 C-106.36113281 153.46734375 -107.47617187 153.34875 -108.625 153.2265625 C-112.64736583 152.05529889 -114.09755423 150.63356097 -116.68359375 147.3359375 C-117.404303 144.3828034 -117.38542816 141.52100577 -117.34765625 138.4921875 C-117.35243988 137.64547485 -117.35722351 136.79876221 -117.3621521 135.9263916 C-117.3655455 134.1411757 -117.35638216 132.35589718 -117.33544922 130.57080078 C-117.30867256 127.84396327 -117.33521273 125.1212413 -117.3671875 122.39453125 C-117.3638833 120.65624095 -117.35747684 118.9179532 -117.34765625 117.1796875 C-117.3577774 116.36810181 -117.36789856 115.55651611 -117.37832642 114.72033691 C-117.29261646 110.56397912 -117.02157742 108.79237619 -114.47607422 105.35473633 C-111.53532501 103.22874794 -109.90529501 102.58316179 -106.33984375 102.19140625 C-105.34082031 102.07216797 -104.34179688 101.95292969 -103.3125 101.83007812 C-102.27996094 101.72888672 -101.24742187 101.62769531 -100.18359375 101.5234375 C-98.63478516 101.34264648 -98.63478516 101.34264648 -97.0546875 101.15820312 C-92.57264278 100.65216582 -88.19748454 100.27335763 -83.68359375 100.3359375 C-83.34328125 98.4796875 -83.34328125 98.4796875 -82.99609375 96.5859375 C-81.67214098 90.52667921 -79.18881333 84.98702442 -76.68359375 79.3359375 C-77.09722168 78.80637451 -77.51084961 78.27681152 -77.93701172 77.73120117 C-79.81196322 75.32946254 -81.68529506 72.92646547 -83.55859375 70.5234375 C-84.20957031 69.69005859 -84.86054688 68.85667969 -85.53125 67.99804688 C-86.15644531 67.19560547 -86.78164063 66.39316406 -87.42578125 65.56640625 C-88.00183105 64.82801514 -88.57788086 64.08962402 -89.17138672 63.32885742 C-91.11763589 60.76391845 -92.57918423 58.83478297 -93.24609375 55.6484375 C-92.64087283 52.08435873 -92.11242948 51.36271656 -89.7734375 48.78515625 C-89.13784912 48.08414795 -88.50226074 47.38313965 -87.84741211 46.66088867 C-87.13335205 45.89365479 -86.41929199 45.1264209 -85.68359375 44.3359375 C-84.91217041 43.50360596 -84.14074707 42.67127441 -83.34594727 41.8137207 C-80.82028344 39.12560913 -78.25692245 36.4784004 -75.68359375 33.8359375 C-74.81992187 32.918125 -73.95625 32.0003125 -73.06640625 31.0546875 C-66.70261919 24.55550071 -66.70261919 24.55550071 -61.89453125 23.51953125 C-58.293856 24.4350314 -56.21695251 25.59707854 -53.30859375 27.8984375 C-51.89900391 28.98125 -51.89900391 28.98125 -50.4609375 30.0859375 C-48.68623605 31.52367032 -46.92662478 32.98036805 -45.1875 34.4609375 C-44.42308594 35.1003125 -43.65867187 35.7396875 -42.87109375 36.3984375 C-42.20464844 36.98753906 -41.53820312 37.57664062 -40.8515625 38.18359375 C-37.7457321 39.83444054 -36.04119555 39.23351422 -32.68359375 38.3359375 C-30.43635302 37.5305222 -28.20667383 36.67461475 -25.99609375 35.7734375 C-20.00937279 33.3359375 -20.00937279 33.3359375 -16.68359375 33.3359375 C-16.60318848 32.53897461 -16.5227832 31.74201172 -16.43994141 30.92089844 C-16.07089675 27.3083672 -15.68988398 23.69719591 -15.30859375 20.0859375 C-15.11910156 18.20455078 -15.11910156 18.20455078 -14.92578125 16.28515625 C-14.796875 15.07988281 -14.66796875 13.87460937 -14.53515625 12.6328125 C-14.41994629 11.52260742 -14.30473633 10.41240234 -14.18603516 9.26855469 C-13.71144307 6.49848657 -13.21466135 4.67307298 -11.68359375 2.3359375 C-7.79971636 -0.25331409 -4.50810055 0.01216108 0 0 Z M-17.68359375 100.3359375 C-25.42699468 109.32381358 -27.45666076 117.6345583 -27.02734375 129.39453125 C-26.19653855 138.92046811 -22.39996084 146.55560501 -15.68359375 153.3359375 C-7.36926549 160.30749496 1.33350278 164.54802115 12.31640625 164.3359375 C24.00227704 163.06012815 33.66070249 159.16287087 41.25390625 149.9609375 C48.02540913 140.44510852 50.30302579 130.93913917 49.31640625 119.3359375 C46.84914969 107.90196569 40.94322365 99.01369464 31.31640625 92.3359375 C14.33587497 83.89681804 -4.75572642 85.707035 -17.68359375 100.3359375 Z " fill="#E01A28" transform="translate(366.68359375,250.6640625)"/>
<path d="M0 0 C2.22807212 -0.00437401 4.45416272 -0.04071765 6.68188477 -0.07861328 C8.10570615 -0.08448207 9.5295369 -0.08845105 10.95336914 -0.09033203 C12.88684204 -0.10265869 12.88684204 -0.10265869 14.859375 -0.11523438 C18.87377576 0.45145765 20.5106737 1.47378154 23.30102539 4.37060547 C24.22680664 7.69091797 24.22680664 7.69091797 24.61352539 11.49560547 C24.68490723 12.15633057 24.75628906 12.81705566 24.82983398 13.49780273 C25.3610048 18.790862 25.52604026 24.05775444 25.30102539 29.37060547 C25.84629883 29.46857422 26.39157227 29.56654297 26.95336914 29.66748047 C32.81911586 30.8306029 37.93220883 32.7560045 43.30102539 35.37060547 C44.18145508 34.62294922 45.06188477 33.87529297 45.96899414 33.10498047 C47.14214039 32.11015245 48.31531921 31.11536282 49.48852539 30.12060547 C50.06666992 29.62947266 50.64481445 29.13833984 51.24047852 28.63232422 C52.38594084 27.66159344 53.53394862 26.69385775 54.68457031 25.72924805 C56.12871319 24.51543516 57.55956362 23.28584796 58.98852539 22.05419922 C61.70951023 20.07321195 63.84811881 19.61568385 67.2121582 19.79492188 C69.79587215 20.50698329 71.06447674 21.58607779 73.03540039 23.39404297 C73.72867432 24.02769775 74.42194824 24.66135254 75.13623047 25.31420898 C78.72213658 28.72055692 82.25104067 32.17611943 85.73852539 35.68310547 C86.45717773 36.39789063 87.17583008 37.11267578 87.91625977 37.84912109 C88.94009766 38.87489258 88.94009766 38.87489258 89.98461914 39.92138672 C90.59877686 40.53667236 91.21293457 41.15195801 91.84570312 41.78588867 C93.7683405 43.87947015 94.26775992 45.16951421 94.73461914 47.99169922 C94.10308536 52.9131111 91.45534097 55.67449652 88.36352539 59.43310547 C83.20048558 65.20262401 83.20048558 65.20262401 81.30102539 72.37060547 C82.25760248 75.70084091 82.25760248 75.70084091 83.73852539 79.05810547 C86.30102539 85.2234665 86.30102539 85.2234665 86.30102539 87.37060547 C86.94128662 87.41548096 87.58154785 87.46035645 88.24121094 87.5065918 C91.15813893 87.71865999 94.07315173 87.95068083 96.98852539 88.18310547 C97.99592773 88.25335938 99.00333008 88.32361328 100.04125977 88.39599609 C109.50396931 89.17674771 109.50396931 89.17674771 113.30102539 92.37060547 C115.72029494 95.9995098 115.62384779 98.72650332 115.63696289 102.92529297 C115.64694809 104.03313644 115.64694809 104.03313644 115.65713501 105.1633606 C115.66725351 106.7250927 115.67195228 108.28686797 115.67163086 109.84863281 C115.67599749 112.23038577 115.71230297 114.61027493 115.75024414 116.99169922 C115.75611397 118.51122415 115.76008225 120.03075786 115.76196289 121.55029297 C115.77633392 122.25878387 115.79070496 122.96727478 115.80551147 123.69723511 C115.76114267 128.53299942 114.73040926 130.97796785 111.30102539 134.37060547 C107.95169013 136.0452731 104.174624 136.04158437 100.48852539 136.43310547 C99.68092773 136.52398437 98.87333008 136.61486328 98.04125977 136.70849609 C94.10977578 137.13674128 90.26269508 137.49114309 86.30102539 137.37060547 C86.10766602 138.11826172 85.91430664 138.86591797 85.71508789 139.63623047 C85.45469727 140.62107422 85.19430664 141.60591797 84.92602539 142.62060547 C84.67079102 143.59513672 84.41555664 144.56966797 84.15258789 145.57373047 C83.30102539 148.37060547 83.30102539 148.37060547 82.13696289 150.41748047 C80.91428574 153.27420278 81.22732827 154.43360517 82.30102539 157.37060547 C84.67290767 160.8841169 87.39320671 164.12852396 90.08422852 167.39990234 C92.43544701 170.37773609 94.11609156 172.68358075 95.10961914 176.37451172 C93.82806045 181.12308907 90.69068334 183.91930301 87.30102539 187.37060547 C86.61637207 188.10134277 85.93171875 188.83208008 85.22631836 189.58496094 C83.09154082 191.8546702 80.92032804 194.08363646 78.73852539 196.30810547 C77.64507812 197.45762695 77.64507812 197.45762695 76.52954102 198.63037109 C73.5401425 201.66820271 71.18782371 204.01072903 67.21118164 205.62451172 C61.80212721 205.1525808 58.09563788 202.28042111 54.37133789 198.58154297 C49.88530464 194.14406852 49.88530464 194.14406852 44.30102539 191.37060547 C38.20913266 191.72965093 32.65274125 194.64026899 27.30102539 197.37060547 C27.23109375 198.04115967 27.16116211 198.71171387 27.08911133 199.40258789 C26.76060304 202.45660581 26.40609532 205.50706643 26.05102539 208.55810547 C25.94145508 209.61320313 25.83188477 210.66830078 25.71899414 211.75537109 C25.5965332 212.77695313 25.47407227 213.79853516 25.34790039 214.85107422 C25.24316406 215.78846436 25.13842773 216.72585449 25.03051758 217.69165039 C24.07392317 221.2046057 23.0211993 222.92669073 20.30102539 225.37060547 C17.39330413 225.86720031 15.07906518 226.0505405 12.17602539 225.99951172 C11.39211426 226.00192368 10.60820312 226.00433563 9.80053711 226.00682068 C8.14635143 226.005843 6.49213273 225.99246798 4.83813477 225.9675293 C2.30900718 225.93321377 -0.21662624 225.94687196 -2.74584961 225.96630859 C-4.35523945 225.95940989 -5.96462029 225.94973728 -7.57397461 225.93701172 C-8.3282373 225.94197159 -9.0825 225.94693146 -9.85961914 225.95204163 C-13.3517138 225.87388006 -15.33621628 225.64502499 -18.15722656 223.51098633 C-20.12722772 220.77606943 -20.47346848 218.70736784 -20.88647461 215.37060547 C-21.03213867 214.23236328 -21.17780273 213.09412109 -21.32788086 211.92138672 C-21.86908656 206.74290266 -22.34330689 201.56522605 -22.69897461 196.37060547 C-23.66834961 196.28810547 -24.63772461 196.20560547 -25.63647461 196.12060547 C-29.71849222 195.58131452 -32.97543327 193.93248621 -36.58569336 192.01513672 C-38.68979532 191.12784669 -38.68979532 191.12784669 -40.61254883 192.16992188 C-42.60233703 193.31499306 -44.37859897 194.53595324 -46.19506836 195.93701172 C-46.83637695 196.42234375 -47.47768555 196.90767578 -48.13842773 197.40771484 C-49.4698823 198.42420166 -50.79802436 199.4450422 -52.12280273 200.47021484 C-58.69056803 205.41744828 -58.69056803 205.41744828 -62.69897461 205.37060547 C-68.4944983 202.36588131 -72.87094594 197.71633544 -77.47558594 193.18432617 C-78.49965507 192.18337225 -79.5326165 191.19143606 -80.57421875 190.20874023 C-90.33693323 180.99703502 -90.33693323 180.99703502 -90.77709961 176.17529297 C-89.32421461 171.04808285 -86.71421355 168.04145138 -83.13647461 164.18310547 C-78.44278263 159.6046243 -78.44278263 159.6046243 -76.66772461 153.70263672 C-77.17819336 152.54828125 -77.17819336 152.54828125 -77.69897461 151.37060547 C-78.01995117 150.52240234 -78.34092773 149.67419922 -78.67163086 148.80029297 C-79.40047413 147.09182164 -80.12964284 145.38348911 -80.85913086 143.67529297 C-81.69897461 141.37060547 -81.69897461 141.37060547 -81.69897461 138.37060547 C-82.33923584 138.32572998 -82.97949707 138.28085449 -83.63916016 138.23461914 C-86.55608815 138.02255095 -89.47110095 137.79053011 -92.38647461 137.55810547 C-93.89757812 137.45272461 -93.89757812 137.45272461 -95.43920898 137.34521484 C-101.86754945 136.81482372 -106.01119696 136.05838312 -110.69897461 131.37060547 C-110.92329027 128.69276657 -111.02710967 126.12131945 -111.03491211 123.44091797 C-111.04156891 122.65417694 -111.04822571 121.86743591 -111.05508423 121.05685425 C-111.0652176 119.39079123 -111.06990104 117.72468756 -111.06958008 116.05859375 C-111.0739462 113.51217445 -111.11023584 110.9674983 -111.14819336 108.42138672 C-111.15406287 106.80290306 -111.15803137 105.18441117 -111.15991211 103.56591797 C-111.18146866 102.42511276 -111.18146866 102.42511276 -111.20346069 101.26126099 C-111.17286039 97.71057382 -110.99885762 95.75916295 -108.79833984 92.90795898 C-101.8422787 87.814074 -90.00166871 88.7912753 -81.69897461 88.37060547 C-81.53461914 87.55269531 -81.53461914 87.55269531 -81.36694336 86.71826172 C-81.12911133 85.58710938 -81.12911133 85.58710938 -80.88647461 84.43310547 C-80.7356543 83.70220703 -80.58483398 82.97130859 -80.42944336 82.21826172 C-79.69897461 79.37060547 -79.69897461 79.37060547 -78.73339844 77.34692383 C-77.66334944 74.93885785 -76.95846482 72.99892886 -76.69897461 70.37060547 C-78.20310882 66.99843969 -80.52324292 64.50513982 -83.01147461 61.80810547 C-84.27505568 60.40569758 -85.5218047 58.98790803 -86.74975586 57.55419922 C-87.313479 56.94116943 -87.87720215 56.32813965 -88.45800781 55.6965332 C-90.28309057 52.27580462 -90.46609241 49.10258436 -89.69897461 45.37060547 C-88.05716565 42.95961453 -86.72443144 41.33459124 -84.65991211 39.37451172 C-84.14143707 38.85549789 -83.62296204 38.33648407 -83.08877563 37.80174255 C-81.99357534 36.71420983 -80.88861713 35.6364254 -79.7746582 34.56811523 C-78.07671991 32.93574476 -76.41622562 31.27129334 -74.75756836 29.59912109 C-73.68538895 28.54301026 -72.61123262 27.48890189 -71.53491211 26.43701172 C-71.04090912 25.94229874 -70.54690613 25.44758575 -70.03793335 24.93788147 C-66.72831152 21.80367994 -64.26192886 20.57629596 -59.69897461 20.37060547 C-57.49584961 21.30419922 -57.49584961 21.30419922 -55.44897461 22.80810547 C-54.68456055 23.35466797 -53.92014648 23.90123047 -53.13256836 24.46435547 C-51.42687434 25.80043682 -49.75454784 27.17970713 -48.10913086 28.58935547 C-47.2519043 29.32154297 -46.39467773 30.05373047 -45.51147461 30.80810547 C-44.73416992 31.50806641 -43.95686523 32.20802734 -43.15600586 32.92919922 C-40.75019624 34.64390344 -40.75019624 34.64390344 -37.76147461 34.21435547 C-34.75296189 33.38547951 -31.82046123 32.49672579 -28.88647461 31.43310547 C-27.9312793 31.09408203 -26.97608398 30.75505859 -25.99194336 30.40576172 C-23.54682257 29.59229612 -23.54682257 29.59229612 -22.69897461 27.37060547 C-22.51602715 25.99509834 -22.37933863 24.61322965 -22.26928711 23.22998047 C-22.19581055 22.40626953 -22.12233398 21.58255859 -22.04663086 20.73388672 C-21.89957033 19.00786046 -21.75882176 17.28128341 -21.62475586 15.55419922 C-21.16839368 10.58062491 -20.54115291 6.6272632 -17.69897461 2.37060547 C-12.65586597 -1.09369381 -5.87718704 -0.00129468 0 0 Z M-23.85522461 90.96044922 C-29.95810861 98.93815987 -31.42097026 107.54344242 -30.69897461 117.37060547 C-28.90158819 126.73833976 -23.61141841 134.78115156 -15.76538086 140.15576172 C-7.42013097 145.06194833 1.39638877 146.36203978 10.82055664 144.15576172 C19.71514702 141.3403087 27.19271586 135.72212335 31.61352539 127.43310547 C35.6671205 118.29504408 36.55684287 109.74777806 33.17211914 100.17919922 C28.71434465 90.47412615 22.25691267 84.26093117 12.30102539 80.37060547 C-1.27038857 76.15092214 -14.48814659 80.79581202 -23.85522461 90.96044922 Z " fill="#E01A28" transform="translate(375.698974609375,6.62939453125)"/>
</svg>
