<?xml version="1.0" encoding="UTF-8"?>
<svg version="1.1" xmlns="http://www.w3.org/2000/svg" width="512" height="512">
<path d="M0 0 C15.29733585 14.82664859 24.58729596 35.16342814 28 56 C28.02452157 58.33320448 28.02813146 60.66683625 28 63 C28.98806641 62.98428955 29.97613281 62.9685791 30.99414062 62.95239258 C34.69164747 62.89772147 38.38911924 62.86351608 42.08691406 62.83520508 C43.68137641 62.82020255 45.27579808 62.79979379 46.87011719 62.77368164 C49.17393077 62.73691866 51.4771946 62.72018845 53.78125 62.70703125 C54.48366821 62.69154739 55.18608643 62.67606354 55.90979004 62.66011047 C62.36262441 62.65796055 67.73952648 64.19162119 72.8125 68.25 C78.36129126 75.2256233 78.50798262 81.79502022 78.6875 90.4375 C78.72166016 91.55060547 78.75582031 92.66371094 78.79101562 93.81054688 C78.87302429 96.54026383 78.94232837 99.2696786 79 102 C79.46584723 101.53046559 79.93169447 101.06093119 80.41165829 100.57716846 C91.76939779 89.1309302 103.13830196 77.6959167 114.51962185 66.27312946 C120.02337141 60.74879145 125.52333307 55.22078046 131.0144043 49.68383789 C135.80276897 44.85549144 140.59822279 40.03431741 145.40217167 35.22147435 C147.94346503 32.67498541 150.48117035 30.1251466 153.01040459 27.56667519 C155.84028425 24.70435258 158.68588644 21.85816144 161.53295898 19.01293945 C162.36086945 18.17064789 163.18877991 17.32835632 164.04177856 16.46054077 C170.89416929 9.65605874 178.08330108 4.04190146 188.0625 3.6875 C195.41945088 3.80870183 202.44414658 6.14922164 207.9375 11.125 C213.57574103 17.49512809 215.42542736 24.60876179 215.53125 32.96875 C213.49842549 44.56780747 206.65796452 51.02301426 198.44458008 58.79223633 C197.14363723 60.04558004 195.84423387 61.30052335 194.54624939 62.55693054 C191.7587301 65.25125904 188.9631811 67.93687623 186.16178322 70.61676979 C181.72029582 74.8710403 177.31433125 79.16089251 172.91545105 83.45915222 C171.40388133 84.93539099 169.89230078 86.41161866 168.38070965 87.8878355 C167.62391238 88.62699715 166.8671151 89.3661588 166.08738458 90.12771928 C155.85260783 100.11925294 145.5921634 110.08237869 135.25219727 119.96508789 C128.26320593 126.6455567 121.32661722 133.37597332 114.44375724 140.16578692 C110.80803095 143.7482457 107.15176669 147.30116126 103.42933083 150.79361916 C84.67211003 167.38690981 84.67211003 167.38690981 76.8916502 190.10763836 C76.96070917 194.8286806 77.42574397 199.44892709 77.94728661 204.13780785 C78.04095265 209.22361596 75.97253412 212.94577929 72.51127148 216.55037975 C68.30847559 220.25471888 65.10127417 221.12247263 59.64387512 221.15390015 C58.53222992 221.16250061 57.42058472 221.17110107 56.2752533 221.17996216 C54.44481224 221.18635208 54.44481224 221.18635208 52.57739258 221.19287109 C51.29257996 221.20104858 50.00776733 221.20922607 48.684021 221.21765137 C44.42087902 221.24384634 40.15772736 221.25917826 35.89453125 221.2734375 C34.42524395 221.27879856 32.95595672 221.28417607 31.48666954 221.28956985 C25.3727761 221.31119648 19.25888527 221.32993141 13.14496326 221.34119225 C4.39274365 221.35742002 -4.35903123 221.39057122 -13.11108321 221.44759309 C-19.2700288 221.486347 -25.42885572 221.50583145 -31.58792001 221.51111281 C-35.2637482 221.51475939 -38.93910179 221.52670527 -42.61479759 221.55921555 C-46.72027206 221.59500647 -50.82479604 221.59091158 -54.93041992 221.58349609 C-56.1405928 221.59990143 -57.35076569 221.61630676 -58.59761047 221.63320923 C-65.60971808 221.58139454 -70.68560451 220.82779111 -76 216 C-80.08667437 211.04751968 -80.5579926 206.49089942 -80.390625 200.22265625 C-80.38496521 199.41130722 -80.37930542 198.59995819 -80.37347412 197.76402283 C-80.3512492 195.1962245 -80.30108235 192.62986985 -80.25 190.0625 C-80.2299169 188.31186924 -80.21166931 186.56121641 -80.1953125 184.81054688 C-80.15143044 180.53981622 -80.08250275 176.27015207 -80 172 C-81.06653809 171.88100342 -82.13307617 171.76200684 -83.23193359 171.6394043 C-84.66247386 171.47217543 -86.09297303 171.30459471 -87.5234375 171.13671875 C-88.57229126 171.0211261 -88.57229126 171.0211261 -89.64233398 170.90319824 C-114.62346278 167.92306936 -137.51566972 152.39676861 -152.83984375 132.9375 C-169.92823145 109.69976482 -176.48782316 82.14155762 -172.22412109 53.58642578 C-167.71205779 28.23683377 -153.05990099 4.52239441 -132.25 -10.6875 C-89.16163801 -39.07272425 -37.74599238 -34.95189176 0 0 Z M-134 13 C-134.66902344 13.66902344 -135.33804688 14.33804688 -136.02734375 15.02734375 C-151.52611717 31.65074472 -158.05155954 53.81798297 -157.33984375 76.1640625 C-156.53294301 90.45855319 -152.13311793 102.69102211 -145 115 C-144.505 115.86109375 -144.01 116.7221875 -143.5 117.609375 C-131.59765505 136.6801777 -112.42762125 149.36268783 -90.75 154.4375 C-87.14445901 155.25133238 -83.71583661 156 -80 156 C-79.99635437 155.01329819 -79.99270874 154.02659637 -79.98895264 153.00999451 C-79.95195987 143.6966599 -79.89414046 134.38365464 -79.81609726 125.07057095 C-79.77664209 120.28295488 -79.744444 115.4955222 -79.72900391 110.70776367 C-79.7138244 106.08449985 -79.67935593 101.46174026 -79.63169098 96.83870125 C-79.61689051 95.07777357 -79.60895975 93.3167739 -79.60811615 91.55578423 C-79.60574066 89.08278966 -79.57861606 86.61118203 -79.54589844 84.13842773 C-79.55344398 83.05408951 -79.55344398 83.05408951 -79.56114197 81.94784546 C-79.44947205 76.46777483 -78.02785407 73.41483025 -75 69 C-69.17705528 64.39016876 -64.70590124 63.85363614 -57.47753906 63.79467773 C-56.72593002 63.78477814 -55.97432098 63.77487854 -55.19993591 63.76467896 C-52.72186404 63.73315534 -50.24377302 63.70834277 -47.765625 63.68359375 C-46.04497791 63.66301633 -44.3243358 63.64201964 -42.60369873 63.62062073 C-38.07952908 63.56548149 -33.55531443 63.51603633 -29.03106689 63.46777344 C-24.4125977 63.41749887 -19.7941937 63.36184391 -15.17578125 63.30664062 C-6.11724322 63.19915873 2.94135147 63.09769168 12 63 C11.8509247 61.40243831 11.69880686 59.80516035 11.54541016 58.20800781 C11.46102692 57.31849426 11.37664368 56.42898071 11.28970337 55.51251221 C9.66506633 41.42251243 2.16328418 27.57761717 -7 17 C-7.59296875 16.26394531 -8.1859375 15.52789062 -8.796875 14.76953125 C-22.91107352 -2.17333928 -43.17618264 -10.76028069 -64.61328125 -13.703125 C-91.19349224 -16.03310889 -115.38841344 -5.61158656 -134 13 Z M171 33 C172.61010527 37.07376031 175.53822271 39.76507069 178.625 42.75 C179.140625 43.25660156 179.65625 43.76320313 180.1875 44.28515625 C181.45383339 45.52803902 182.7263144 46.76465276 184 48 C190.19450089 45.35759053 196.39002061 39.76663088 199.046875 33.55078125 C199.71525269 29.61403668 199.34923508 26.81182322 197.0625 23.5 C193.88442928 20.90565656 192.1417647 19.85285604 188.109375 19.640625 C181.18345079 20.82059727 175.61058313 28.13007157 171 33 Z M156.36395836 47.38994598 C155.38224883 48.37442089 155.38224883 48.37442089 154.38070679 49.37878418 C153.25329323 50.50207375 153.25329323 50.50207375 152.10310364 51.64805603 C151.27807846 52.48027176 150.45305328 53.31248749 149.60302734 54.16992188 C148.73466751 55.03798965 147.86630768 55.90605743 146.97163391 56.8004303 C144.58595067 59.18727098 142.20480157 61.57847434 139.8255229 63.97168922 C137.34001498 66.46967049 134.84887025 68.96201704 132.35830688 71.45495605 C127.64049306 76.17899466 122.92780205 80.90810996 118.21691096 85.63905096 C112.85451757 91.02377234 107.48646742 96.40283912 102.11792445 101.78142834 C91.0722907 112.8479867 80.03381532 123.92165738 69 135 C69.95042087 136.11674511 70.90197608 137.23252489 71.85400391 138.34790039 C72.38377838 138.9693544 72.91355286 139.59080841 73.4593811 140.23109436 C75.34353861 142.39444368 77.32921803 144.42699013 79.375 146.4375 C80.40753906 147.45650391 80.40753906 147.45650391 81.4609375 148.49609375 C81.96882812 148.99238281 82.47671875 149.48867187 83 150 C88.41513654 145.48231594 93.44070184 140.6966332 98.41381836 135.69970703 C99.2243869 134.88928452 100.03495544 134.078862 100.87008667 133.24388123 C103.52905167 130.58422366 106.18446431 127.92104946 108.83984375 125.2578125 C110.69050087 123.40528887 112.54137997 121.55298696 114.39247131 119.70089722 C118.75395677 115.3363152 123.11288886 110.96919248 127.47088867 106.60113037 C132.43631671 101.62448894 137.4046161 96.65071823 142.37314785 91.67717576 C152.58527587 81.45462131 162.79382877 71.22850167 173 61 C171.17236588 57.03729911 168.58081926 54.28305462 165.5 51.25 C164.75169922 50.49009766 164.75169922 50.49009766 163.98828125 49.71484375 C160.53293247 45.75399834 160.53293247 45.75399834 156.36395836 47.38994598 Z M-64 80 C-64.09603022 81.6195634 -64.12187855 83.24333083 -64.12025452 84.86573792 C-64.12162918 85.91888184 -64.12300385 86.97202576 -64.12442017 88.05708313 C-64.12082489 89.22233017 -64.11722961 90.38757721 -64.11352539 91.58813477 C-64.11367142 92.80747711 -64.11381744 94.02681946 -64.1139679 95.28311157 C-64.11338893 98.63627511 -64.10835968 101.98937774 -64.10139394 105.34253049 C-64.09515983 108.84325562 -64.09455656 112.34398148 -64.09336853 115.8447113 C-64.09025538 122.47809656 -64.08204222 129.11146541 -64.07201904 135.74484342 C-64.06085739 143.29490207 -64.05534732 150.84496149 -64.05032361 158.39502633 C-64.03985959 173.93002706 -64.02226047 189.46501142 -64 205 C-47.71929697 205.02332902 -31.43859933 205.04097919 -15.15788364 205.05181217 C-7.59898381 205.05697512 -0.04009435 205.0640178 7.51879883 205.07543945 C14.10479666 205.08538632 20.69078698 205.09185343 27.27679211 205.09408849 C30.76613071 205.0953956 34.25544784 205.09848142 37.74477959 205.10573006 C41.63381232 205.11374398 45.52282378 205.11399114 49.41186523 205.11352539 C51.15973579 205.1189183 51.15973579 205.1189183 52.94291687 205.12442017 C53.99606079 205.1230455 55.04920471 205.12167084 56.13426208 205.12025452 C57.05513328 205.12117631 57.97600447 205.1220981 58.92478085 205.12304783 C60.99029255 205.23104526 60.99029255 205.23104526 62 204 C62.07313567 201.46950598 62.09247527 198.96695163 62.0625 196.4375 C62.05798828 195.72658203 62.05347656 195.01566406 62.04882812 194.28320312 C62.03700864 192.52209987 62.01907263 190.76103964 62 189 C57.15014205 189.4663325 52.6493442 190.30600821 47.9375 191.5625 C42.120781 193.04777542 37.57118857 193.84058088 31.75 191.9375 C28.29046578 189.50010089 26.80608681 187.08293972 26 183 C26.07365489 176.02996756 27.98010177 169.14858454 29.6875 162.4375 C30.03458008 160.9534668 30.03458008 160.9534668 30.38867188 159.43945312 C32.84071176 149.79134841 36.77271498 144.61055833 44.6171875 138.55859375 C53.67852558 131.34315005 61.99542064 124.67916204 63.39520264 112.55125427 C64.09575424 102.13929713 63.77076099 91.29524092 62 81 C60.21157885 78.79711783 60.21157885 78.79711783 57.83576107 78.75111103 C56.47990823 78.75192818 56.47990823 78.75192818 55.09666443 78.75276184 C53.54229675 78.74647011 53.54229675 78.74647011 51.95652771 78.74005127 C50.24445885 78.74848053 50.24445885 78.74848053 48.49780273 78.75708008 C47.2994278 78.75518173 46.10105286 78.75328339 44.86636353 78.75132751 C41.57510435 78.74825166 38.28409497 78.75414238 34.99286532 78.76428056 C31.55400665 78.7730489 28.11515236 78.77130386 24.67628479 78.7709198 C18.90176117 78.77185689 13.12729004 78.78054752 7.3527832 78.79418945 C0.66808579 78.80992289 -6.01655414 78.81518733 -12.70126873 78.8144539 C-19.12239162 78.81384444 -25.54349571 78.81894191 -31.96461296 78.82724571 C-34.70184412 78.83078432 -37.43906862 78.83260978 -40.17630196 78.83313942 C-43.9932879 78.83432661 -47.81022559 78.84402307 -51.62719727 78.85473633 C-53.34230247 78.85405655 -53.34230247 78.85405655 -55.09205627 78.85336304 C-56.64219421 78.85976051 -56.64219421 78.85976051 -58.22364807 78.86628723 C-59.57893537 78.868801 -59.57893537 78.868801 -60.96160221 78.87136555 C-62.994529 78.77413928 -62.994529 78.77413928 -64 80 Z M52.0625 151.5 C45.17753348 158.62152053 44.35605777 166.42782753 43 176 C55.46763054 174.99454592 62.60521082 172.6722571 71 163 C69.387672 158.96918 66.53765404 156.24055863 63.5 153.25 C63.00113281 152.74339844 62.50226563 152.23679688 61.98828125 151.71484375 C57.55603857 147.30636644 56.49563181 147.20720942 52.0625 151.5 Z " fill="#E01A28" transform="translate(235,100)"/>
<path d="M0 0 C3.0158153 2.20783542 3.90348032 3.39945993 4.50222206 7.12479782 C4.5033116 8.36435856 4.50440113 9.6039193 4.50552368 10.88104248 C4.5116138 11.57301955 4.51770392 12.26499663 4.52397859 12.97794271 C4.53959377 15.29650935 4.52678493 17.61404516 4.51416016 19.93261719 C4.51962038 21.59508921 4.52686146 23.2575562 4.53575134 24.92001343 C4.55109974 28.50066427 4.55388572 32.08102852 4.54698563 35.66170502 C4.53620582 41.32676909 4.55357456 46.9915335 4.57479858 52.65655518 C4.60507725 61.6213115 4.61675464 70.58597923 4.62037504 79.55078244 C4.6270156 95.59202443 4.65609017 111.63320442 4.7054714 127.674371 C4.72194387 133.30208151 4.72739086 138.92966319 4.72388101 144.55739546 C4.72344283 148.0649734 4.73102571 151.57250307 4.74055672 155.08006668 C4.74323129 156.70216552 4.74250179 158.32427424 4.73804665 159.94636917 C4.13364535 173.77605144 4.13364535 173.77605144 9.75 185.875 C10.45382813 186.70644531 10.45382813 186.70644531 11.171875 187.5546875 C15.43016003 190.92128037 20.31377513 191.25002892 25.56801033 191.25053978 C27.53641449 191.25803783 27.53641449 191.25803783 29.54458439 191.26568735 C30.99408911 191.26114723 32.44359329 191.25643059 33.89309692 191.2515564 C35.43810125 191.25369542 36.98310457 191.25672118 38.52810562 191.26055682 C42.77104513 191.2685964 47.01389649 191.26429029 51.2568357 191.25803804 C55.8335434 191.25350539 60.41023427 191.26054374 64.98693848 191.26634216 C72.91642992 191.27497583 80.84589906 191.27678319 88.77539444 191.27439499 C100.24448485 191.27129933 111.71352584 191.28292876 123.18260382 191.29894479 C141.79604787 191.32490811 160.40949196 191.34492722 179.02294922 191.35839844 C180.13699689 191.35920881 181.25104457 191.36001918 182.39885126 191.3608541 C198.219252 191.37208284 214.03964922 191.37735841 229.86005341 191.38024123 C230.97470746 191.38044522 232.08936152 191.38064921 233.23779297 191.38085938 C234.35109136 191.38105931 235.46438975 191.38125925 236.61142446 191.38146524 C255.15742407 191.38519446 273.70337004 191.4042527 292.2493428 191.43595374 C303.69365384 191.45489667 315.13782754 191.46081246 326.58214997 191.45013656 C334.41833198 191.44383134 342.25441526 191.45181862 350.09057559 191.47119068 C354.61563855 191.48190336 359.14046196 191.48597245 363.66552353 191.47271919 C367.80443593 191.46071812 371.94289793 191.46693901 376.08177088 191.48791118 C377.5823219 191.49223364 379.08291059 191.4897312 380.58343543 191.47987001 C382.61681857 191.46747263 384.6503131 191.48188792 386.68367195 191.49777794 C388.38069982 191.49843004 388.38069982 191.49843004 390.11201108 191.49909532 C393.64451911 192.11178805 394.82139784 193.20948905 397 196 C397.70882303 198.90784881 397.33971789 200.942539 397 204 C395.18836733 206.67431489 394.12238923 206.95920359 391 208 C388.68478845 208.08998063 386.36700474 208.11756894 384.05004883 208.11352539 C383.34735367 208.11367142 382.64465851 208.11381744 381.92066956 208.1139679 C379.59942532 208.11327157 377.27826146 208.10549226 374.95703125 208.09765625 C373.3470616 208.09579108 371.73709139 208.09436764 370.12712097 208.09336853 C365.89057853 208.08955118 361.6540704 208.07972755 357.4175415 208.06866455 C353.09412093 208.05843364 348.77069481 208.05386731 344.44726562 208.04882812 C335.96482801 208.03810459 327.48241827 208.02103753 319 208 C319.45908501 209.24633713 319.45908501 209.24633713 319.92744446 210.51785278 C321.09088741 213.67829092 322.25317531 216.8391493 323.41474915 220.00027466 C323.91237293 221.35383132 324.41042252 222.70723153 324.90895081 224.06045532 C329.78994914 237.31130097 334.44178595 250.63447616 339 264 C340.18964355 264.0093457 341.37928711 264.01869141 342.60498047 264.02832031 C347.05961221 264.06848442 351.51357236 264.13431426 355.96777344 264.20751953 C357.88793243 264.23557694 359.80820364 264.25686649 361.72851562 264.27099609 C375.62118097 264.37930689 386.43694961 264.72381707 397.01953125 274.70703125 C404.24899926 283.07724372 405.20202622 291.70429872 405.25 302.3125 C405.2809375 304.00536133 405.2809375 304.00536133 405.3125 305.73242188 C405.34492535 312.61875529 405.14879926 317.58641535 400.28125 322.86328125 C399.6934375 323.34152344 399.105625 323.81976563 398.5 324.3125 C397.9121875 324.80363281 397.324375 325.29476563 396.71875 325.80078125 C393.72248865 327.89135451 391.05531034 328.13320167 387.51611328 328.17700195 C386.61152374 328.18983719 385.7069342 328.20267242 384.77493286 328.21589661 C383.79990814 328.22328354 382.82488342 328.23067047 381.8203125 328.23828125 C380.81539764 328.246353 379.81048279 328.25442474 378.77511597 328.26274109 C376.64843467 328.27657241 374.52173126 328.28729882 372.39501953 328.29516602 C369.14442967 328.31239701 365.89485216 328.35629426 362.64453125 328.40039062 C360.57813248 328.4105162 358.51172506 328.41903273 356.4453125 328.42578125 C355.47433624 328.44328934 354.50335999 328.46079742 353.50296021 328.47883606 C349.13569303 328.46480947 346.68266864 328.41723996 342.88867188 326.09838867 C340.86303737 323.84782914 340.31672455 322.98370311 340.375 320 C340.35566406 319.01 340.35566406 319.01 340.3359375 318 C341.41131769 314.76120789 343.12302596 313.79676166 346 312 C349.22248406 311.39649525 352.40385109 311.39512724 355.67578125 311.390625 C356.6009404 311.37408875 357.52609955 311.35755249 358.47929382 311.34051514 C361.42376365 311.29207004 364.36771713 311.27067189 367.3125 311.25 C369.31317697 311.22183741 371.31382992 311.19190958 373.31445312 311.16015625 C378.20959291 311.0863119 383.10444663 311.03671586 388 311 C388.10876982 308.14479219 388.18766466 305.29379439 388.25 302.4375 C388.30027344 301.23770508 388.30027344 301.23770508 388.3515625 300.01367188 C388.44774077 294.1227531 387.6181645 290.7211211 384 286 C378.09338527 281.70048406 373.35916382 281.42816282 366.18286133 281.49206543 C365.10376149 281.48582547 364.02466166 281.4795855 362.91286182 281.47315645 C359.30236173 281.45722072 355.69253618 281.46983364 352.08203125 281.48242188 C349.49140021 281.47700105 346.90077226 281.46987862 344.31015015 281.46118164 C338.00741307 281.44341381 331.70486675 281.44722857 325.40212226 281.4588322 C320.27885866 281.46787313 315.15564844 281.46908769 310.03237915 281.46473694 C309.30265327 281.46412401 308.5729274 281.46351107 307.82108861 281.46287957 C306.33857145 281.46160064 304.85605431 281.46030379 303.37353718 281.4589892 C289.4784986 281.4475885 275.58356565 281.46068908 261.68854439 281.48219067 C249.77115118 281.50006122 237.85391383 281.49695696 225.93652344 281.47851562 C212.09053196 281.45709988 198.24463301 281.44868708 184.39862728 281.46096468 C182.92162515 281.46223885 181.44462301 281.46349633 179.96762085 281.46473694 C179.24094564 281.46535404 178.51427043 281.46597114 177.76557475 281.46660694 C172.64965293 281.47005774 167.53378991 281.46423735 162.4178772 281.45481873 C155.52970248 281.44241581 148.64182691 281.45127156 141.75368118 281.47439575 C139.22490554 281.47968715 136.69610513 281.47816178 134.16733932 281.46934509 C130.71693727 281.45842374 127.26748042 281.47211361 123.81713867 281.49206543 C122.81509305 281.48314254 121.81304743 281.47421966 120.78063679 281.46502638 C114.66136002 281.53371727 110.87862899 282.1818304 106 286 C101.82255137 291.45089668 101.46826993 295.71390351 101.75 302.4375 C101.76804687 303.26443359 101.78609375 304.09136719 101.8046875 304.94335938 C101.8513786 306.96274933 101.92310607 308.98153445 102 311 C103.67062642 311.00081715 103.67062642 311.00081715 105.37500286 311.00165081 C132.45701957 311.01603702 159.53887538 311.05901545 186.62079906 311.13209057 C199.71735184 311.1667649 212.8137991 311.19209931 225.91040039 311.19555664 C237.32348914 311.19859312 248.73639008 311.21904118 260.14940625 311.26052457 C266.19429202 311.28188475 272.23891058 311.29443956 278.28383446 311.28615379 C283.97121968 311.27863295 289.65806259 311.29435684 295.34534836 311.32806015 C297.43471872 311.3363171 299.52414277 311.33601566 301.61350822 311.32659721 C304.46317174 311.3150213 307.31104433 311.33402319 310.16056824 311.36076355 C310.99033981 311.35009029 311.82011138 311.33941703 312.67502755 311.32842034 C316.93216092 311.40312155 318.54047954 311.64126925 322.01340199 314.35245228 C324 317 324 317 324.625 320 C323.76519161 324.12708026 322.31653346 325.41809674 319 328 C316.01308931 328.71861634 313.10967557 328.66700208 310.04908752 328.62145996 C309.14658372 328.62784878 308.24407992 328.6342376 307.31422752 328.64082003 C304.28919376 328.65608405 301.26546674 328.63559906 298.24047852 328.61523438 C296.07215948 328.61873516 293.90384301 328.62439326 291.73553467 328.63204956 C285.84494974 328.64631396 279.9548307 328.6292189 274.06429029 328.60576439 C267.90247589 328.58567681 261.74068124 328.5915339 255.57884216 328.59387207 C245.22948512 328.59381847 234.88031048 328.57404651 224.53100586 328.54199219 C212.56411733 328.50510808 200.59746789 328.49631507 188.63052994 328.5032897 C177.12258522 328.50959441 165.61472253 328.49884032 154.10679436 328.47932434 C149.20780201 328.47114747 144.30885158 328.46844134 139.40985298 328.47001648 C133.64043896 328.47089524 127.87125225 328.45668116 122.10189819 328.43078995 C119.98391255 328.42362576 117.86590273 328.42154573 115.74790764 328.42490768 C112.85765692 328.42862043 109.96807029 328.41388164 107.07789612 328.39440918 C106.23888419 328.39973711 105.39987227 328.40506503 104.53543574 328.41055441 C98.78427095 328.34366513 94.50938284 327.31473469 90.13671875 323.28125 C89.65847656 322.6934375 89.18023437 322.105625 88.6875 321.5 C88.19636719 320.9121875 87.70523438 320.324375 87.19921875 319.71875 C83.81178318 314.86379348 84.73625289 308.59608552 84.6875 302.9375 C84.65849609 301.84244141 84.62949219 300.74738281 84.59960938 299.61914062 C84.51576905 288.79084052 87.24254182 280.89310764 94.70703125 272.98046875 C100.04496538 268.37002138 106.98958858 264.94791655 114.10424805 264.79467773 C114.92487228 264.77473251 115.74549652 264.75478729 116.59098816 264.73423767 C117.9129998 264.70916893 117.9129998 264.70916893 119.26171875 264.68359375 C120.16751175 264.66281265 121.07330475 264.64203156 122.00654602 264.62062073 C124.90012016 264.55523442 127.79378507 264.49629096 130.6875 264.4375 C132.64909793 264.3943044 134.61068668 264.35068977 136.57226562 264.30664062 C141.38141739 264.19956418 146.19066046 264.09826586 151 264 C151.19156677 263.44591461 151.38313354 262.89182922 151.58050537 262.32095337 C153.5895228 256.5116326 155.6019196 250.70349026 157.61621094 244.89599609 C158.36576212 242.73353125 159.11447464 240.5707755 159.86230469 238.40771484 C160.94241146 235.28404607 162.02561157 232.16146419 163.109375 229.0390625 C163.60337799 227.60719101 163.60337799 227.60719101 164.10736084 226.14639282 C164.5874057 224.7660939 164.5874057 224.7660939 165.07714844 223.35791016 C165.35250427 222.56293121 165.62786011 221.76795227 165.91156006 220.94888306 C167.51792438 216.59680046 169.26283458 212.30125212 171 208 C170.22346227 208.00368717 169.44692453 208.00737434 168.64685535 208.01117325 C149.707074 208.09970865 130.76733423 208.16579903 111.82738972 208.20724869 C102.66797237 208.22782887 93.5086936 208.25586203 84.34936523 208.30175781 C76.36130668 208.34176531 68.37334854 208.3674658 60.38519257 208.37635398 C56.15982415 208.3815453 51.93474286 208.3936507 47.70946693 208.42292023 C43.72281252 208.45030992 39.73656029 208.45839812 35.74982071 208.45243073 C34.29589455 208.45352054 32.84195327 208.46133322 31.38810921 208.4768219 C20.51697219 208.58684182 8.40493809 207.73889029 -0.44140625 200.61328125 C-7.60064163 193.20284463 -11.24094384 185.85449381 -11.26742554 175.50985718 C-11.27195665 174.77659702 -11.27648776 174.04333686 -11.28115618 173.2878567 C-11.29377045 170.84206744 -11.29218179 168.39650169 -11.29052734 165.95068359 C-11.29651421 164.19276138 -11.30332012 162.4348418 -11.31088257 160.67692566 C-11.32852753 155.91062136 -11.33323714 151.1443889 -11.33451414 146.3780551 C-11.33593644 143.40066628 -11.34020738 140.42329569 -11.34550858 137.44591141 C-11.36399946 127.06060883 -11.37217982 116.67535756 -11.37060547 106.29003906 C-11.3694023 96.60486583 -11.39054134 86.9199148 -11.4220928 77.23479784 C-11.44821766 68.91959819 -11.45897446 60.60447133 -11.45769465 52.28923094 C-11.45718417 47.32260736 -11.46291569 42.35618159 -11.48405075 37.38959885 C-11.50337093 32.72245069 -11.5036005 28.05569042 -11.48901749 23.38852882 C-11.48692096 21.67443719 -11.49168025 19.96032164 -11.5037384 18.24627113 C-11.51911764 15.90911251 -11.50993307 13.57330394 -11.49447632 11.23617554 C-11.49556585 9.92764807 -11.49665539 8.6191206 -11.49777794 7.27094078 C-11 4 -11 4 -9.18784523 1.57898903 C-5.99013975 -0.72882589 -3.84283892 -0.54897699 0 0 Z M188 208 C184.7 217.219375 181.4 226.43875 178 235.9375 C176.95585937 238.85198975 175.91171875 241.76647949 174.8359375 244.76928711 C174.01549956 247.06359447 173.19517888 249.35794377 172.375 251.65234375 C171.94316406 252.85636841 171.51132813 254.06039307 171.06640625 255.30090332 C170.45732422 257.00615173 170.45732422 257.00615173 169.8359375 258.74584961 C169.48063965 259.73846298 169.1253418 260.73107635 168.75927734 261.75376892 C167.94662946 263.76270909 167.94662946 263.76270909 168 265 C218.82 265 269.64 265 322 265 C315.63254804 245.89764412 308.83896241 226.93866515 302 208 C264.38 208 226.76 208 188 208 Z " fill="#E01A28" transform="translate(11,156)"/>
<path d="M0 0 C0.77574881 -0.00235223 1.55149762 -0.00470446 2.35075396 -0.00712797 C4.95966166 -0.01380424 7.5685194 -0.01336016 10.17743492 -0.01294994 C12.06306992 -0.01624941 13.9487042 -0.01997516 15.83433759 -0.02409142 C21.02372596 -0.03410992 26.21310277 -0.03782797 31.40249944 -0.04048073 C36.9964079 -0.04438418 42.59030721 -0.05396243 48.18420982 -0.0626936 C61.69656957 -0.08245593 75.20893007 -0.09252352 88.72130066 -0.10142139 C95.08358532 -0.1058043 101.44586915 -0.11117107 107.80815315 -0.11641026 C128.95570335 -0.13342162 150.10325291 -0.14794117 171.25080872 -0.155159 C172.61820585 -0.15563375 173.98560299 -0.15610964 175.35300013 -0.15658666 C176.03109835 -0.15682303 176.70919657 -0.15705941 177.40784323 -0.15730295 C180.84335939 -0.15850413 184.27887555 -0.15971959 187.71439171 -0.16094494 C188.39617688 -0.16118509 189.07796205 -0.16142524 189.78040738 -0.16167267 C211.88395898 -0.16956505 233.98745691 -0.19299626 256.09098508 -0.22550088 C279.46533252 -0.25981151 302.83963946 -0.27951012 326.21401632 -0.28280324 C338.95364319 -0.28496909 351.69319116 -0.2937289 364.43279457 -0.31926441 C375.28107158 -0.34095866 386.12925053 -0.34902803 396.97754677 -0.33929763 C402.51204917 -0.3347494 408.04634918 -0.33666982 413.5808239 -0.35605907 C418.65024077 -0.37366564 423.71930722 -0.37271318 428.78872769 -0.35716178 C430.61985626 -0.35478194 432.45100893 -0.35912876 434.28210063 -0.37099043 C446.62681421 -0.44598696 457.45526743 0.23571321 467.4775753 8.36468983 C474.75295805 15.57639308 477.47471337 23.27288659 477.53954256 33.35226089 C477.53644535 34.44145597 477.53334815 35.53065106 477.53015709 36.65285206 C477.5346882 37.81952449 477.53921932 38.98619692 477.54388773 40.18822306 C477.55434601 43.41818444 477.55585962 46.64800554 477.55349898 49.87797844 C477.55309032 53.36480144 477.5641347 56.85159139 477.57361412 60.33839893 C477.59021424 67.16660575 477.59572322 73.99477802 477.59683888 80.82300333 C477.59778981 86.37437114 477.60190237 91.92572758 477.60824013 97.47709179 C477.62584977 113.22259083 477.63507942 128.96806263 477.63357918 144.71357159 C477.63345931 145.98635729 477.63345931 145.98635729 477.63333702 147.28485584 C477.63325526 148.13441786 477.6331735 148.98397989 477.63308926 149.85928621 C477.63227642 163.62657305 477.65141438 177.39375046 477.67961375 191.16100565 C477.70835244 205.30335206 477.72215351 219.44564511 477.7204262 233.58802146 C477.71976264 241.52539739 477.72523989 249.4626586 477.7467823 257.4000082 C477.76500706 264.15817244 477.76933086 270.91616996 477.75576346 277.67434815 C477.74924028 281.12060003 477.74909257 284.56653217 477.76646996 288.01275349 C477.78189707 291.75366753 477.77262949 295.49374327 477.75720787 299.23463917 C477.767495 300.31714209 477.77778212 301.39964501 477.78838098 302.51495105 C477.70320342 311.87277065 474.74831922 320.21736672 468.26273155 327.13422108 C458.82848254 335.23433386 448.00223038 336.60138625 435.9541378 336.49750233 C434.26042297 336.49825008 434.26042297 336.49825008 432.53249168 336.49901295 C430.16691879 336.49668889 427.80134264 336.48706014 425.43582726 336.47040272 C421.81084837 336.44662674 418.18659773 336.44987748 414.56155968 336.4564867 C412.25491466 336.45091497 409.94827274 336.44380829 407.6416378 336.43500233 C406.55935402 336.43591373 405.47707024 336.43682514 404.36198997 336.43776417 C403.35671761 336.42823215 402.35144524 336.41870014 401.31571007 336.40887928 C400.43399635 336.40427189 399.55228264 336.3996645 398.64385033 336.39491749 C396.0689571 336.11300571 394.45828009 335.48706562 392.26273155 334.13422108 C390.16593753 331.43834304 390.26762334 330.04127708 390.45023155 326.57172108 C391.27225568 323.09392671 391.50220741 322.17880665 394.26273155 320.13422108 C396.58847618 319.75568104 396.58847618 319.75568104 399.35745811 319.74945545 C400.39573753 319.73934437 401.43401695 319.72923328 402.50375938 319.7188158 C404.18655998 319.72334766 404.18655998 319.72334766 405.90335655 319.72797108 C407.63667229 319.7117168 407.63667229 319.7117168 409.4050045 319.69513416 C413.10763677 319.6607933 416.80996081 319.64526839 420.51273155 319.63422108 C425.37240266 319.61963889 430.23138666 319.58589063 435.09085655 319.54047108 C436.20462669 319.54349232 437.31839684 319.54651356 438.46591759 319.54962635 C446.11092578 319.47607016 451.3514641 318.91609886 457.07523155 313.44672108 C461.67911384 306.4751279 461.55348044 299.1092367 461.52342796 291.0204668 C461.52725351 289.92150591 461.53107906 288.82254502 461.53502053 287.69028229 C461.54531516 284.01863274 461.54136506 280.3471406 461.53738976 276.67548084 C461.54173816 274.03868564 461.54685749 271.40190186 461.55287743 268.76511097 C461.56560492 262.35293643 461.56742059 255.94080381 461.56507716 249.52861876 C461.5632918 244.31530444 461.56504831 239.1020028 461.56930161 233.88868999 C461.57019439 232.77435537 461.57019439 232.77435537 461.57110521 231.63750894 C461.572317 230.12817979 461.57353113 228.61885065 461.57474758 227.1095215 C461.58561543 212.96599012 461.5834641 198.8224826 461.57736274 184.67894989 C461.57219322 171.74922232 461.58345128 158.81957008 461.60246096 145.88985742 C461.62184729 132.60173774 461.63009403 119.31365369 461.62633771 106.02551979 C461.624427 98.56997888 461.62690057 91.11450209 461.64105225 83.65897274 C461.65297709 77.31259913 461.65435854 70.96632912 461.64226208 64.61995406 C461.63638131 61.38435484 461.63688528 58.14898372 461.64726448 54.91339016 C461.6577202 51.40040457 461.64964004 47.8879264 461.63695335 44.37495899 C461.64432764 43.35996643 461.65170192 42.34497387 461.65929967 41.29922396 C461.60233607 33.78986545 460.71058792 27.1618329 455.88773155 21.19672108 C450.99177231 17.34989596 446.66780639 16.84184933 440.57955265 16.87695217 C439.80965855 16.8734461 439.03976445 16.86994002 438.24654022 16.8663277 C435.65752068 16.85699741 433.06872527 16.86194121 430.47969627 16.86679554 C428.6084213 16.8630601 426.7371479 16.85845901 424.86587697 16.85306489 C419.71628629 16.84080634 414.56676044 16.84109872 409.41715848 16.84345365 C403.86624735 16.84386109 398.3153572 16.83282959 392.7644558 16.82333851 C381.88643414 16.80671196 371.00843416 16.80122822 360.13040086 16.80011375 C351.2900049 16.79916408 342.44961611 16.79505781 333.60922241 16.7887125 C312.63409007 16.77396328 291.65896161 16.76166325 270.68382359 16.76270962 C270.01293686 16.76274078 269.34205012 16.76277193 268.65083349 16.76280403 C265.25045795 16.76297025 261.85008241 16.76316833 258.44970687 16.76337345 C257.43670688 16.76343329 257.43670688 16.76343329 256.40324224 16.76349433 C255.03755341 16.7635752 253.67186459 16.7636588 252.30617576 16.76374511 C231.05786166 16.76497065 209.80961138 16.74995747 188.56131554 16.72259998 C164.69188804 16.69188046 140.82250215 16.67469275 116.95304948 16.67652643 C104.31356839 16.67719098 91.67415929 16.67167006 79.03469467 16.65017033 C68.27379493 16.63198363 57.5129998 16.62759055 46.75209137 16.64118917 C41.2604947 16.64773145 35.76909886 16.64779053 30.27752113 16.63048267 C25.25081326 16.61480272 20.22446633 16.61756364 15.19776753 16.63505094 C13.37880798 16.63813203 11.55982182 16.63444687 9.74089362 16.62333079 C7.26797021 16.60921826 4.79631434 16.61978839 2.32343388 16.63644314 C1.61750639 16.62650678 0.91157891 16.61657042 0.18425968 16.60633296 C-5.11937051 16.68183178 -9.41892404 18.11154155 -13.73726845 21.13422108 C-18.51568076 26.91656757 -18.85969318 33.22306956 -18.87911415 40.43134022 C-18.88258858 41.1474094 -18.886063 41.86347858 -18.88964272 42.60124683 C-18.89696908 44.14919294 -18.902331 45.69714935 -18.90593338 47.2451086 C-18.91312683 49.69565355 -18.9288123 52.14600151 -18.94727516 54.59648609 C-18.99962722 61.56126778 -19.04775813 68.52593601 -19.06319618 75.49091053 C-19.07327002 79.75682038 -19.10256991 84.02222563 -19.14451599 88.28793621 C-19.15683058 89.91179498 -19.1619464 91.53572494 -19.15971756 93.15962887 C-19.15736775 95.42913484 -19.17950046 97.6971869 -19.20723915 99.96649647 C-19.21310539 101.25713505 -19.21897163 102.54777363 -19.22501564 103.87752247 C-19.73726845 107.13422108 -19.73726845 107.13422108 -21.55164528 109.55095387 C-24.74684755 111.865561 -26.89307507 111.68339156 -30.73726845 111.13422108 C-32.92366982 109.5918932 -32.92366982 109.5918932 -34.73726845 107.13422108 C-35.13216018 104.39235234 -35.28496406 102.05159641 -35.25484657 99.31146717 C-35.26185585 98.52715321 -35.26886513 97.74283924 -35.27608681 96.93475819 C-35.29368801 94.34203106 -35.28203025 91.75039686 -35.26851845 89.15765858 C-35.27121439 87.34886943 -35.27509766 85.54008169 -35.28011513 83.73129749 C-35.2860144 79.93659157 -35.27743956 76.14226213 -35.25875282 72.34759998 C-35.23606066 67.50565943 -35.24902137 62.66461056 -35.27304268 57.82270336 C-35.28757288 54.08378998 -35.28286009 50.34508398 -35.27253151 46.60616398 C-35.26987902 44.82255032 -35.27308148 43.0389173 -35.28244972 41.25532627 C-35.33333575 28.83454111 -34.82208716 18.49464899 -25.8661747 8.95843983 C-17.98600391 2.2060733 -10.15475051 -0.02096813 0 0 Z " fill="#E01A28" transform="translate(34.73726844787598,27.865778923034668)"/>
</svg>
