<?xml version="1.0" encoding="UTF-8"?>
<svg version="1.1" xmlns="http://www.w3.org/2000/svg" width="512" height="512">
<path d="M0 0 C1.2345879 -0.00657338 1.2345879 -0.00657338 2.49411696 -0.01327956 C5.26778331 -0.02669497 8.04141787 -0.03285253 10.81510925 -0.03897095 C12.79741562 -0.04686968 14.77972054 -0.05513849 16.76202393 -0.06375122 C23.28515749 -0.08999532 29.80829756 -0.10528013 36.33146667 -0.11953735 C38.57439872 -0.12489584 40.81733072 -0.13027334 43.06026268 -0.13566971 C52.38757807 -0.15730094 61.7148917 -0.17603914 71.04222584 -0.1872921 C84.42386134 -0.2035409 97.80520689 -0.23673866 111.18673307 -0.29369295 C120.5880477 -0.33234715 129.98928464 -0.35191937 139.39067668 -0.35721266 C145.00969582 -0.360872 150.6284059 -0.37295528 156.24733925 -0.4053154 C161.53250038 -0.43531677 166.81716416 -0.44173616 172.1023922 -0.42993164 C174.04344407 -0.42971025 175.98451849 -0.43806934 177.92549133 -0.45558548 C180.57357083 -0.47818432 183.21983262 -0.4700261 185.86791992 -0.45410156 C187.02298459 -0.47492469 187.02298459 -0.47492469 188.20138389 -0.49616849 C192.09492385 -0.43838615 193.95821297 0.02894331 197.10303879 2.39304924 C199.22377261 5.28957622 199.7451738 6.42200269 199.72329712 9.93551636 C199.72991364 10.86913498 199.73653015 11.8027536 199.74334717 12.7646637 C199.72529526 13.77676407 199.70724335 14.78886444 199.68864441 15.83163452 C199.68949036 16.90697952 199.6903363 17.98232452 199.69120789 19.09025574 C199.69003404 21.4223588 199.67748326 23.75447764 199.65489006 26.08647156 C199.62025615 29.77674089 199.61743534 33.46580622 199.62322998 37.15621948 C199.63153885 46.3198722 199.5899167 55.48313454 199.54032898 64.64663696 C199.49923594 72.39196172 199.48158435 80.13657836 199.49768257 87.88200378 C199.49555315 91.51919646 199.45837742 95.15499219 199.42044067 98.79196167 C199.42207824 101.02003179 199.42544842 103.24810155 199.43083191 105.47616577 C199.41075577 106.48826614 199.39067963 107.50036652 199.36999512 108.5431366 C199.33014982 113.54690395 199.33014982 113.54690395 201.43156624 117.9216156 C203.61845816 119.83079932 205.29133625 121.15085408 208.26115417 121.16171265 C210.43171473 119.98769876 212.10819547 118.69003664 213.93693542 117.02890015 C214.63431824 116.39983765 215.33170105 115.77077515 216.05021667 115.12265015 C217.96531022 113.30493424 219.79790647 111.4348434 221.62443542 109.52890015 C229.6119968 101.46905315 239.00229549 97.85439071 250.27093506 97.73620605 C251.77671364 97.74295853 251.77671364 97.74295853 253.31291199 97.74984741 C254.39549789 97.74298416 255.4780838 97.73612091 256.59347534 97.72904968 C260.15080613 97.71083968 263.70769329 97.71461204 267.26506042 97.7203064 C269.75454348 97.71574095 272.24402527 97.7104343 274.73350525 97.704422 C279.94508491 97.69550155 285.15651125 97.69790098 290.36808777 97.70785522 C297.01989574 97.71932718 303.67115776 97.69915446 310.32292557 97.66993809 C315.4636212 97.65151618 320.6041908 97.65188079 325.74491119 97.65757561 C328.19591263 97.65772817 330.64692296 97.65173773 333.09789276 97.63928413 C352.42095523 97.55494663 367.8888848 98.68789846 382.87443542 112.34140015 C393.84129273 124.12549922 396.59066727 137.64054926 396.59318542 153.2203064 C396.60079895 154.53498398 396.60841248 155.84966156 396.61625671 157.20417786 C396.62959964 159.96834916 396.63131542 162.73223525 396.62541199 165.49642944 C396.61950542 169.0122613 396.65019186 172.52671723 396.69052887 176.04228306 C396.72280016 179.43499788 396.71828946 182.82743912 396.71818542 186.2203064 C396.73458069 187.46848648 396.75097595 188.71666656 396.76786804 190.00267029 C396.69519112 199.25777011 394.62033544 205.65917156 388.93693542 212.96640015 C381.00647892 219.13453298 374.16884395 221.18485117 364.12443542 220.15390015 C362.78761593 219.83483505 361.45347886 219.50394647 360.12443542 219.15390015 C360.13331787 220.25700027 360.14220032 221.3601004 360.15135193 222.49662781 C360.2326784 232.9268898 360.29251597 243.35708688 360.33168411 253.7875948 C360.3524983 259.14917092 360.38070271 264.51048968 360.42619324 269.87191772 C360.46987164 275.05259393 360.49361886 280.23302363 360.5039444 285.41386986 C360.51129644 287.38369816 360.52565267 289.35351401 360.54735565 291.32323647 C360.68927119 304.74531803 360.70788151 316.282783 350.83537292 326.5093689 C350.27076355 327.05206421 349.70615417 327.59475952 349.12443542 328.15390015 C348.36131042 328.89640015 347.59818542 329.63890015 346.81193542 330.40390015 C338.31117857 335.9392767 330.20139249 337.29031188 320.12443542 336.15390015 C312.95490111 334.37401576 307.0489227 330.44700687 301.12443542 326.15390015 C300.19631042 327.06140015 299.26818542 327.96890015 298.31193542 328.90390015 C291.03096308 335.06135572 282.72043043 336.88502792 273.32756042 336.52890015 C263.81476628 335.41520717 256.27724291 331.54921632 250.12443542 324.15390015 C245.57071025 316.76248517 242.99596866 310.20020006 243.00418091 301.50343323 C243.00211891 299.81449951 243.00211891 299.81449951 243.00001526 298.09144592 C243.00361053 296.86577408 243.00720581 295.64010223 243.01091003 294.37728882 C243.01076401 293.0793338 243.01061798 291.78137878 243.01046753 290.4440918 C243.01018101 286.89283434 243.01605427 283.34161076 243.02304149 279.79036117 C243.0292992 276.07611879 243.02988074 272.36187562 243.03106689 268.64762878 C243.03417308 261.61771831 243.04237687 254.58782342 243.05241638 247.5579198 C243.06359964 239.55312155 243.06909355 231.54832255 243.07411182 223.54351842 C243.08456007 207.08030322 243.10214572 190.61710367 243.12443542 174.15390015 C242.19377258 174.60043945 242.19377258 174.60043945 241.24430847 175.05599976 C238.43438968 176.40296167 235.62318123 177.74721021 232.81193542 179.09140015 C231.83547058 179.55997437 230.85900574 180.02854858 229.85295105 180.51132202 C228.91515808 180.95927124 227.97736511 181.40722046 227.01115417 181.8687439 C226.14707947 182.28245239 225.28300476 182.69616089 224.39274597 183.12240601 C216.93373062 186.5143272 206.71453963 186.51264879 198.99943542 183.71640015 C185.80934404 177.45487226 174.24290142 167.00957133 162.7540741 158.16098022 C161.88629333 157.4986438 161.01851257 156.83630737 160.12443542 156.15390015 C159.64114021 155.66432485 159.157845 155.17474955 158.65990448 154.67033863 C152.19516615 148.72048729 144.96373624 149.33610689 136.69987488 149.44442749 C135.14031997 149.44280392 133.58076591 149.4384846 132.02122498 149.4316864 C128.67562531 149.4226962 125.3307918 149.43232805 121.98526955 149.45658493 C116.69451235 149.4945318 111.40434218 149.48880694 106.11349487 149.47705078 C95.84225424 149.46023234 85.57136993 149.48827529 75.30018616 149.52046967 C62.21537137 149.55899625 49.13061387 149.57507466 36.04575509 149.55526507 C30.78665685 149.54873427 25.52814746 149.56302125 20.26913989 149.59371543 C16.99987133 149.60907076 13.73075055 149.60813835 10.4614563 149.60297203 C8.94611188 149.6040336 7.4307542 149.61198543 5.91548729 149.62734795 C3.84590398 149.64744134 1.77775185 149.64294582 -0.29187012 149.63250732 C-1.44939128 149.63661306 -2.60691244 149.6407188 -3.79951 149.64494896 C-7.53796022 149.04815801 -9.1903707 147.76927206 -11.87556458 145.15390015 C-13.1755912 142.5538469 -13.00735888 140.65872915 -13.01600647 137.74598694 C-13.02171661 136.5977243 -13.02742676 135.44946167 -13.03330994 134.2664032 C-13.0344278 133.0003978 -13.03554565 131.7343924 -13.03669739 130.43002319 C-13.04132489 129.08810286 -13.04634946 127.74618384 -13.05174255 126.40426636 C-13.06487603 122.75333957 -13.07131348 119.10243117 -13.07575321 115.45148444 C-13.07868272 113.17095488 -13.08278732 110.89043036 -13.08725739 108.60990334 C-13.10093549 101.47598153 -13.11060032 94.34207123 -13.11445928 87.20813721 C-13.11893943 78.97077118 -13.13648391 70.73357113 -13.16545987 62.49625558 C-13.18707382 56.13100586 -13.19716342 49.76580284 -13.19850039 43.40051681 C-13.19954874 39.59803346 -13.20546243 35.79570608 -13.22332001 31.99326134 C-13.2397956 28.41537445 -13.24195885 24.83776084 -13.233181 21.25984955 C-13.23204312 19.32254044 -13.24576493 17.38524042 -13.25993347 15.44798279 C-13.25436432 14.29126068 -13.24879517 13.13453857 -13.24305725 11.94276428 C-13.24452381 10.93968577 -13.24599037 9.93660727 -13.24750137 8.90313244 C-12.80967874 5.66689413 -11.78717532 3.77986197 -9.87556458 1.15390015 C-6.7525544 -0.40760494 -3.4288318 0.00219731 0 0 Z M4.12443542 17.15390015 C4.12443542 55.10390015 4.12443542 93.05390015 4.12443542 132.15390015 C48.67443542 132.15390015 93.22443542 132.15390015 139.12443542 132.15390015 C139.45443542 127.53390015 139.78443542 122.91390015 140.12443542 118.15390015 C143.37861628 109.73131441 147.46223808 104.03799625 155.81193542 100.27890015 C165.07326079 97.26941724 172.98154699 99.41103362 182.12443542 102.15390015 C182.12443542 74.10390015 182.12443542 46.05390015 182.12443542 17.15390015 C123.38443542 17.15390015 64.64443542 17.15390015 4.12443542 17.15390015 Z M158.12443542 118.15390015 C156.10971946 121.1759741 155.78724509 122.07116713 155.68693542 125.52890015 C155.64697449 126.27913452 155.60701355 127.0293689 155.56584167 127.80233765 C156.99373617 133.81347393 164.53136962 137.96219755 169.24943542 141.59140015 C170.02770691 142.1932312 170.80597839 142.79506226 171.60783386 143.41513062 C190.69193861 160.42281199 190.69193861 160.42281199 213.51164246 168.51083374 C218.62939535 167.81169762 223.01445703 165.30467452 227.56193542 162.96640015 C228.53453308 162.48364624 229.50713074 162.00089233 230.50920105 161.50350952 C234.33808649 159.59801877 238.15068349 157.66618753 241.93571472 155.67489624 C242.81525818 155.21808472 243.69480164 154.76127319 244.60099792 154.2906189 C245.76816345 153.67319824 245.76816345 153.67319824 246.95890808 153.04330444 C250.32208561 151.66201293 252.73194687 152.04614878 256.12443542 153.15390015 C257.79260349 154.34130573 257.79260349 154.34130573 259.12443542 156.15390015 C259.49802303 158.84330273 259.49802303 158.84330273 259.49624634 162.15541077 C259.50300385 163.41009659 259.50976135 164.66478241 259.51672363 165.95748901 C259.5091699 167.35067883 259.50136416 168.7438673 259.49333191 170.13705444 C259.49579953 171.60233339 259.49963755 173.06761057 259.50474548 174.53288269 C259.51309106 177.69063372 259.51226937 180.84820446 259.50456047 184.00595665 C259.49298472 189.00301336 259.50513524 193.99983788 259.5211792 198.99687195 C259.55739121 211.41294953 259.56360702 223.82902213 259.56108093 236.24514771 C259.55936838 245.88626588 259.56654057 255.52719463 259.6010595 265.16825992 C259.61782643 270.1312392 259.61608146 275.09375625 259.60023677 280.05673349 C259.59442306 283.15247516 259.60521048 286.24799969 259.6204834 289.34370232 C259.62419722 290.77390694 259.62113752 292.20414858 259.61061287 293.63431931 C259.55103312 302.31249879 259.57891006 309.48183982 265.94865417 316.02890015 C270.9989409 319.07812987 275.24489183 320.29596976 281.12443542 319.15390015 C285.95815659 317.36504271 289.27420502 314.42924575 292.12443542 310.15390015 C293.30489664 306.61251651 293.26129609 303.41650817 293.25041199 299.73251343 C293.25228012 298.97932831 293.25414825 298.22614319 293.256073 297.45013428 C293.26007546 295.81484443 293.26215169 294.179549 293.2625351 292.5442543 C293.26595175 289.0671074 293.28731425 285.59014731 293.30776596 282.11306572 C293.34578761 275.63918454 293.37704912 269.1655034 293.37492371 262.6914978 C293.37413677 258.18793321 293.39749076 253.68505319 293.43680573 249.18166733 C293.44726926 247.46652173 293.44878712 245.75129716 293.44115448 244.03613663 C293.43153343 241.63469598 293.45270947 239.23532929 293.48088074 236.83407593 C293.47068405 236.12740784 293.46048737 235.42073975 293.44998169 234.69265747 C293.53018012 230.87551549 294.06884826 229.22549683 296.43809509 226.17388916 C299.12443542 224.15390015 299.12443542 224.15390015 302.74943542 224.15390015 C307.2894759 225.49909732 307.2894759 225.49909732 309.12443542 228.15390015 C309.41333816 230.69327303 309.52109224 232.98872309 309.49333191 235.52767944 C309.49898163 236.65022881 309.49898163 236.65022881 309.50474548 237.79545593 C309.51118141 239.42090795 309.51084465 241.04639759 309.50456047 242.6718502 C309.49545356 245.24952163 309.50567102 247.82646499 309.5211792 250.40409851 C309.56127801 257.73271522 309.56248854 265.06127599 309.56022644 272.38998413 C309.56017517 276.8739888 309.57943146 281.35760356 309.60956001 285.84150124 C309.6203432 288.37197655 309.60827668 290.90169362 309.59573364 293.43214417 C309.57337728 305.75978703 309.57337728 305.75978703 315.94865417 316.02890015 C320.9989409 319.07812987 325.24489183 320.29596976 331.12443542 319.15390015 C335.95815659 317.36504271 339.27420502 314.42924575 342.12443542 310.15390015 C343.20780152 306.90380187 343.24913769 304.55199486 343.24900818 301.13220215 C343.2515712 299.87318085 343.25413422 298.61415955 343.2567749 297.31698608 C343.25470495 295.91903679 343.2525822 294.52108757 343.25041199 293.12313843 C343.25180674 291.65299424 343.25370605 290.18285046 343.256073 288.71270752 C343.26057072 285.54518435 343.2624261 282.37767414 343.2625351 279.21014786 C343.26367492 274.20136477 343.27650914 269.19265547 343.292099 264.18389893 C343.29467185 263.33875138 343.29724471 262.49360384 343.29989552 261.62284577 C343.30516208 259.89460367 343.31044756 258.16636163 343.31575155 256.43811965 C343.35087174 244.77647381 343.37741193 233.11491967 343.37492371 221.45321655 C343.37333569 213.58779196 343.38935637 205.72261884 343.42563033 197.85727489 C343.44410054 193.6948017 343.45342414 189.53274845 343.44115448 185.37024307 C343.42972486 181.45480295 343.44140378 177.54011495 343.47078896 173.62477493 C343.47743387 172.18848531 343.47555513 170.75212694 343.46449089 169.31586456 C343.45063101 167.35379249 343.47045304 165.39156893 343.4919281 163.42956543 C343.49339466 162.33191927 343.49486122 161.23427311 343.49637222 160.10336494 C344.33788524 156.15151261 345.98446461 154.616968 349.12443542 152.15390015 C352.64649402 152.15390015 354.98678328 152.2659198 357.81132507 154.47058105 C360.15626026 157.47663013 359.54380378 161.35734949 359.53068542 165.02108765 C359.54152161 165.89282623 359.55235779 166.76456482 359.56352234 167.66271973 C359.5978215 170.45152183 359.61338137 173.23991475 359.62443542 176.02890015 C359.63901465 179.69335582 359.67273734 183.3568992 359.71818542 187.02108765 C359.71516418 187.86082123 359.71214294 188.70055481 359.70903015 189.56573486 C359.76881059 194.24105313 360.06692542 197.37512676 363.12443542 201.15390015 C366.86182102 203.64549054 368.69775125 203.61183299 373.12443542 203.15390015 C375.87772564 201.3582761 377.65071003 200.10135093 379.12443542 197.15390015 C379.24044917 195.43085557 379.29403335 193.70344303 379.31730652 191.97665405 C379.33336945 190.89437531 379.34943237 189.81209656 379.36598206 188.69702148 C379.41057275 183.71016053 379.45155717 178.72343396 379.47453308 173.73641968 C379.49102256 171.11588619 379.51821841 168.49539636 379.55656433 165.87509155 C379.61172987 162.08497919 379.63327583 158.29592416 379.64787292 154.50546265 C379.68187698 152.77037949 379.68187698 152.77037949 379.71656799 151.00024414 C379.69001585 140.62361152 376.97742858 132.06812721 370.12443542 124.15390015 C368.08386477 122.43041463 368.08386477 122.43041463 365.87443542 121.02890015 C365.16802917 120.55194702 364.46162292 120.0749939 363.73381042 119.58358765 C356.4892921 115.61428569 350.56960775 114.71201186 342.42912292 114.74984741 C341.38741943 114.74298416 340.34571594 114.73612091 339.27244568 114.72904968 C335.84796813 114.71083069 332.42395078 114.7146119 328.99943542 114.7203064 C326.60864616 114.7157427 324.2178582 114.71043656 321.82707214 114.704422 C316.82392537 114.69550082 311.82093831 114.69790335 306.8177948 114.70785522 C300.41543653 114.71935123 294.01362929 114.699118 287.61134338 114.66993809 C282.67672746 114.65156939 277.74224347 114.65186981 272.80760193 114.65757561 C270.44736457 114.6577287 268.08711819 114.65169465 265.72691345 114.63928413 C262.42417558 114.62436162 259.12245457 114.63506107 255.81974792 114.65219116 C254.85119873 114.64252319 253.88264954 114.63285522 252.88475037 114.62289429 C243.35753416 114.72606054 237.37935661 118.33441654 230.68693542 124.84140015 C230.13199402 125.36524292 229.57705261 125.88908569 229.0052948 126.42880249 C224.92324295 130.30439218 220.97486242 134.30559324 217.12443542 138.41171265 C213.98977414 141.1422965 211.5117484 142.14024165 207.34709167 142.1812439 C202.6295252 140.67734089 199.35988055 137.82623557 195.56193542 134.71640015 C193.96446393 133.44142904 192.36680627 132.16669116 190.76896667 130.8921814 C189.98473328 130.26005737 189.20049988 129.62793335 188.39250183 128.97665405 C185.20606721 126.41584449 181.98429811 123.90307183 178.74943542 121.40390015 C177.75170105 120.6253064 176.75396667 119.84671265 175.72599792 119.04452515 C169.63991698 114.62160747 164.54403361 113.33920151 158.12443542 118.15390015 Z " fill="#E01A28" transform="translate(79.87556457519531,67.84609985351563)"/>
<path d="M0 0 C10.20210135 7.79189618 18.62296628 17.59982505 20.625 30.6875 C21.97237728 46.39959871 19.43021407 58.42097747 10.625 71.6875 C11.30304688 71.89503906 11.98109375 72.10257812 12.6796875 72.31640625 C23.64945105 75.94767147 31.5050148 81.61069768 38.625 90.6875 C39.25664062 89.97464844 39.88828125 89.26179688 40.5390625 88.52734375 C47.57219933 80.99763098 54.18445365 76.81247758 63.625 72.6875 C64.96307027 72.03039256 66.29891178 71.36846422 67.625 70.6875 C67.23828125 70.16542969 66.8515625 69.64335937 66.453125 69.10546875 C58.49796245 57.8619098 54.87731561 45.36626447 57.12109375 31.65625 C60.17657362 18.26047384 66.34607156 7.71957259 77.8125 -0.125 C89.82116889 -7.21803245 102.54790253 -9.18396096 116.1796875 -6.65234375 C128.68515586 -3.25379882 138.93122303 4.60780083 145.875 15.5 C152.40512918 27.19835976 153.49300103 40.11531392 150.93359375 53.23046875 C148.85418413 59.95592328 145.50504524 65.84156517 141.625 71.6875 C142.30304688 71.89503906 142.98109375 72.10257812 143.6796875 72.31640625 C158.61481447 77.26030562 168.37109155 86.44579913 175.3984375 100.40234375 C179.0617846 110.21404729 178.96717205 120.06141138 178.94067383 130.40258789 C178.93748577 133.011645 178.96113653 135.61959579 178.98632812 138.22851562 C178.98859896 139.89843608 178.98930562 141.56835956 178.98828125 143.23828125 C178.997491 144.01230789 179.00670074 144.78633453 179.01618958 145.58381653 C178.97735629 150.12335564 178.45984523 153.08811477 175.625 156.6875 C173.25790331 157.87104834 171.83264141 157.81695024 169.19179821 157.82451439 C168.2538662 157.82958893 167.31593418 157.83466347 166.34957999 157.83989179 C164.79343677 157.84063843 164.79343677 157.84063843 163.20585632 157.84140015 C162.10919972 157.8457824 161.01254311 157.85016465 159.88265449 157.8546797 C156.18307983 157.86810647 152.48352901 157.87425523 148.78393555 157.88037109 C146.14153867 157.88826891 143.4991449 157.89653227 140.85675049 157.90515137 C132.90941002 157.92968617 124.96206326 157.94430353 117.01469657 157.95721143 C114.77084983 157.9609224 112.52700371 157.9648957 110.28315759 157.9689641 C96.35546595 157.99419821 82.42777335 158.01625589 68.5000639 158.02869225 C65.27323592 158.03162204 62.04640798 158.03458369 58.81958008 158.03759766 C57.61653085 158.03871673 57.61653085 158.03871673 56.3891776 158.03985842 C43.39166428 158.05251677 30.39428762 158.08574569 17.39683821 158.12739949 C4.05921345 158.16979389 -9.27834129 158.19338433 -22.61603326 158.19861281 C-30.10737444 158.20202964 -37.59850203 158.21381662 -45.08977699 158.24671555 C-51.46864938 158.274683 -57.8472644 158.28573006 -64.22619335 158.27452008 C-67.48166596 158.26932484 -70.73648499 158.27498784 -73.99190331 158.29698563 C-77.52002551 158.31953331 -81.04677817 158.31144772 -84.5749054 158.29550171 C-85.60564204 158.3093838 -86.63637869 158.32326588 -87.69834977 158.33756864 C-92.45554569 158.28439125 -94.6406863 158.25098021 -98.51074409 155.28126717 C-100.37744545 152.68409761 -101.00177598 151.60157467 -101.00610352 148.47070312 C-101.02490318 147.27290222 -101.02490318 147.27290222 -101.04408264 146.05090332 C-101.03082443 145.19879272 -101.01756622 144.34668213 -101.00390625 143.46875 C-101.00631821 142.57442261 -101.00873016 141.68009521 -101.01121521 140.75866699 C-101.01023717 138.86575898 -100.99685375 136.97282222 -100.97192383 135.08007812 C-100.93793717 132.22423447 -100.95118602 129.37154595 -100.97070312 126.515625 C-100.95976525 111.57913782 -99.25747885 99.54647462 -89.375 87.6875 C-88.80136719 86.97851562 -88.22773437 86.26953125 -87.63671875 85.5390625 C-81.96012219 79.19391603 -75.00676366 76.16502778 -67.375 72.6875 C-66.0382348 72.02774169 -64.7030323 71.36466499 -63.375 70.6875 C-63.76171875 70.16542969 -64.1484375 69.64335937 -64.546875 69.10546875 C-72.50203755 57.8619098 -76.12268439 45.36626447 -73.87890625 31.65625 C-70.82342638 18.26047384 -64.65392844 7.71957259 -53.1875 -0.125 C-36.69488107 -9.86651942 -16.25697485 -10.87062776 0 0 Z M-51.91015625 22.63671875 C-56.26439044 29.09824995 -58.05001125 35.85736954 -57.375 43.6875 C-55.43161244 53.63307162 -50.75457833 60.66081238 -42.43359375 66.43359375 C-34.83187032 71.06386551 -27.22086187 72.02551743 -18.5078125 70.03125 C-8.91355751 66.9483315 -2.93472817 61.67437105 1.71484375 52.80078125 C4.83754774 45.55021105 4.93206378 36.8112621 2.56640625 29.34765625 C-1.40399534 20.81505879 -6.57640478 15.20920516 -15.125 11.25 C-29.25826063 6.24266379 -42.82052449 11.09543059 -51.91015625 22.63671875 Z M79.08984375 22.63671875 C74.73560956 29.09824995 72.94998875 35.85736954 73.625 43.6875 C75.56838756 53.63307162 80.24542167 60.66081238 88.56640625 66.43359375 C96.16812968 71.06386551 103.77913813 72.02551743 112.4921875 70.03125 C122.08644249 66.9483315 128.06527183 61.67437105 132.71484375 52.80078125 C135.83754774 45.55021105 135.93206378 36.8112621 133.56640625 29.34765625 C129.59600466 20.81505879 124.42359522 15.20920516 115.875 11.25 C101.74173937 6.24266379 88.17947551 11.09543059 79.08984375 22.63671875 Z M-77.375 99.6875 C-81.3046138 106.03316821 -83.50653954 111.61726255 -83.47265625 119.10546875 C-83.46943359 120.35908203 -83.46621094 121.61269531 -83.46289062 122.90429688 C-83.45451172 124.21462891 -83.44613281 125.52496094 -83.4375 126.875 C-83.43248317 128.21028481 -83.42792059 129.54557141 -83.42382812 130.88085938 C-83.41202704 134.1497588 -83.39409136 137.41863502 -83.375 140.6875 C-76.115 140.6875 -68.855 140.6875 -61.375 140.6875 C-61.34921875 139.00140625 -61.3234375 137.3153125 -61.296875 135.578125 C-61.24059786 133.36455731 -61.18325044 131.15101664 -61.125 128.9375 C-61.11082031 127.82632813 -61.09664062 126.71515625 -61.08203125 125.5703125 C-61.04980469 124.50039063 -61.01757812 123.43046875 -60.984375 122.328125 C-60.96342773 121.34360352 -60.94248047 120.35908203 -60.92089844 119.34472656 C-60.22814311 115.97265635 -59.08454791 114.75993472 -56.375 112.6875 C-51.97296571 112.22412797 -50.0955836 112.20711093 -46.375 114.6875 C-45.38044091 117.67117726 -45.17940368 119.8879192 -45.05859375 123.01171875 C-45.00143188 124.40136841 -45.00143188 124.40136841 -44.94311523 125.8190918 C-44.90001221 126.9925415 -44.85690918 128.16599121 -44.8125 129.375 C-44.668125 133.108125 -44.52375 136.84125 -44.375 140.6875 C-32.495 140.6875 -20.615 140.6875 -8.375 140.6875 C-8.20473506 132.96960378 -8.20473506 132.96960378 -8.07714844 125.25097656 C-8.0465332 124.28643555 -8.01591797 123.32189453 -7.984375 122.328125 C-7.96342773 121.34360352 -7.94248047 120.35908203 -7.92089844 119.34472656 C-7.22816533 115.9727645 -6.08704255 114.75699336 -3.375 112.6875 C0.39782526 112.35655042 3.03235548 112.48995183 6.625 113.6875 C7.80389501 116.73064396 7.8155732 119.87366805 7.94140625 123.109375 C7.98330078 124.13417969 8.02519531 125.15898437 8.06835938 126.21484375 C8.10767578 127.27832031 8.14699219 128.34179688 8.1875 129.4375 C8.23068359 130.51644531 8.27386719 131.59539062 8.31835938 132.70703125 C8.42428901 135.36704211 8.52513456 138.02725456 8.625 140.6875 C15.885 140.6875 23.145 140.6875 30.625 140.6875 C30.73389922 136.58260424 30.8127594 132.48065662 30.875 128.375 C30.90851563 127.22708984 30.94203125 126.07917969 30.9765625 124.89648438 C31.09266437 114.65049443 29.02626825 105.57194338 22.45703125 97.47265625 C13.01740316 88.27455383 2.49897685 87.37360403 -10.015625 87.3515625 C-11.3335907 87.3449057 -12.6515564 87.3382489 -14.00946045 87.33139038 C-16.7932869 87.31945847 -19.57698966 87.31570519 -22.36083984 87.31689453 C-25.89889373 87.31709721 -29.43613978 87.28983102 -32.97400284 87.25535011 C-35.72297688 87.23292525 -38.4717615 87.22906174 -41.22081757 87.23011398 C-43.14989702 87.22665786 -45.07891734 87.20509246 -47.00787354 87.18301392 C-59.26073732 87.24595636 -69.26213966 90.12475096 -77.375 99.6875 Z M53.625 99.6875 C49.6953862 106.03316821 47.49346046 111.61726255 47.52734375 119.10546875 C47.53056641 120.35908203 47.53378906 121.61269531 47.53710938 122.90429688 C47.54548828 124.21462891 47.55386719 125.52496094 47.5625 126.875 C47.56751683 128.21028481 47.57207941 129.54557141 47.57617188 130.88085938 C47.58797296 134.1497588 47.60590864 137.41863502 47.625 140.6875 C54.885 140.6875 62.145 140.6875 69.625 140.6875 C69.65078125 139.00140625 69.6765625 137.3153125 69.703125 135.578125 C69.75940214 133.36455731 69.81674956 131.15101664 69.875 128.9375 C69.88917969 127.82632813 69.90335938 126.71515625 69.91796875 125.5703125 C69.95019531 124.50039063 69.98242188 123.43046875 70.015625 122.328125 C70.03657227 121.34360352 70.05751953 120.35908203 70.07910156 119.34472656 C70.77185689 115.97265635 71.91545209 114.75993472 74.625 112.6875 C79.02703429 112.22412797 80.9044164 112.20711093 84.625 114.6875 C85.61955909 117.67117726 85.82059632 119.8879192 85.94140625 123.01171875 C85.99856812 124.40136841 85.99856812 124.40136841 86.05688477 125.8190918 C86.09998779 126.9925415 86.14309082 128.16599121 86.1875 129.375 C86.331875 133.108125 86.47625 136.84125 86.625 140.6875 C98.505 140.6875 110.385 140.6875 122.625 140.6875 C122.79526494 132.96960378 122.79526494 132.96960378 122.92285156 125.25097656 C122.9534668 124.28643555 122.98408203 123.32189453 123.015625 122.328125 C123.03657227 121.34360352 123.05751953 120.35908203 123.07910156 119.34472656 C123.77183467 115.9727645 124.91295745 114.75699336 127.625 112.6875 C131.39782526 112.35655042 134.03235548 112.48995183 137.625 113.6875 C138.80389501 116.73064396 138.8155732 119.87366805 138.94140625 123.109375 C138.98330078 124.13417969 139.02519531 125.15898437 139.06835938 126.21484375 C139.10767578 127.27832031 139.14699219 128.34179688 139.1875 129.4375 C139.23068359 130.51644531 139.27386719 131.59539062 139.31835938 132.70703125 C139.42428901 135.36704211 139.52513456 138.02725456 139.625 140.6875 C146.885 140.6875 154.145 140.6875 161.625 140.6875 C161.73389922 136.58260424 161.8127594 132.48065662 161.875 128.375 C161.90851563 127.22708984 161.94203125 126.07917969 161.9765625 124.89648438 C162.09266437 114.65049443 160.02626825 105.57194338 153.45703125 97.47265625 C144.01740316 88.27455383 133.49897685 87.37360403 120.984375 87.3515625 C119.6664093 87.3449057 118.3484436 87.3382489 116.99053955 87.33139038 C114.2067131 87.31945847 111.42301034 87.31570519 108.63916016 87.31689453 C105.10110627 87.31709721 101.56386022 87.28983102 98.02599716 87.25535011 C95.27702312 87.23292525 92.5282385 87.22906174 89.77918243 87.23011398 C87.85010298 87.22665786 85.92108266 87.20509246 83.99212646 87.18301392 C71.73926268 87.24595636 61.73786034 90.12475096 53.625 99.6875 Z " fill="#E01A28" transform="translate(136.375,286.3125)"/>
<path d="M0 0 C9.43099457 7.21103643 16.12808901 16.04957805 18.6875 27.8125 C19.99378003 42.74733471 18.08914799 54.78022058 8.6875 66.8125 C8.20925781 67.42867188 7.73101562 68.04484375 7.23828125 68.6796875 C1.331053 75.37553816 -9.32036354 81.20093058 -18.33618164 81.98950195 C-33.68884469 82.42985373 -45.83890629 80.73789299 -57.47265625 69.77734375 C-67.49642952 59.15401769 -70.79055154 47.86724693 -70.5625 33.5 C-69.7638362 21.71970901 -63.99582744 10.77361646 -55.3125 2.8125 C-38.62270082 -9.06655191 -17.73347978 -11.62407973 0 0 Z M-48.3125 20.8125 C-52.79960957 27.86737747 -54.10477125 34.5099314 -53.3125 42.8125 C-51.14577285 50.77213497 -47.4361793 56.9888697 -40.484375 61.66796875 C-33.29972402 65.45412475 -25.80636566 66.60688088 -17.9140625 64.73046875 C-9.22716412 61.66527187 -3.18872926 55.69344986 0.82421875 47.48828125 C3.02804314 40.65742283 2.75635184 32.35321592 -0.0625 25.75 C-0.77566199 24.41712483 -1.52177904 23.10087751 -2.3125 21.8125 C-2.84875 20.925625 -3.385 20.03875 -3.9375 19.125 C-11.11270038 12.13862068 -18.6173141 9.40847492 -28.4375 9.5390625 C-36.46137285 10.30220258 -43.03919774 14.89494814 -48.3125 20.8125 Z " fill="#E01A28" transform="translate(407.3125,75.1875)"/>
<path d="M0 0 C1.54205612 -0.01051392 1.54205612 -0.01051392 3.11526489 -0.02124023 C6.51591952 -0.03885577 9.91574305 -0.02718431 13.31640625 -0.01367188 C15.67765462 -0.01636575 18.03890191 -0.0202473 20.40014648 -0.02526855 C25.34987953 -0.03116845 30.29932393 -0.02258447 35.24902344 -0.00390625 C41.59810867 0.01888315 47.94651759 0.00576276 54.295578 -0.01819611 C59.17172352 -0.03264055 64.04770832 -0.02805422 68.92385864 -0.01768494 C71.26506632 -0.01501392 73.60628853 -0.0183005 75.94747925 -0.02760315 C79.2179843 -0.03774604 82.48738951 -0.02229812 85.7578125 0 C86.7283255 -0.00809692 87.6988385 -0.01619385 88.69876099 -0.02453613 C95.23933195 0.05820447 95.23933195 0.05820447 98.45288086 2.36633301 C100.32459863 5.18993191 100.8097466 7.1287555 100.87890625 10.51757812 C99.22425628 14.34939911 97.69714475 15.96728715 93.87890625 17.51757812 C91.80770969 17.77205372 91.80770969 17.77205372 89.55921936 17.77827454 C88.70270279 17.78535934 87.84618622 17.79244415 86.9637146 17.79974365 C86.0321756 17.79726624 85.1006366 17.79478882 84.14086914 17.79223633 C83.1534523 17.79734726 82.16603546 17.80245819 81.1486969 17.807724 C77.88292387 17.82163021 74.61736163 17.82066247 71.3515625 17.81835938 C69.08239157 17.82224566 66.81322138 17.82658019 64.54405212 17.8313446 C59.78691246 17.83880898 55.02984701 17.83851388 50.27270508 17.83325195 C44.17493883 17.82745627 38.07747621 17.84438987 31.97976017 17.86759663 C27.29318972 17.88232428 22.60669256 17.88320699 17.92010307 17.8800869 C15.67182247 17.88060057 13.42353781 17.88584688 11.17527962 17.89589882 C8.03209796 17.90822723 4.88950996 17.90149289 1.74633789 17.88989258 C0.81682312 17.89753632 -0.11269165 17.90518005 -1.07037354 17.91305542 C-5.88843821 17.87372808 -9.23854215 17.7136142 -13.12109375 14.51757812 C-14.68580608 11.38815347 -14.81811333 7.90675589 -14.12109375 4.51757812 C-10.57472319 -0.81719419 -5.80298215 -0.04841388 0 0 Z " fill="#E01A28" transform="translate(130.12109375,109.482421875)"/>
<path d="M0 0 C1.54205612 -0.01051392 1.54205612 -0.01051392 3.11526489 -0.02124023 C6.51591952 -0.03885577 9.91574305 -0.02718431 13.31640625 -0.01367188 C15.67765462 -0.01636575 18.03890191 -0.0202473 20.40014648 -0.02526855 C25.34987953 -0.03116845 30.29932393 -0.02258447 35.24902344 -0.00390625 C41.59810867 0.01888315 47.94651759 0.00576276 54.295578 -0.01819611 C59.17172352 -0.03264055 64.04770832 -0.02805422 68.92385864 -0.01768494 C71.26506632 -0.01501392 73.60628853 -0.0183005 75.94747925 -0.02760315 C79.2179843 -0.03774604 82.48738951 -0.02229812 85.7578125 0 C86.7283255 -0.00809692 87.6988385 -0.01619385 88.69876099 -0.02453613 C95.23933195 0.05820447 95.23933195 0.05820447 98.45288086 2.36633301 C100.32459863 5.18993191 100.8097466 7.1287555 100.87890625 10.51757812 C98.74847147 15.08279552 98.74847147 15.08279552 95.87890625 16.51757812 C94.46901662 16.61768421 93.05456136 16.65695172 91.6411438 16.66474915 C90.30784027 16.6754821 90.30784027 16.6754821 88.94760132 16.68643188 C87.96989777 16.68912079 86.99219421 16.69180969 85.98486328 16.69458008 C84.95711792 16.70115128 83.92937256 16.70772247 82.8704834 16.7144928 C79.45922784 16.73425272 76.04801632 16.74589329 72.63671875 16.75585938 C70.89278147 16.76197267 70.89278147 16.76197267 69.11361313 16.76820946 C62.96229987 16.78907988 56.811009 16.80337843 50.65966797 16.81274414 C44.29490768 16.8238216 37.93049576 16.85823445 31.56585884 16.89791584 C26.68117608 16.92401303 21.79657726 16.93242976 16.9118309 16.93602562 C14.56501788 16.940908 12.218209 16.95256857 9.87146378 16.97106361 C6.59127113 16.99531197 3.31199239 16.99451616 0.03173828 16.98754883 C-0.94191681 17.00035889 -1.9155719 17.01316895 -2.91873169 17.02636719 C-9.49583664 16.97531099 -9.49583664 16.97531099 -12.72244263 14.61320496 C-14.23126995 12.35249893 -14.66318783 11.21159949 -14.62109375 8.51757812 C-14.6365625 7.52757812 -14.6365625 7.52757812 -14.65234375 6.51757812 C-12.70046193 -0.83068285 -6.23244862 -0.05199689 0 0 Z " fill="#E01A28" transform="translate(130.12109375,140.482421875)"/>
</svg>
