<?xml version="1.0" encoding="UTF-8"?>
<svg version="1.1" xmlns="http://www.w3.org/2000/svg" width="512" height="512">
<path d="M0 0 C6.8476205 5.01961214 15.49674244 12.61950679 17.52734375 21.23828125 C17.68332031 21.81964844 17.83929688 22.40101562 18 23 C19.98982813 23.69643985 21.99294757 24.354876 24 25 C36.60653447 31.97778661 43.91832111 41.72750057 49 55 C50.14539787 59.01835865 50.73679848 62.83556707 51 67 C51.06832031 67.8765625 51.13664063 68.753125 51.20703125 69.65625 C51.7654851 83.72101365 47.95176367 97.02998236 39.3046875 108.1875 C36.29901767 111.43082744 33.48272104 113.27236734 29.44140625 115.02734375 C26.66839069 116.54159338 25.28836453 117.40523216 23.89941406 120.27001953 C23.20047624 123.02808806 22.72341582 125.7472895 22.3125 128.5625 C21.94074607 130.54767572 21.55798867 132.53082355 21.1640625 134.51171875 C20.97618164 135.46095215 20.78830078 136.41018555 20.59472656 137.38818359 C18.52033508 146.49813437 13.43328203 154.30784709 6 160 C5.34 160 4.68 160 4 160 C4.3609375 160.83144531 4.721875 161.66289062 5.09375 162.51953125 C5.5578125 163.60621094 6.021875 164.69289062 6.5 165.8125 C6.9640625 166.89144531 7.428125 167.97039062 7.90625 169.08203125 C9 172 9 172 9 175 C9.99870117 175.13390137 9.99870117 175.13390137 11.01757812 175.27050781 C21.51267583 176.77709507 31.85802473 178.95271785 42.24078369 181.08221436 C60.65820089 184.85578617 79.06037731 188.38298935 97.67773438 191.02246094 C107.23004052 192.41784677 115.37850006 193.93004231 121.62109375 201.890625 C149.48849211 244.52063949 120.21433561 331.74633923 112.23803711 378.75463867 C111.92562576 380.597565 111.92562576 380.597565 111.60690308 382.47772217 C111.21769373 384.76885512 110.82672849 387.0596908 110.43362427 389.35015869 C106.3036197 413.60038681 108.81587857 432.65983046 117.29199219 455.60400391 C128.4396609 486.03557403 128.4396609 486.03557403 124.1171875 497.30078125 C121.46062668 502.11249902 118.09122772 504.85878076 113 507 C109.97639031 507.544392 107.02672079 507.54130656 103.96043396 507.50793457 C103.07255552 507.51417453 102.18467708 507.5204145 101.26989323 507.52684355 C98.30652726 507.54274799 95.34398673 507.53017925 92.38061523 507.51757812 C90.25140911 507.52300033 88.12220675 507.53012354 85.99301147 507.53881836 C80.21832019 507.5570417 74.44391501 507.5499884 68.66921878 507.53730202 C62.62485407 507.52717064 56.58051375 507.53656797 50.53614807 507.54284668 C40.38709111 507.5501221 30.23815061 507.54053747 20.08911133 507.52148438 C8.35504466 507.49971007 -3.37874405 507.50677162 -15.112804 507.52879 C-25.18856357 507.54693992 -35.26423947 507.54950446 -45.34001011 507.53903532 C-51.35740684 507.53279894 -57.3746729 507.53196898 -63.39206123 507.54518127 C-69.04827137 507.55673331 -74.70412295 507.54872551 -80.36029434 507.52560425 C-82.43636034 507.520314 -84.5124565 507.52183629 -86.58851051 507.53065491 C-89.4218873 507.54158114 -92.25411414 507.52788192 -95.0874176 507.50793457 C-95.9095015 507.51685746 -96.73158539 507.52578034 -97.57858092 507.53497362 C-102.84775976 507.46298821 -105.80050776 506.45440019 -110 503 C-114.39879902 498.12565515 -115.67107495 494.0063037 -115.5859375 487.52734375 C-112.69110518 470.10045317 -99.15698502 453.09191609 -89.85180664 438.47167969 C-79.30138813 421.82595218 -74.48974352 405.72330728 -74 386 C-73.97164063 385.04351562 -73.94328125 384.08703125 -73.9140625 383.1015625 C-73.77813293 373.3961909 -74.46398081 363.68663246 -75 354 C-75.66 354 -76.32 354 -77 354 C-77.39058594 354.88558594 -77.39058594 354.88558594 -77.7890625 355.7890625 C-82.82777097 364.98876892 -94.70643475 369.79149246 -104.1875 372.875 C-114.08507576 375.27050022 -125.33381378 375.46232523 -134.82421875 371.55859375 C-143.68326184 365.21252877 -145.91664094 355.77278475 -149.0625 345.875 C-149.59259349 344.24394782 -150.12303142 342.61300755 -150.65380859 340.98217773 C-154.37198378 329.4506057 -157.67241534 317.89879827 -160 306 C-160.36158203 304.31197266 -160.36158203 304.31197266 -160.73046875 302.58984375 C-161.99884615 295.85637713 -162.22361353 289.14661681 -162.3125 282.3125 C-162.33030518 281.44496094 -162.34811035 280.57742188 -162.36645508 279.68359375 C-162.35039307 266.67583938 -157.37784746 257.36729112 -148.5 248.125 C-142.93525963 242.73546135 -136.91134694 238.02226865 -130.75390625 233.33935547 C-129.09635841 232.07358327 -127.45230472 230.79254332 -125.8125 229.50390625 C-118.53431608 223.81782506 -111.05731625 218.46209328 -103.49609375 213.16015625 C-98.76857237 209.84349313 -94.06543729 206.49387325 -89.375 203.125 C-88.64128174 202.60188232 -87.90756348 202.07876465 -87.15161133 201.53979492 C-82.56036598 198.23475138 -78.2488771 194.73588931 -74 191 C-74.27263672 189.91992676 -74.54527344 188.83985352 -74.82617188 187.72705078 C-75.83489481 183.72829762 -76.84052644 179.72877248 -77.84521484 175.72900391 C-78.28089149 173.99636888 -78.71741174 172.26394576 -79.15478516 170.53173828 C-79.78248244 168.04514609 -80.40716458 165.5578133 -81.03125 163.0703125 C-81.22811401 162.29317902 -81.42497803 161.51604553 -81.62780762 160.71536255 C-83 155.22774341 -83 155.22774341 -83 153 C-84.051875 153.0825 -85.10375 153.165 -86.1875 153.25 C-98.15849349 153.2076248 -109.56894932 147.2847664 -118.25 139.375 C-130.28178396 126.56540374 -131.50203897 109.97746105 -131.16113281 93.33251953 C-131 91 -131 91 -130.48681641 87.67993164 C-129.99521372 83.96381963 -129.93358123 80.48351927 -130.0078125 76.73828125 C-130.02534259 75.3574294 -130.04224953 73.97656952 -130.05859375 72.59570312 C-130.08932841 70.46110811 -130.12468413 68.32693534 -130.17138672 66.19262695 C-130.52243227 49.19058355 -127.38400896 34.35702848 -115.25 21.625 C-103.94557071 11.0901612 -90.96386118 4.88838642 -75.4375 4.8125 C-74.73294678 4.80750488 -74.02839355 4.80250977 -73.30249023 4.79736328 C-68.86536015 4.82049691 -64.90110576 5.35447962 -60.5625 6.375 C-57.35987301 6.99138716 -55.68194727 7.30244879 -52.68359375 5.97265625 C-51.21129614 4.93757046 -49.77064768 3.85615153 -48.36328125 2.734375 C-35.03717402 -7.04544584 -14.1035278 -8.81213124 0 0 Z M-44 19 C-43.08973193 20.73254356 -42.17146832 22.46088734 -41.25 24.1875 C-40.48429687 25.63189453 -40.48429687 25.63189453 -39.703125 27.10546875 C-32.81141447 38.81821531 -21.73943717 41.24181156 -9.3125 44.5 C-7.70918823 44.89034424 -7.70918823 44.89034424 -6.07348633 45.28857422 C2.21941081 47.4098784 8.89807533 50.19194613 14.40234375 56.94921875 C20.13322837 67.89254611 22.15173992 79.92386824 24 92 C24.33079592 94.00042125 24.66312648 96.00059325 25 98 C30.7892955 93.17558709 32.98296392 87.15289735 34.75 79.9375 C35.71910085 68.55056507 34.50622963 57.13532892 27 48 C23.07031101 43.6492729 18.69237993 41.33532063 13.4375 38.8125 C7.40822957 35.69795116 5.11186001 32.79364654 2.31640625 26.71875 C-1.39402167 19.05567037 -7.19428038 14.25715598 -15.01953125 11.21484375 C-25.62888701 8.02247904 -35.36494146 13.09682945 -44 19 Z M-107.30859375 37.59375 C-111.47948659 43.52739893 -114.12116325 50.87854394 -114.1328125 58.16015625 C-114.13458496 58.94849854 -114.13635742 59.73684082 -114.13818359 60.54907227 C-114.13383301 61.37850342 -114.12948242 62.20793457 -114.125 63.0625 C-114.1245166 63.91577881 -114.1240332 64.76905762 -114.12353516 65.64819336 C-114.09865608 70.1646038 -113.916811 74.57320884 -113.375 79.0625 C-112.88172265 83.46821007 -113.50806721 86.97791638 -114.51171875 91.265625 C-116.51650401 102.49242243 -115.43394537 114.0311753 -109.53125 123.86328125 C-104.25517062 131.22556549 -97.63323515 134.66001539 -89 137 C-88.34 137 -87.68 137 -87 137 C-87.59349163 131.31748823 -88.6416376 125.84849851 -89.86791992 120.27026367 C-96.35097145 90.32973148 -96.35097145 90.32973148 -88.8671875 77.62109375 C-82.52379626 68.71645877 -73.76288249 62.57973075 -65.0859375 56.11328125 C-63.72097757 55.07944454 -62.35890476 54.04178298 -61 53 C-60.3596582 52.51063965 -59.71931641 52.0212793 -59.05957031 51.51708984 C-54.82729942 48.11346016 -52.4309559 44.8619118 -50 40 C-55.32524771 28.90468956 -55.32524771 28.90468956 -64.375 21.5 C-66.61196348 21.06688579 -66.61196348 21.06688579 -69 21 C-69.95003906 20.92007812 -70.90007812 20.84015625 -71.87890625 20.7578125 C-86.74750396 20.11217735 -97.79878878 26.37410131 -107.30859375 37.59375 Z M-38 51 C-38.47953125 51.74830078 -38.47953125 51.74830078 -38.96875 52.51171875 C-45.58255169 61.90939105 -55.05873141 68.39760884 -64.05078125 75.36328125 C-72.14749106 81.66946859 -72.14749106 81.66946859 -78 90 C-79.12748655 99.74796081 -76.46950072 109.16162456 -74.25 118.5625 C-73.85336922 120.28414022 -73.45763997 122.00598835 -73.06274414 123.72802734 C-70.69102365 134.01440103 -68.21578791 144.27574099 -65.73046875 154.53515625 C-65.4567746 155.66705887 -65.18308044 156.79896149 -64.90109253 157.96516418 C-63.54905583 163.55323781 -62.18853994 169.13897449 -60.81152344 174.72094727 C-60.3103866 176.77486324 -59.80940261 178.82881652 -59.30859375 180.8828125 C-58.95766914 182.28654869 -58.95766914 182.28654869 -58.59965515 183.71864319 C-55.84201681 195.09971989 -55.84201681 195.09971989 -58.5234375 199.5 C-61.66934913 202.67568366 -65.04616214 205.33084284 -68.625 208 C-69.37209229 208.56396484 -70.11918457 209.12792969 -70.88891602 209.70898438 C-79.92763747 216.50192612 -89.12038052 223.08329574 -98.31884766 229.65722656 C-127.39141569 247.69599535 -127.39141569 247.69599535 -146 274 C-147.62829573 293.23715095 -143.70870812 318.58258376 -135 336 C-132.32119695 334.71652953 -129.89331125 333.29049618 -127.4375 331.625 C-117.2481102 325.29862062 -106.69326184 324.0418381 -95 323 C-94.17060617 312.48117979 -94.84727421 304.38264501 -99.51000977 294.79907227 C-101.65330618 290.34055727 -102.46911829 287.07154907 -102 282 C-100.3680982 279.28016367 -99.13593678 279.03759953 -96.0625 278.1875 C-92.73326807 277.98366947 -91.71520712 278.1789683 -89 280 C-86.80390576 283.5441917 -85.36412665 287.44938256 -83.8125 291.3125 C-83.36197266 292.4272168 -82.91144531 293.54193359 -82.44726562 294.69042969 C-78.97733372 303.84907304 -77.90358823 312.06815997 -78.0625 321.796875 C-78.11856546 327.09592769 -76.76304079 330.66374255 -73.0625 334.5 C-64.61518844 342.61083584 -54.02795454 344.38336986 -42.765625 344.27734375 C-30.01822836 343.33847947 -18.68343748 337.49478431 -9.87109375 328.36328125 C-6.9674855 324.69588461 -4.89991613 320.62698728 -2.8359375 316.44140625 C-1 314 -1 314 2.03515625 313.0859375 C7.37746834 312.93108787 10.90991097 315.93582981 15.125 318.875 C26.82543807 326.79347829 39.95971595 330.30569806 54 329 C61.52003886 327.38794069 68.07311607 324.54555259 74.84375 320.984375 C77.7377502 319.663201 79.87911296 319.39104643 83 320 C85.85190475 321.67180623 86.04982818 323.16817011 87 326.375 C87 330 87 330 85.25 332.625 C73.80223675 342.1388087 55.48925965 345.35151376 41.00439453 344.22314453 C30.91587036 343.10001285 21.77996269 339.91809277 12.87084961 335.11108398 C9.48410595 333.29036826 9.48410595 333.29036826 5.78125 333.5703125 C3.81404541 335.14925303 2.3242801 336.77832881 0.75 338.75 C-9.80550854 351.11311148 -25.58560637 357.63638598 -41.56982422 359.26123047 C-47.04263958 359.67760777 -52.51340209 359.88072613 -58 360 C-57.98952637 360.7842334 -57.97905273 361.5684668 -57.96826172 362.37646484 C-57.57871801 396.04980636 -60.51117585 424.70437875 -79.63330078 453.32006836 C-83.50960192 459.13719799 -87.04518415 465.11149828 -90.5 471.1875 C-91.0043457 472.07276367 -91.50869141 472.95802734 -92.02832031 473.87011719 C-97.08369864 481.95892554 -97.08369864 481.95892554 -99 491 C-95.85236369 492.57381815 -92.48388805 492.13678375 -89.02832031 492.12698364 C-87.77830671 492.12932363 -87.77830671 492.12932363 -86.50304031 492.13171089 C-83.69471752 492.13571769 -80.88644825 492.13253247 -78.078125 492.12939453 C-76.07124805 492.13074871 -74.06437135 492.13252874 -72.05749512 492.13470459 C-66.59483739 492.1392769 -61.13219848 492.13749018 -55.66954041 492.1343255 C-49.96361234 492.13180087 -44.25768594 492.13413973 -38.55175781 492.13571167 C-28.968096 492.13753306 -19.38444189 492.13512785 -9.80078125 492.13037109 C1.2929941 492.12492853 12.38675107 492.12669121 23.48052597 492.1321975 C32.99049919 492.13672949 42.50046687 492.13737875 52.01044083 492.13475883 C57.69686433 492.13319653 63.38327919 492.13300101 69.06970215 492.13629532 C74.41463586 492.13917528 79.75954579 492.13719602 85.10447693 492.13140106 C87.07095805 492.13007414 89.03744116 492.13046644 91.00392151 492.13266373 C93.67874852 492.13537786 96.35349829 492.13199082 99.02832031 492.12698364 C99.81488384 492.12921436 100.60144737 492.13144509 101.41184616 492.13374341 C105.33446903 492.19942386 105.33446903 492.19942386 109 491 C108.525475 484.00611673 107.30805036 477.58730577 105.3125 470.875 C105.04848389 469.96339111 104.78446777 469.05178223 104.51245117 468.11254883 C102.85932706 462.5249991 100.95764566 457.10221364 98.8125 451.6875 C88.46517767 424.91226419 93.03820922 396.42062185 97.53405762 368.85870361 C98.0443739 365.7277521 98.55035937 362.59611964 99.05566406 359.46435547 C99.24125885 358.31432541 99.42685364 357.16429535 99.61807251 355.97941589 C99.9038063 354.20876518 99.9038063 354.20876518 100.1953125 352.40234375 C100.58667226 349.97809596 100.97811192 347.55386107 101.36962891 345.12963867 C101.66441132 343.30437149 101.66441132 343.30437149 101.96514893 341.44223022 C102.55860592 337.77406934 103.15498909 334.10639175 103.75146484 330.4387207 C106.52376518 313.3306273 109.02586048 296.21948029 111 279 C110.26394531 278.75765625 109.52789062 278.5153125 108.76953125 278.265625 C98.15749301 274.62080341 93.1900533 269.95352688 88 260 C83.45809855 249.11753625 81.8196699 238.91028478 81.8125 227.1875 C81.80025391 226.14529297 81.78800781 225.10308594 81.77539062 224.02929688 C81.76346474 217.69665142 82.38066463 212.12531203 84 206 C73.94882088 203.54544216 63.83219519 201.5927707 53.66412354 199.69711304 C39.9632514 197.13638437 26.26998147 194.53245983 12.625 191.6875 C11.48667725 191.45764404 10.34835449 191.22778809 9.17553711 190.9909668 C8.14050049 190.77093994 7.10546387 190.55091309 6.0390625 190.32421875 C5.15428223 190.13947998 4.26950195 189.95474121 3.35791016 189.7644043 C-0.30670843 188.57638185 -2.38480111 187.1741604 -4.18847656 183.73168945 C-4.50268555 182.86761475 -4.81689453 182.00354004 -5.140625 181.11328125 C-5.66269531 179.7065918 -5.66269531 179.7065918 -6.1953125 178.27148438 C-6.71738281 176.80678711 -6.71738281 176.80678711 -7.25 175.3125 C-7.61351562 174.32443359 -7.97703125 173.33636719 -8.3515625 172.31835938 C-9.24577492 169.88280714 -10.12803801 167.44358779 -11 165 C-11.69109863 164.9597168 -12.38219727 164.91943359 -13.09423828 164.87792969 C-19.40274074 164.4219975 -24.94391136 163.4247325 -30.875 161.25 C-31.59429687 161.01023437 -32.31359375 160.77046875 -33.0546875 160.5234375 C-37.71463926 158.86161647 -40.86175201 156.98908929 -44 153 C-43.93185849 148.97965076 -43.8823175 146.8823175 -41 144 C-35.32481738 143.22105337 -30.99989946 144.57500506 -25.6875 146.5 C-18.03482209 149.23024732 -11.20011948 150.90914522 -3.5625 147.4375 C6.29602199 138.05988152 8.69921524 121.40196 9.22265625 108.36328125 C9.57270743 94.29721695 9.19654334 77.02670378 1 65 C-4.09678721 61.424546 -9.11634594 59.96109225 -15.125 58.5625 C-23.04388839 56.61073191 -30.47390058 54.17528432 -38 51 Z M102 209 C95.5999473 215.77652639 96.51547839 223.83983467 96.65625 232.65625 C97.09248822 242.79151802 100.10871751 252.69381292 106.47265625 260.71484375 C108.2700684 262.22724426 109.70568968 262.61021395 112 263 C114.5423932 257.91521359 113.76312654 250.67219055 114 245 C114.03544922 244.20126465 114.07089844 243.4025293 114.10742188 242.57958984 C114.91883608 225.54557747 114.91883608 225.54557747 107.4375 210.75 C105.09394663 208.70839661 105.09394663 208.70839661 102 209 Z M-126.296875 350.01953125 C-126.85890625 350.67308594 -127.4209375 351.32664062 -128 352 C-127.85974801 354.70705512 -127.85974801 354.70705512 -127 357 C-118.17568747 359.94143751 -109.14618712 357.98176859 -101 354 C-96.66875869 351.49037001 -92.27204855 348.84946888 -89 345 C-88.74930087 342.37429296 -88.74930087 342.37429296 -89 340 C-100.49897934 334.25051033 -117.63697696 342.40530117 -126.296875 350.01953125 Z " fill="#E01A28" transform="translate(272,5)"/>
<path d="M0 0 C2.42501069 3.82122897 3.21943851 5.83697592 2.375 10.3125 C1 13 1 13 -2 15 C-8.90410959 15.65753425 -8.90410959 15.65753425 -12.5 13.5 C-14.60819617 9.98633972 -14.82934956 6.99894292 -14 3 C-9.94800442 -2.44923544 -6.05957711 -2.59696162 0 0 Z " fill="#E01A28" transform="translate(287,446)"/>
<path d="M0 0 C2.3125 1 2.3125 1 4 3 C4.96988093 5.73222554 5.32575603 8.1131276 5 11 C2.9375 14 2.9375 14 0 16 C-3.37817188 16.55153827 -5.2135552 16.3613395 -8.3125 14.9375 C-10.82814308 12.04916906 -10.93488709 9.77654862 -11 6 C-8.42104772 0.35086644 -6.08014874 -0.4864119 0 0 Z " fill="#E01A28" transform="translate(219,316)"/>
<path d="M0 0 C3.62187046 0.69354966 4.77675205 1.60147503 6.9375 4.5625 C8.03060383 7.60757494 8.05931739 9.1259877 7.1875 12.25 C5.9375 14.5625 5.9375 14.5625 2.9375 16.5625 C-0.5 17 -0.5 17 -4.0625 16.5625 C-6.9861459 14.0136805 -7.91159176 12.36734394 -8.625 8.5625 C-7.67612012 3.50180729 -5.05437938 0.9283554 0 0 Z " fill="#E01A28" transform="translate(328.0625,296.4375)"/>
</svg>
