<?xml version="1.0" encoding="UTF-8"?>
<svg version="1.1" xmlns="http://www.w3.org/2000/svg" width="512" height="512">
<path d="M0 0 C28.92196395 24.10163663 39.61514489 56.75460152 42.99023438 93.13085938 C43.19675998 95.41274726 43.40313976 97.69464835 43.609375 99.9765625 C43.81891323 102.2233772 44.02919552 104.47012263 44.24023438 106.71679688 C45.57316609 120.98519851 46.82242836 135.26098581 48.046875 149.5390625 C48.49208496 148.79688477 48.93729492 148.05470703 49.39599609 147.29003906 C59.30330576 130.91084712 59.30330576 130.91084712 66.046875 127.5390625 C66.02367187 126.78882813 66.00046875 126.03859375 65.9765625 125.265625 C65.75507071 112.70387616 67.30655208 102.7652867 76.16015625 93.2734375 C86.35489188 83.76539391 96.58426022 81.06081478 110.36328125 81.29296875 C120.98973885 82.00290176 130.66979995 86.54347359 137.921875 94.4140625 C143.16659347 100.85863402 146.23769617 107.18199165 145.77709961 115.54223633 C145.24687249 122.32564233 145.24687249 122.32564233 147.28515625 128.5703125 C148.98464508 129.89194718 148.98464508 129.89194718 150.91015625 131.046875 C158.78598511 136.5469968 163.76954451 146.74810541 167.046875 155.5390625 C167.36527344 156.31765625 167.68367188 157.09625 168.01171875 157.8984375 C173.77941864 174.59021413 170.45775167 193.70829689 163.0390625 209.20703125 C161.82802655 212.05344253 161.01783252 214.93922841 160.171875 217.9140625 C156.46966746 230.11290726 150.4768777 238.18765488 141.046875 246.5390625 C140.386875 246.8690625 139.726875 247.1990625 139.046875 247.5390625 C139.046875 252.4890625 139.046875 257.4390625 139.046875 262.5390625 C140.03494141 263.01214844 141.02300781 263.48523438 142.04101562 263.97265625 C145.74690016 265.75253854 149.44172087 267.55444842 153.13378906 269.36279297 C154.72530972 270.13858683 156.31967073 270.90858432 157.91699219 271.67236328 C169.81037264 277.36600286 179.97623872 282.61896667 185.046875 295.5390625 C186.162245 298.88517251 186.19424254 301.43987554 186.22387695 304.96655273 C186.23373375 305.93780594 186.23373375 305.93780594 186.24378967 306.92868042 C186.26347809 309.06834026 186.27517315 311.20793017 186.28515625 313.34765625 C186.28923178 314.0790941 186.2933073 314.81053196 186.29750633 315.5641346 C186.31834473 319.43313437 186.33265793 323.30209887 186.34204102 327.17114258 C186.35312109 331.16728791 186.38754493 335.1628788 186.42721272 339.15882778 C186.45334456 342.23262066 186.46172958 345.30628044 186.46532249 348.38017464 C186.47019478 349.85339174 186.48182719 351.32660265 186.50036049 352.79971123 C186.52468857 354.86098301 186.52380018 356.92080659 186.5168457 358.98217773 C186.52271194 360.15449448 186.52857819 361.32681122 186.53462219 362.53465271 C185.94210738 366.18440678 184.9896864 367.35962683 182.046875 369.5390625 C178.546875 370.0390625 178.546875 370.0390625 175.046875 369.5390625 C172.32795433 367.45936801 171.18530807 366.27739622 170.54808044 362.8787384 C170.5483297 361.36058784 170.5483297 361.36058784 170.54858398 359.81176758 C170.53854843 358.65989456 170.52851288 357.50802155 170.51817322 356.32124329 C170.52635574 355.07956894 170.53453827 353.83789459 170.54296875 352.55859375 C170.52857079 350.59852459 170.51415672 348.63845539 170.4988184 346.67839336 C170.48187006 343.93185091 170.48239506 341.18542877 170.48352051 338.43884277 C170.48547933 333.65400182 170.47837152 328.86936493 170.44361877 324.0846405 C170.42688966 321.54035239 170.4239076 318.99592568 170.43663025 316.45161438 C170.38947032 308.45184867 170.1999818 300.94916233 164.5546875 294.84375 C160.01221327 291.57507645 154.91975494 289.14658368 149.921875 286.6640625 C148.93316406 286.15359375 147.94445312 285.643125 146.92578125 285.1171875 C145.97316406 284.64023437 145.02054687 284.16328125 144.0390625 283.671875 C143.17651855 283.23762207 142.31397461 282.80336914 141.42529297 282.35595703 C138.74462395 281.43525096 137.63910938 281.47036475 135.046875 282.5390625 C133.49552496 283.8993042 132.00094849 285.32529519 130.546875 286.7890625 C123.41242194 293.33855308 116.16695376 296.73512006 106.421875 297.1015625 C95.16558572 296.59113411 86.59274304 291.39303432 78.9375 283.3125 C78.31359375 282.72726562 77.6896875 282.14203125 77.046875 281.5390625 C74.58738714 281.56295408 74.58738714 281.56295408 72.046875 282.5390625 C70.95375 282.8896875 69.860625 283.2403125 68.734375 283.6015625 C67.4040625 284.065625 67.4040625 284.065625 66.046875 284.5390625 C66.45679688 285.25191406 66.86671875 285.96476562 67.2890625 286.69921875 C67.82789063 287.65699219 68.36671875 288.61476563 68.921875 289.6015625 C69.45554687 290.54128906 69.98921875 291.48101562 70.5390625 292.44921875 C74.46790188 300.50028599 74.37321035 308.02933055 74.3828125 316.86328125 C74.38924773 318.256171 74.39597663 319.64905942 74.40298462 321.04194641 C74.41491021 323.94930153 74.41866985 326.85653819 74.41748047 329.76391602 C74.41727643 333.48648336 74.44468612 337.20829458 74.47902489 340.93068218 C74.50126128 343.80204255 74.50531919 346.6732191 74.50426102 349.54465675 C74.50661776 350.91738324 74.51544559 352.29011474 74.53092575 353.66275597 C74.55053512 355.57935102 74.54223816 357.49617009 74.53271484 359.4128418 C74.53556488 360.50203415 74.53841492 361.5912265 74.54135132 362.71342468 C73.92540967 366.23316457 72.87610088 367.41304971 70.046875 369.5390625 C66.29338038 370.00824933 64.00839047 370.07042631 60.671875 368.2265625 C57.72464989 365.16598258 57.91538708 362.03709684 57.88916016 358.0012207 C57.87376694 356.29848747 57.87376694 356.29848747 57.85806274 354.56135559 C57.85076141 353.33325668 57.84346008 352.10515778 57.8359375 350.83984375 C57.8078626 348.24283231 57.77919809 345.64582718 57.75 343.04882812 C57.70764387 338.95193882 57.67085633 334.85508799 57.64550781 330.75805664 C57.62040192 326.80593868 57.57195749 322.854245 57.5234375 318.90234375 C57.5185582 317.07537712 57.5185582 317.07537712 57.51358032 315.21150208 C57.40687197 307.79819056 57.09752989 301.53724114 52.44335938 295.4375 C46.67939931 290.56654783 40.43226874 287.55345377 33.546875 284.5390625 C32.40081787 284.02504883 31.25476074 283.51103516 30.07397461 282.98144531 C27.79028301 281.95975574 25.50379707 280.94428572 23.21435547 279.93554688 C20.43366461 278.70959099 17.66228958 277.46572864 14.89453125 276.2109375 C13.46657526 275.56935588 12.03822785 274.92864425 10.609375 274.2890625 C9.97257812 274.00160156 9.33578125 273.71414063 8.6796875 273.41796875 C5.93039476 272.2117089 4.0910153 271.5390625 1.046875 271.5390625 C-0.57021829 273.66210814 -0.57021829 273.66210814 -2.078125 276.4140625 C-9.62306198 288.78202881 -19.42815849 297.52986026 -31.953125 304.5390625 C-32.58863281 304.9103125 -33.22414063 305.2815625 -33.87890625 305.6640625 C-51.635527 315.39788458 -74.45876382 316.23148148 -93.6015625 310.67578125 C-97.89092467 309.22099758 -101.9438898 307.64547709 -105.953125 305.5390625 C-107.0359375 305.00345703 -107.0359375 305.00345703 -108.140625 304.45703125 C-122.25776822 297.12886142 -133.49371644 285.51787286 -140.953125 271.5390625 C-145.86894292 272.21582042 -150.06083187 274.19682194 -154.54296875 276.21484375 C-155.77618614 276.76449043 -155.77618614 276.76449043 -157.03431702 277.32524109 C-158.76937881 278.1002678 -160.50327921 278.8778991 -162.23608398 279.65795898 C-164.87462163 280.84436665 -167.51802042 282.01938487 -170.16210938 283.19335938 C-171.85186837 283.94983797 -173.54133147 284.70697795 -175.23046875 285.46484375 C-176.01501938 285.8129158 -176.79957001 286.16098785 -177.6078949 286.51960754 C-185.41654837 290.0537982 -192.74142715 293.97880826 -196.07679749 302.36399841 C-196.95693208 305.55285612 -197.21029059 308.16636538 -197.22436523 311.46508789 C-197.23455185 312.60969986 -197.24473846 313.75431183 -197.25523376 314.93360901 C-197.25737381 316.15563522 -197.25951385 317.37766144 -197.26171875 318.63671875 C-197.28686758 321.23763256 -197.31226576 323.83854396 -197.33789062 326.43945312 C-197.36869356 330.52999857 -197.39093241 334.62056404 -197.40942383 338.71118164 C-197.42836994 342.66570592 -197.47046612 346.61986406 -197.51171875 350.57421875 C-197.51183456 351.7982692 -197.51195038 353.02231964 -197.5120697 354.28346252 C-197.52540848 355.42492233 -197.53874725 356.56638214 -197.55249023 357.74243164 C-197.55756088 358.74359512 -197.56263153 359.74475861 -197.56785583 360.77626038 C-198.0192329 364.0131286 -199.04118016 365.90982152 -200.953125 368.5390625 C-204.04486252 370.08493126 -206.54742052 369.83265771 -209.953125 369.5390625 C-212.77297609 367.43066494 -213.82664963 366.23594225 -214.46105957 362.74034119 C-214.46424194 361.66321365 -214.46742432 360.58608612 -214.47070312 359.47631836 C-214.48331177 358.25081772 -214.49592041 357.02531708 -214.50891113 355.76268005 C-214.50174566 354.4264163 -214.49354027 353.09015778 -214.484375 351.75390625 C-214.48707268 350.37349678 -214.49095739 348.99308916 -214.49597168 347.61268616 C-214.50186771 344.71662337 -214.49331055 341.82105415 -214.47460938 338.92504883 C-214.45196824 335.24222552 -214.46484558 331.56057793 -214.48889923 327.87779903 C-214.50348355 325.02325393 -214.49869167 322.16897859 -214.48838806 319.31442451 C-214.48447574 317.30563206 -214.4964832 315.29682849 -214.50891113 313.28807068 C-214.37442145 299.98095017 -210.69684675 290.63771697 -201.578125 281.0390625 C-201.041875 280.5440625 -200.505625 280.0490625 -199.953125 279.5390625 C-201.5278544 278.81180198 -203.11336779 278.10785828 -204.703125 277.4140625 C-205.58484375 277.01960938 -206.4665625 276.62515625 -207.375 276.21875 C-211.0188771 275.25809149 -212.6207687 276.77458748 -215.76335144 278.57772827 C-222.52497332 282.99280634 -227.94449433 288.09304532 -229.77984619 296.18322754 C-231.07769916 305.94180028 -230.62165274 315.91470173 -230.33007812 325.72692871 C-230.20131682 330.59571539 -230.17417689 335.46595837 -230.1351881 340.33614159 C-230.10353092 344.12021781 -230.05624293 347.90171539 -229.95881653 351.6847229 C-229.94431961 352.37799683 -229.92982269 353.07127075 -229.91488647 353.78555298 C-229.87514279 355.65094186 -229.82573579 357.51611789 -229.77558899 359.3812561 C-229.95691134 362.60640963 -230.43023442 364.70206393 -231.953125 367.5390625 C-235.6737086 370.01945157 -237.55109071 370.00243453 -241.953125 369.5390625 C-244.15951538 367.9392395 -244.15951538 367.9392395 -245.953125 365.5390625 C-246.35098267 362.44577026 -246.35098267 362.44577026 -246.21337891 358.76123047 C-246.18551552 357.75033859 -246.18551552 357.75033859 -246.15708923 356.71902466 C-246.116247 355.25651358 -246.06725788 353.79421234 -246.01106644 352.33221054 C-245.90015829 349.19632203 -245.86068076 346.06074587 -245.81638145 342.92332649 C-245.732796 337.092643 -245.62049795 331.26577239 -245.38769531 325.43896484 C-243.87503683 303.42708996 -243.87503683 303.42708996 -253.48861694 284.58547974 C-257.10752346 281.24942411 -260.83409194 278.23494801 -264.953125 275.5390625 C-269.8317205 276.87618734 -274.70607796 278.22751284 -279.57714844 279.59179688 C-281.23265062 280.05334649 -282.88921995 280.51108691 -284.546875 280.96484375 C-286.93784812 281.62006235 -289.32457041 282.28916283 -291.7109375 282.9609375 C-292.44555206 283.15903015 -293.18016663 283.3571228 -293.93704224 283.56121826 C-299.46875568 285.14034405 -304.17549375 287.20975258 -307.765625 291.9140625 C-309.98180699 296.81299111 -310.07860184 301.81068979 -310.0949707 307.12353516 C-310.10552238 309.05551254 -310.10552238 309.05551254 -310.11628723 311.02651978 C-310.11810312 311.70711079 -310.11991901 312.3877018 -310.12178993 313.08891678 C-310.1290065 315.23290786 -310.14470752 317.37667679 -310.16313171 319.52059937 C-310.21538388 325.6123364 -310.26362233 331.70394163 -310.27905273 337.79589844 C-310.28913132 341.53131803 -310.3184381 345.26616205 -310.36037254 349.00135422 C-310.3726757 350.42145818 -310.37780502 351.84164336 -310.37557411 353.26179886 C-310.37322247 355.24572072 -310.39757137 357.22961985 -310.4230957 359.21337891 C-310.42896194 360.34111725 -310.43482819 361.46885559 -310.44087219 362.63076782 C-311.06959218 366.20030021 -312.07860056 367.38753905 -314.953125 369.5390625 C-318.80356298 370.08912507 -320.94573751 370.27348347 -324.13952637 367.94509888 C-326.59092981 364.69290969 -326.46045195 362.59412746 -326.47070312 358.54248047 C-326.4777124 357.84594864 -326.48472168 357.14941681 -326.49194336 356.43177795 C-326.50953175 354.13119483 -326.49789122 351.83184551 -326.484375 349.53125 C-326.48707153 347.92424281 -326.4909553 346.31723722 -326.49597168 344.7102356 C-326.50186936 341.33921807 -326.49330228 337.96862446 -326.47460938 334.59765625 C-326.45192926 330.30048377 -326.46487062 326.00431672 -326.48889923 321.70718193 C-326.50344457 318.38516859 -326.49870969 315.06338821 -326.48838806 311.74136734 C-326.48573906 310.15871179 -326.4889255 308.57603436 -326.49830627 306.99340439 C-326.55371333 295.00812115 -325.25963684 285.80564974 -317.22265625 276.42578125 C-308.85365955 269.46842255 -298.72233862 267.18242532 -288.453125 264.3515625 C-286.09707632 263.6978792 -283.74217231 263.0408853 -281.38977051 262.37419128 C-279.93519381 261.96226203 -278.47843592 261.55794241 -277.01940918 261.1620636 C-275.31279122 260.68034628 -273.62963322 260.11691771 -271.953125 259.5390625 C-270.06434576 255.76150402 -270.19418149 251.63353086 -270.953125 247.5390625 C-272.38947216 245.72899492 -273.94480955 244.62493532 -275.81640625 243.2734375 C-285.75249601 235.20831163 -291.81397029 221.96318659 -293.953125 209.5390625 C-294.17341699 205.97738447 -294.17347226 202.41915794 -294.203125 198.8515625 C-294.43425508 189.22274764 -296.24103255 182.97263706 -300.953125 174.5390625 C-304.50107834 162.69986197 -302.55968537 149.29847315 -296.953125 138.5390625 C-295.078125 135.2265625 -295.078125 135.2265625 -292.953125 132.5390625 C-292.48519531 131.91773438 -292.01726562 131.29640625 -291.53515625 130.65625 C-283.47745481 120.58890806 -272.52856299 115.32716541 -259.953125 113.5390625 C-257.39056417 113.45362357 -254.85687943 113.41217273 -252.29541016 113.42553711 C-251.55326263 113.42539108 -250.81111511 113.42524506 -250.04647827 113.4250946 C-247.61168417 113.42578711 -245.17696811 113.43354831 -242.7421875 113.44140625 C-241.04682456 113.44327278 -239.35146108 113.44469558 -237.65609741 113.44569397 C-233.20752456 113.44950061 -228.75898468 113.45931499 -224.3104248 113.47039795 C-219.76554816 113.48065199 -215.22066615 113.48520013 -210.67578125 113.49023438 C-201.76821473 113.500939 -192.86067261 113.51799306 -183.953125 113.5390625 C-183.92937805 112.96378815 -183.9056311 112.38851379 -183.88116455 111.79580688 C-182.97162104 90.20076086 -182.97162104 90.20076086 -181.703125 80.9140625 C-181.57454102 79.96587646 -181.44595703 79.01769043 -181.31347656 78.04077148 C-176.9404401 47.84611611 -163.79119547 18.44566911 -139.23681641 -0.80664062 C-98.74655953 -30.71459213 -39.99599102 -30.98135056 0 0 Z M-140.3984375 22.60546875 C-147.83958135 31.1502685 -153.93141102 40.94032168 -157.953125 51.5390625 C-158.38238281 52.66570312 -158.81164062 53.79234375 -159.25390625 54.953125 C-161.55429191 61.39963348 -163.34204289 67.73836502 -164.50073242 74.48461914 C-164.62800059 75.21868768 -164.75526876 75.95275621 -164.88639355 76.70906925 C-166.07077737 83.80290136 -166.79322822 90.9094907 -167.3840332 98.07406425 C-167.5741174 100.37864631 -167.77372462 102.68225466 -167.9753418 104.9858551 C-168.26320162 108.28382704 -168.54749457 111.58207492 -168.82876587 114.88061523 C-169.56507778 123.49674302 -170.3329105 132.11006357 -171.109375 140.72265625 C-171.18630396 141.57656322 -171.26323292 142.4304702 -171.34249306 143.31025314 C-172.73960315 158.75100817 -174.37676537 174.14986033 -176.265625 189.5390625 C-176.44987534 191.04725052 -176.44987534 191.04725052 -176.6378479 192.58590698 C-177.67857574 201.0496088 -178.75969479 209.49510449 -180.12109375 217.9140625 C-180.80767637 222.20006585 -181.15472351 226.20469453 -180.953125 230.5390625 C-171.47231423 235.81561676 -162.03348838 240.80204584 -151.828125 244.5390625 C-151.07233154 244.81693604 -150.31653809 245.09480957 -149.5378418 245.38110352 C-147.35565554 246.15158368 -145.16513866 246.85929701 -142.953125 247.5390625 C-142.19668701 247.78358154 -141.44024902 248.02810059 -140.66088867 248.2800293 C-135.79777667 249.64682679 -132.80031319 249.72233647 -128.28320312 247.37304688 C-127.69990234 247.03595703 -127.11660156 246.69886719 -126.515625 246.3515625 C-125.90525391 246.03380859 -125.29488281 245.71605469 -124.66601562 245.38867188 C-121.54150153 243.70412127 -119.95432894 242.54086842 -117.953125 239.5390625 C-116.54726185 230.66192773 -114.90305948 217.5530335 -119.07666016 209.32373047 C-121.90636508 205.96351638 -125.47620972 203.8069329 -129.24316406 201.61816406 C-143.19527864 192.81343156 -150.82029285 173.76802804 -154.953125 158.5390625 C-155.19804687 157.66636719 -155.44296875 156.79367188 -155.6953125 155.89453125 C-157.13774854 149.62092247 -157.1831444 143.26069274 -157.265625 136.8515625 C-157.28343018 135.96001465 -157.30123535 135.0684668 -157.31958008 134.14990234 C-157.31096719 127.03300283 -156.37659299 121.40774298 -151.69921875 115.87109375 C-149.13348666 113.69222881 -146.53174903 111.61463208 -143.83984375 109.59570312 C-134.68147771 102.72202583 -129.48308693 95.98874616 -124.25 85.76171875 C-122.953125 83.5390625 -122.953125 83.5390625 -120.953125 82.5390625 C-116.90170381 82.28046115 -115.40974831 82.23464696 -111.953125 84.5390625 C-110.21353809 90.06480916 -110.91813849 93.20034094 -113.390625 98.4140625 C-118.77915659 108.21699755 -124.94399216 115.02285306 -134.12109375 121.43359375 C-140.14627262 125.70481041 -140.14627262 125.70481041 -142.58203125 132.40234375 C-142.59257771 133.88554435 -142.56865438 135.36927267 -142.515625 136.8515625 C-142.49830322 137.64336914 -142.48098145 138.43517578 -142.46313477 139.25097656 C-141.75948271 157.205742 -134.98534282 173.1538242 -122.953125 186.5390625 C-122.43492187 187.15007812 -121.91671875 187.76109375 -121.3828125 188.390625 C-109.83040299 201.10408069 -91.84183039 208.86589059 -74.89453125 209.79296875 C-54.34863636 210.53114461 -36.4113621 204.43473411 -20.953125 190.5390625 C-20.34210938 190.02085937 -19.73109375 189.50265625 -19.1015625 188.96875 C-6.64820338 177.65268395 1.19666069 159.93625638 2.25219727 143.30371094 C2.34962043 139.79647701 2.36898209 136.29757038 2.359375 132.7890625 C2.37548828 131.59667969 2.39160156 130.40429688 2.40820312 129.17578125 C2.41219848 122.0241034 2.15106182 117.08180993 -2.72265625 111.51953125 C-28.55731641 88.84628266 -63.38651612 77.71880984 -97 73.57714844 C-98.27037109 73.41520996 -98.27037109 73.41520996 -99.56640625 73.25 C-100.31704346 73.16024902 -101.06768066 73.07049805 -101.84106445 72.97802734 C-104.16931581 72.49413 -105.91984629 71.76763473 -107.953125 70.5390625 C-109.37354321 67.69822609 -109.26764772 65.68428972 -108.953125 62.5390625 C-107.515625 60.1640625 -107.515625 60.1640625 -104.953125 58.5390625 C-68.81491214 56.72682174 -26.04320595 73.23616146 2.046875 95.5390625 C2.87058594 96.17457031 3.69429687 96.81007813 4.54296875 97.46484375 C11.09898025 102.8366824 15.33307703 109.15463549 17.046875 117.5390625 C18.76222958 145.86015818 15.61817464 173.00681278 -3.88305664 195.2578125 C-4.3393042 195.763125 -4.79555176 196.2684375 -5.265625 196.7890625 C-5.72251709 197.29953125 -6.17940918 197.81 -6.65014648 198.3359375 C-8.98484014 200.82930754 -11.11413155 202.62935401 -14.1015625 204.3046875 C-17.60558888 206.30441464 -20.24254407 207.84861743 -21.953125 211.5390625 C-23.58162254 220.49076829 -23.72209742 230.59950166 -21.953125 239.5390625 C-19.92833878 242.80228006 -19.92833878 242.80228006 -16.953125 244.5390625 C-16.13714844 245.0959375 -15.32117188 245.6528125 -14.48046875 246.2265625 C-8.0732246 249.47367266 -4.06198077 249.95623044 2.7734375 247.7421875 C4.39378906 247.14664063 4.39378906 247.14664063 6.046875 246.5390625 C7.85285156 245.94351563 7.85285156 245.94351563 9.6953125 245.3359375 C20.73381574 241.57556826 30.86012711 236.1631353 41.046875 230.5390625 C40.42956676 219.98062234 39.06757366 209.55663862 37.6930542 199.07617188 C35.23868143 180.26095247 33.15950907 161.4336642 31.421875 142.5390625 C31.31960602 141.43171753 31.21733704 140.32437256 31.11196899 139.18347168 C30.32358199 130.63267917 29.54785573 122.08074751 28.77471924 113.52856445 C28.27001495 107.95773909 27.75463007 102.38812011 27.22271729 96.81982422 C27.06772505 95.17408853 26.91705692 93.5279379 26.77142334 91.88134766 C24.24778823 63.35760013 15.73333243 37.94722678 -4.953125 17.5390625 C-5.61957031 16.87390625 -6.28601563 16.20875 -6.97265625 15.5234375 C-26.20556762 -2.45427334 -51.31668628 -7.27390335 -76.7578125 -6.7421875 C-101.48062259 -5.84939869 -123.23296922 5.03893813 -140.3984375 22.60546875 Z M87.046875 105.2890625 C83.91723344 109.20663734 82.83667822 112.62473135 82.046875 117.5390625 C83.02527344 117.33990234 83.02527344 117.33990234 84.0234375 117.13671875 C84.89742188 116.96011719 85.77140625 116.78351563 86.671875 116.6015625 C87.53039062 116.42753906 88.38890625 116.25351563 89.2734375 116.07421875 C90.18867188 115.89761719 91.10390625 115.72101563 92.046875 115.5390625 C92.98402344 115.35730469 93.92117188 115.17554688 94.88671875 114.98828125 C106.86776861 113.28516539 118.38150097 114.68639462 130.046875 117.5390625 C129.83916023 111.61919156 128.90079519 108.39907943 124.796875 104.078125 C118.51532239 98.55372382 112.16095053 97.14972273 103.9921875 97.26953125 C97.1324975 97.89727476 91.8077458 100.29211546 87.046875 105.2890625 Z M-277.953125 139.5390625 C-284.16740752 147.17413183 -286.47136566 154.24884975 -286.34765625 164.078125 C-285.7014263 169.74703329 -283.42013851 174.45551951 -280.953125 179.5390625 C-279.35510084 183.06706752 -278.69909859 185.83916973 -278.64453125 189.70703125 C-278.60682617 191.17172852 -278.60682617 191.17172852 -278.56835938 192.66601562 C-278.53354066 194.68679062 -278.5022207 196.7076293 -278.47460938 198.72851562 C-278.14362642 211.03946691 -274.7358266 219.99547911 -266.578125 229.2265625 C-256.77141956 237.86580301 -248.3385368 241.9245173 -235.0703125 241.74609375 C-225.07851543 241.08247815 -215.6869963 236.57472887 -208.80859375 229.2578125 C-207.07621843 227.06954893 -205.47412949 224.87843354 -203.953125 222.5390625 C-203.42976563 221.74757813 -202.90640625 220.95609375 -202.3671875 220.140625 C-197.8820105 211.88889052 -197.82621532 202.19786283 -197.640625 193.0390625 C-197.45059386 184.81837452 -196.08934688 178.74562754 -192.328125 171.44921875 C-189.78745281 166.0719438 -189.81173154 160.58884554 -189.85546875 154.734375 C-189.8568837 154.0103952 -189.85829865 153.28641541 -189.85975647 152.54049683 C-189.86531425 150.24830843 -189.87785867 147.95622093 -189.890625 145.6640625 C-189.89564547 144.10156392 -189.90020741 142.53906379 -189.90429688 140.9765625 C-189.91526981 137.16402415 -189.9325049 133.35156038 -189.953125 129.5390625 C-198.92451572 129.46932233 -207.89581203 129.41612995 -216.86741543 129.38362598 C-221.03402267 129.36801982 -225.20044342 129.34687478 -229.36694336 129.31274414 C-233.39347714 129.27996928 -237.41983238 129.26217158 -241.44648933 129.25443077 C-242.97696808 129.2489196 -244.50743788 129.23815815 -246.03783989 129.22187233 C-258.7822393 129.09173806 -268.48205708 130.29943045 -277.953125 139.5390625 Z M77.046875 139.5390625 C76.42167969 140.00183594 75.79648437 140.46460938 75.15234375 140.94140625 C65.49576726 148.53623003 59.80194941 160.53522025 58.046875 172.5390625 C57.14661339 183.16214955 60.19688973 193.43686021 64.859375 202.88671875 C66.08601727 205.62648882 66.83582293 208.25117304 67.546875 211.1640625 C70.50698934 222.82159144 76.97591499 230.84629024 87.16015625 236.9921875 C97.3103042 242.43123836 108.24446233 243.23885224 119.296875 239.9765625 C129.71277136 236.06545517 138.72914788 227.99390822 143.421875 217.8515625 C143.97971546 216.42026133 144.52368855 214.98339105 145.046875 213.5390625 C145.418125 212.6728125 145.789375 211.8065625 146.171875 210.9140625 C145.94829885 206.66611565 142.99411561 204.28209355 140.046875 201.5390625 C133.17356479 195.36687591 125.76023497 191.14705362 117.484375 187.1640625 C116.62255615 186.74729248 115.7607373 186.33052246 114.87280273 185.90112305 C108.74975085 183.05776016 102.60359641 181.12623964 96.046875 179.5390625 C95.35851562 180.56966797 95.35851562 180.56966797 94.65625 181.62109375 C94.04265625 182.52214844 93.4290625 183.42320312 92.796875 184.3515625 C92.19359375 185.24488281 91.5903125 186.13820313 90.96875 187.05859375 C89.13201264 189.42917957 87.59800178 190.98598133 85.046875 192.5390625 C81.59760466 192.82063559 79.33734707 192.63588652 76.046875 191.5390625 C74.83517476 186.03133415 75.08683051 183.33637599 78.046875 178.5390625 C78.706875 177.5903125 79.366875 176.6415625 80.046875 175.6640625 C82.03424876 172.55879101 83.14936174 169.7633907 84.23828125 166.2734375 C85.046875 164.5390625 85.046875 164.5390625 88.046875 162.5390625 C94.57715489 162.25077759 101.01235979 164.52144452 107.109375 166.6015625 C108.02259521 166.91101807 108.93581543 167.22047363 109.87670898 167.53930664 C123.02446159 172.13166079 138.39559795 178.55269303 148.1875 188.7734375 C149.98209759 190.88335715 149.98209759 190.88335715 153.046875 190.5390625 C156.04696891 179.6801418 154.94534651 166.60647328 150.046875 156.5390625 C148.2362732 153.37292995 146.24033098 150.44960986 144.046875 147.5390625 C143.469375 146.6728125 142.891875 145.8065625 142.296875 144.9140625 C133.99202593 136.14783293 122.00105399 130.22871517 109.953125 129.30078125 C97.3535313 129.02624882 87.02032615 131.72097407 77.046875 139.5390625 Z M-101.953125 219.5390625 C-101.9624707 220.15837646 -101.97181641 220.77769043 -101.98144531 221.41577148 C-102.03571763 224.27012285 -102.11924837 227.12293358 -102.203125 229.9765625 C-102.22439453 231.43739258 -102.22439453 231.43739258 -102.24609375 232.92773438 C-102.51558775 240.98560484 -104.11750591 247.04646863 -109.24609375 253.36328125 C-112.41412439 255.90959159 -115.59797627 257.64049672 -119.265625 259.3515625 C-120.23338867 259.81852539 -120.23338867 259.81852539 -121.22070312 260.29492188 C-122.79371844 261.05229962 -124.37281626 261.79702308 -125.953125 262.5390625 C-123.59997645 273.17348381 -113.29111168 282.27668697 -104.546875 288.01171875 C-88.61175844 297.39519853 -71.14323244 300.29123701 -53.140625 295.9765625 C-36.89923265 290.98986634 -24.5870659 281.60217583 -15.0625 267.6328125 C-13.71902966 265.49216444 -13.71902966 265.49216444 -13.953125 262.5390625 C-15.05011719 262.04277344 -16.14710938 261.54648437 -17.27734375 261.03515625 C-18.73223746 260.34994824 -20.1866389 259.66369431 -21.640625 258.9765625 C-22.36185547 258.65365234 -23.08308594 258.33074219 -23.82617188 257.99804688 C-30.21252672 254.93609592 -33.26076624 251.16257911 -36.2265625 244.8125 C-37.30525768 239.95257227 -37.42437839 235.12879675 -37.578125 230.1640625 C-37.61679687 229.14183594 -37.65546875 228.11960937 -37.6953125 227.06640625 C-37.78910464 224.55746653 -37.87480379 222.04852486 -37.953125 219.5390625 C-39.45552734 219.95478516 -39.45552734 219.95478516 -40.98828125 220.37890625 C-42.33066909 220.74501202 -43.67312043 221.11088501 -45.015625 221.4765625 C-45.67240234 221.65896484 -46.32917969 221.84136719 -47.00585938 222.02929688 C-65.47785437 227.03402458 -83.83988775 224.81922038 -101.953125 219.5390625 Z M57.046875 229.5390625 C56.799375 230.7559375 56.551875 231.9728125 56.296875 233.2265625 C55.35461183 237.85935644 53.18490287 241.04621563 49.27587891 243.77563477 C47.12661983 245.07620277 44.94762242 246.28818233 42.734375 247.4765625 C41.94562988 247.9082373 41.15688477 248.33991211 40.34423828 248.78466797 C33.13155455 252.6521712 25.73665599 255.74896497 18.046875 258.5390625 C21.78304623 262.89631155 27.29579621 264.65594254 32.42431641 266.94726562 C34.28475741 267.78361511 36.13218859 268.64498627 37.98046875 269.5078125 C39.16253906 270.03890625 40.34460938 270.57 41.5625 271.1171875 C43.17560059 271.85050293 43.17560059 271.85050293 44.82128906 272.59863281 C50.38023216 274.21936009 54.90943513 272.96566767 59.88671875 270.25390625 C60.72138672 269.80595703 61.55605469 269.35800781 62.41601562 268.89648438 C63.68735352 268.19362305 63.68735352 268.19362305 64.984375 267.4765625 C65.85900391 267.00412109 66.73363281 266.53167969 67.63476562 266.04492188 C69.77750492 264.88573504 71.91442029 263.71702933 74.046875 262.5390625 C75.26618501 253.39601323 75.26618501 253.39601323 72.2890625 245.11328125 C70.73739484 243.84301773 69.14245623 242.62405191 67.51171875 241.45703125 C63.93898434 238.67697959 61.80713998 235.20761793 59.359375 231.4453125 C58.92625 230.81625 58.493125 230.1871875 58.046875 229.5390625 C57.716875 229.5390625 57.386875 229.5390625 57.046875 229.5390625 Z M-195.953125 237.5390625 C-196.489375 238.2609375 -197.025625 238.9828125 -197.578125 239.7265625 C-199.953125 242.5390625 -199.953125 242.5390625 -203.203125 244.6015625 C-205.66384899 246.50584136 -205.93008718 247.35946156 -206.3359375 250.5234375 C-206.32883203 253.55036925 -206.21280107 256.5239348 -205.953125 259.5390625 C-198.98423519 261.91845403 -192.00732216 264.2987872 -184.953125 266.4140625 C-184.14875 266.65898437 -183.344375 266.90390625 -182.515625 267.15625 C-176.36027337 268.07579948 -171.15097666 266.03151594 -165.578125 263.6015625 C-164.63646484 263.20420898 -164.63646484 263.20420898 -163.67578125 262.79882812 C-160.16129666 261.42152777 -160.16129666 261.42152777 -157.953125 258.5390625 C-159.16226563 258.054375 -160.37140625 257.5696875 -161.6171875 257.0703125 C-187.54823082 246.51772252 -187.54823082 246.51772252 -195.953125 237.5390625 Z M-253.953125 255.5390625 C-254.87649311 258.29468263 -255.32177135 259.7171703 -254.953125 262.5390625 C-252.73245766 265.79395039 -249.9155277 268.32861458 -247.015625 270.9765625 C-246.24798828 271.70810547 -245.48035156 272.43964844 -244.68945312 273.19335938 C-242.79405801 274.99457337 -240.88263059 276.77455328 -238.953125 278.5390625 C-234.74408344 274.96187561 -230.54301353 271.38375234 -226.515625 267.6015625 C-225.65066406 266.80878906 -224.78570312 266.01601563 -223.89453125 265.19921875 C-221.41652737 261.80380498 -221.58512379 259.64756915 -221.953125 255.5390625 C-223.42458984 255.78269531 -223.42458984 255.78269531 -224.92578125 256.03125 C-229.09234373 256.62422822 -233.18805723 256.68675864 -237.390625 256.6640625 C-238.10283203 256.66792969 -238.81503906 256.67179687 -239.54882812 256.67578125 C-244.42994985 256.66691454 -249.1203868 256.22556195 -253.953125 255.5390625 Z M90.046875 255.5390625 C88.1602523 264.72128829 88.1602523 264.72128829 90.84375 273.24609375 C96.12802325 277.90005336 100.83245336 281.02058388 108.0390625 280.78125 C111.26976776 280.39155403 113.31401798 279.30403266 116.046875 277.5390625 C116.7790625 277.13300781 117.51125 276.72695313 118.265625 276.30859375 C120.91442517 274.54423884 122.42652692 273.29981861 124.046875 270.5390625 C124.13267743 265.33192763 123.24304233 260.59026909 122.046875 255.5390625 C120.57541016 255.78269531 120.57541016 255.78269531 119.07421875 256.03125 C114.90765627 256.62422822 110.81194277 256.68675864 106.609375 256.6640625 C105.89716797 256.66792969 105.18496094 256.67179687 104.45117188 256.67578125 C99.57005015 256.66691454 94.8796132 256.22556195 90.046875 255.5390625 Z " fill="#E01A28" transform="translate(325.953125,82.4609375)"/>
<path d="M0 0 C0.74185547 0.04930664 1.48371094 0.09861328 2.24804688 0.14941406 C32.05035698 2.33524988 32.05035698 2.33524988 43 10 C44.76771987 13.73940741 45.2959773 15.78918377 44.3125 19.8125 C43 22 43 22 40 24 C38.0546875 24.08203125 38.0546875 24.08203125 35.875 23.8125 C35.17117187 23.73644531 34.46734375 23.66039062 33.7421875 23.58203125 C31.32214054 23.06837456 29.18655577 22.37958334 26.86328125 21.55078125 C21.74534045 19.80060187 16.66580913 19.04046531 11.3125 18.375 C9.87209351 18.18345337 9.87209351 18.18345337 8.40258789 17.98803711 C1.85564705 17.14502443 -4.61976886 16.62633309 -11.22265625 16.50390625 C-14.79537337 15.85569175 -16.47670443 14.57785332 -19 12 C-19.6640625 10 -19.6640625 10 -19.625 8 C-19.63789062 7.34 -19.65078125 6.68 -19.6640625 6 C-16.85523999 -2.45951249 -6.9834854 -0.46577984 0 0 Z " fill="#E01A28" transform="translate(75,236)"/>
<path d="M0 0 C2.77154884 2.00698365 3.3498377 3.72110067 4 7 C4.09869072 8.6168594 4.14802066 10.23711809 4.16113281 11.85693359 C4.17074036 12.81828217 4.1803479 13.77963074 4.19024658 14.77011108 C4.19449646 15.8024588 4.19874634 16.83480652 4.203125 17.8984375 C4.20882507 18.96615387 4.21452515 20.03387024 4.22039795 21.13394165 C4.22983866 23.39169323 4.23637824 25.64945854 4.24023438 27.90722656 C4.24994385 31.3550627 4.2809782 34.80230361 4.3125 38.25 C4.31903002 40.44530897 4.3242805 42.64062219 4.328125 44.8359375 C4.3404718 45.86423676 4.3528186 46.89253601 4.36553955 47.95199585 C4.34874803 53.36613486 4.14575647 57.3636949 1 62 C-2.09173752 63.54586876 -4.59429552 63.29359521 -8 63 C-10.6849017 60.95399535 -11.85275106 59.75997702 -12.50120544 56.41319275 C-12.50137161 55.43628983 -12.50153778 54.4593869 -12.50170898 53.45288086 C-12.51108994 52.34170395 -12.52047089 51.23052704 -12.53013611 50.0856781 C-12.51890213 48.89080276 -12.50766815 47.69592743 -12.49609375 46.46484375 C-12.49754898 45.23464005 -12.49900421 44.00443634 -12.50050354 42.73695374 C-12.4988438 40.13703034 -12.48727436 37.5370972 -12.46655273 34.93725586 C-12.44716481 32.26807635 -12.43684071 29.60134998 -12.44604492 26.93237305 C-12.45861106 23.08879446 -12.44998373 19.24589755 -12.43359375 15.40234375 C-12.43652939 14.20544418 -12.43946503 13.00854462 -12.44248962 11.77537537 C-12.42346336 10.11333824 -12.42346336 10.11333824 -12.40405273 8.41772461 C-12.39864975 7.44161728 -12.39324677 6.46550995 -12.38768005 5.45982361 C-11.93299108 2.57482947 -11.32574475 1.71241783 -9 0 C-5.45026831 -1.1832439 -3.60040463 -0.90010116 0 0 Z " fill="#E01A28" transform="translate(44,389)"/>
<path d="M0 0 C2.08414981 1.60421389 2.90104353 2.4690267 3.38768005 5.08018494 C3.39308304 5.87864334 3.39848602 6.67710175 3.40405273 7.49975586 C3.41673691 8.40757309 3.42942108 9.31539032 3.44248962 10.25071716 C3.43955399 11.22887894 3.43661835 12.20704071 3.43359375 13.21484375 C3.4388356 14.22213028 3.44407745 15.22941681 3.44947815 16.26722717 C3.45590334 18.39811277 3.45455495 20.52903382 3.44604492 22.65991211 C3.43754118 25.92170376 3.46628026 29.18174112 3.49804688 32.44335938 C3.4996591 34.51302031 3.49908096 36.58268435 3.49609375 38.65234375 C3.51294472 40.11655006 3.51294472 40.11655006 3.53013611 41.6103363 C3.46088876 48.33483749 3.46088876 48.33483749 1.18774414 51.61547852 C-2.04526755 53.66150121 -4.25950247 53.53435679 -8 53 C-10.90717073 50.78136971 -11.83981643 49.48055071 -13 46 C-13.10932546 43.1090305 -13.16405401 40.24290966 -13.16796875 37.3515625 C-13.17129715 36.50201996 -13.17462555 35.65247742 -13.17805481 34.77719116 C-13.18311658 32.98004701 -13.18546337 31.18289346 -13.18530273 29.38574219 C-13.18748614 26.64241963 -13.20564113 23.89950125 -13.22460938 21.15625 C-13.2275441 19.40885554 -13.22952837 17.66145917 -13.23046875 15.9140625 C-13.23765427 15.0962027 -13.24483978 14.2783429 -13.25224304 13.43569946 C-13.23534902 9.20345625 -13.08096868 5.80646298 -11 2 C-7.19251626 -1.17290311 -4.70732853 -1.4326652 0 0 Z " fill="#E01A28" transform="translate(477,399)"/>
<path d="M0 0 C2.58925159 3.88387739 2.32377642 7.1754932 2.3359375 11.68359375 C2.3425943 12.53550797 2.3492511 13.38742218 2.35610962 14.26515198 C2.36623202 16.06647584 2.37092677 17.86783718 2.37060547 19.66918945 C2.37497852 22.42396853 2.41130042 25.17714508 2.44921875 27.93164062 C2.45508705 29.68228619 2.45905635 31.43293936 2.4609375 33.18359375 C2.47530853 34.00661484 2.48967957 34.82963593 2.50448608 35.67759705 C2.45887048 41.39190383 2.45887048 41.39190383 0.09838867 44.52001953 C-3.44421663 47.018597 -5.74185636 46.47312707 -10 46 C-12.67431489 44.18836733 -12.95920359 43.12238923 -14 40 C-14.10887625 37.3154228 -14.16403438 34.65758549 -14.16796875 31.97265625 C-14.17296135 30.79466713 -14.17296135 30.79466713 -14.17805481 29.59288025 C-14.18311463 27.93277573 -14.18546343 26.27266105 -14.18530273 24.61254883 C-14.18748879 22.07551287 -14.20565296 19.53891213 -14.22460938 17.00195312 C-14.22754359 15.38802232 -14.2295282 13.77408945 -14.23046875 12.16015625 C-14.23765427 11.4027565 -14.24483978 10.64535675 -14.25224304 9.86500549 C-14.23601313 6.11557726 -14.22088314 3.11851222 -12 0 C-7.65546469 -2.73085077 -4.61796746 -1.82976069 0 0 Z " fill="#E01A28" transform="translate(342,406)"/>
<path d="M0 0 C2.71003866 3.57189623 2.30598355 7.80242716 2.30078125 12.08984375 C2.30506638 12.87138321 2.3093515 13.65292267 2.31376648 14.45814514 C2.31949915 16.10807325 2.32001787 17.75802663 2.31567383 19.40795898 C2.31251517 21.92540831 2.33598036 24.44168034 2.36132812 26.95898438 C2.36360145 28.56510269 2.36430446 30.17122415 2.36328125 31.77734375 C2.372491 32.52644516 2.38170074 33.27554657 2.39118958 34.04734802 C2.34781575 38.97369543 1.54827416 42.45172584 -2 46 C-9.16595505 46.58737336 -9.16595505 46.58737336 -12.09838867 44.5222168 C-14.86809653 40.84859349 -14.57557775 37.70732012 -14.53125 33.21875 C-14.5350769 32.36825073 -14.53890381 31.51775146 -14.54284668 30.64147949 C-14.54556458 28.84609796 -14.53821182 27.05067676 -14.52148438 25.25537109 C-14.50007167 22.50919207 -14.52128871 19.76562903 -14.546875 17.01953125 C-14.5442317 15.27343173 -14.53910667 13.52733384 -14.53125 11.78125 C-14.53934692 10.96136597 -14.54744385 10.14148193 -14.55578613 9.29675293 C-14.49377098 5.52135757 -14.45412221 3.61174347 -12.15429688 0.51367188 C-7.67088833 -2.63650185 -4.95252465 -1.89096396 0 0 Z " fill="#E01A28" transform="translate(182,406)"/>
</svg>
