<svg width="48" height="48" viewBox="0 0 48 48" fill="none" xmlns="http://www.w3.org/2000/svg">
<path d="M22.8 23.9902C22.8 22.6057 22.3312 21.4237 21.3937 20.4442C20.4562 19.4646 19.3249 18.9748 17.9999 18.9748C16.6749 18.9748 15.5436 19.4646 14.6061 20.4442C13.6686 21.4237 13.1999 22.6057 13.1999 23.9902C13.1999 25.3747 13.6686 26.5567 14.6061 27.5363C15.5436 28.5158 16.6749 29.0056 17.9999 29.0056C19.3249 29.0056 20.4562 28.5158 21.3937 27.5363C22.3312 26.5567 22.8 25.3747 22.8 23.9902ZM37.2002 34.021C37.2002 33.3418 36.9627 32.7541 36.4877 32.2578C36.0127 31.7615 35.4502 31.5133 34.8002 31.5133C34.1502 31.5133 33.5876 31.7615 33.1126 32.2578C32.6376 32.7541 32.4001 33.3418 32.4001 34.021C32.4001 34.7132 32.6345 35.3043 33.1033 35.794C33.572 36.2838 34.1377 36.5287 34.8002 36.5287C35.4627 36.5287 36.0283 36.2838 36.4971 35.794C36.9658 35.3043 37.2002 34.7132 37.2002 34.021ZM37.2002 13.9594C37.2002 13.2802 36.9627 12.6925 36.4877 12.1962C36.0127 11.6999 35.4502 11.4517 34.8002 11.4517C34.1502 11.4517 33.5876 11.6999 33.1126 12.1962C32.6376 12.6925 32.4001 13.2802 32.4001 13.9594C32.4001 14.6516 32.6345 15.2426 33.1033 15.7324C33.572 16.2222 34.1377 16.4671 34.8002 16.4671C35.4627 16.4671 36.0283 16.2222 36.4971 15.7324C36.9658 15.2426 37.2002 14.6516 37.2002 13.9594ZM30.0001 22.2074V25.8318C30.0001 25.9624 29.9563 26.0898 29.8688 26.2138C29.7813 26.3379 29.6813 26.4065 29.5688 26.4195L26.6626 26.8897C26.525 27.3469 26.325 27.8432 26.0625 28.3787C26.4875 29.0056 27.0501 29.7566 27.7501 30.6317C27.8376 30.7754 27.8813 30.906 27.8813 31.0235C27.8813 31.1803 27.8376 31.3043 27.7501 31.3958C27.4626 31.7876 26.9469 32.3721 26.2032 33.1492C25.4594 33.9263 24.9688 34.3149 24.7313 34.3149C24.5938 34.3149 24.4625 34.2692 24.3375 34.1777L22.1812 32.4145C21.7187 32.6627 21.2375 32.8651 20.7375 33.0218C20.6 34.4324 20.4562 35.4447 20.3062 36.0585C20.2187 36.372 20.0312 36.5287 19.7437 36.5287H16.2562C16.1187 36.5287 15.9936 36.4797 15.8811 36.3818C15.7686 36.2838 15.7061 36.1695 15.6936 36.0389L15.2624 33.0414C14.8374 32.9108 14.3686 32.7084 13.8561 32.4341L11.6436 34.1777C11.5561 34.2692 11.4311 34.3149 11.2686 34.3149C11.1311 34.3149 10.9998 34.2626 10.8748 34.1582C9.0748 32.421 8.17479 31.3762 8.17479 31.0235C8.17479 30.906 8.21854 30.7819 8.30604 30.6513C8.43104 30.4684 8.68729 30.1223 9.0748 29.6129C9.46231 29.1036 9.75606 28.7052 9.95606 28.4179C9.66856 27.8432 9.4498 27.3077 9.2998 26.8114L6.44976 26.3412C6.32476 26.3281 6.21851 26.2661 6.13101 26.1551C6.04351 26.044 5.99976 25.9167 5.99976 25.773V22.1486C5.99976 22.018 6.04351 21.8907 6.13101 21.7666C6.21851 21.6425 6.31851 21.5739 6.43101 21.5609L9.3373 21.0907C9.47481 20.6335 9.67481 20.1372 9.93731 19.6017C9.51231 18.9748 8.9498 18.2238 8.24979 17.3487C8.16229 17.205 8.11854 17.0744 8.11854 16.9569C8.11854 16.8002 8.16229 16.6695 8.24979 16.5651C8.52479 16.1732 9.0373 15.592 9.78731 14.8214C10.5373 14.0508 11.0311 13.6655 11.2686 13.6655C11.4061 13.6655 11.5373 13.7112 11.6623 13.8027L13.8186 15.5659C14.2436 15.3308 14.7249 15.1218 15.2624 14.939C15.3999 13.5284 15.5436 12.5227 15.6936 11.9219C15.7811 11.6084 15.9686 11.4517 16.2562 11.4517H19.7437C19.8812 11.4517 20.0062 11.5007 20.1187 11.5986C20.2312 11.6966 20.2937 11.8109 20.3062 11.9415L20.7375 14.939C21.1625 15.0696 21.6312 15.272 22.1437 15.5463L24.3563 13.8027C24.4563 13.7112 24.5813 13.6655 24.7313 13.6655C24.8688 13.6655 25 13.7178 25.125 13.8223C26.9251 15.5594 27.8251 16.6042 27.8251 16.9569C27.8251 17.0614 27.7813 17.1855 27.6938 17.3291C27.5438 17.5381 27.2813 17.8907 26.9063 18.3871C26.5313 18.8834 26.25 19.2752 26.0625 19.5625C26.35 20.1895 26.5625 20.725 26.7001 21.169L29.5501 21.6196C29.6751 21.6458 29.7813 21.7143 29.8688 21.8254C29.9563 21.9364 30.0001 22.0637 30.0001 22.2074ZM42.0003 32.6496V35.3924C42.0003 35.6014 41.069 35.8038 39.2065 35.9997C39.0565 36.3524 38.869 36.692 38.644 37.0185C39.2815 38.4944 39.6002 39.3956 39.6002 39.7221C39.6002 39.7744 39.5752 39.8201 39.5252 39.8593C38.0002 40.7866 37.2252 41.2502 37.2002 41.2502C37.1002 41.2502 36.8127 40.9433 36.3377 40.3295C35.8627 39.7156 35.5377 39.2715 35.3627 38.9972C35.1127 39.0234 34.9252 39.0364 34.8002 39.0364C34.6752 39.0364 34.4877 39.0234 34.2377 38.9972C34.0627 39.2715 33.7377 39.7156 33.2626 40.3295C32.7876 40.9433 32.5001 41.2502 32.4001 41.2502C32.3751 41.2502 31.6001 40.7866 30.0751 39.8593C30.0251 39.8201 30.0001 39.7744 30.0001 39.7221C30.0001 39.3956 30.3189 38.4944 30.9564 37.0185C30.7314 36.692 30.5439 36.3524 30.3939 35.9997C28.5313 35.8038 27.6001 35.6014 27.6001 35.3924V32.6496C27.6001 32.4406 28.5313 32.2382 30.3939 32.0423C30.5564 31.6635 30.7439 31.3239 30.9564 31.0235C30.3189 29.5476 30.0001 28.6464 30.0001 28.3199C30.0001 28.2677 30.0251 28.222 30.0751 28.1828C30.1251 28.1566 30.3439 28.026 30.7314 27.7909C31.1189 27.5558 31.4876 27.3338 31.8376 27.1248C32.1876 26.9159 32.3751 26.8114 32.4001 26.8114C32.5001 26.8114 32.7876 27.115 33.2626 27.7224C33.7377 28.3297 34.0627 28.7705 34.2377 29.0448C34.4877 29.0187 34.6752 29.0056 34.8002 29.0056C34.9252 29.0056 35.1127 29.0187 35.3627 29.0448C36.0002 28.1175 36.5752 27.3861 37.0877 26.8506L37.2002 26.8114C37.2502 26.8114 38.0252 27.2685 39.5252 28.1828C39.5752 28.222 39.6002 28.2677 39.6002 28.3199C39.6002 28.6464 39.2815 29.5476 38.644 31.0235C38.8565 31.3239 39.044 31.6635 39.2065 32.0423C41.069 32.2382 42.0003 32.4406 42.0003 32.6496ZM42.0003 12.588V15.3308C42.0003 15.5398 41.069 15.7422 39.2065 15.9381C39.0565 16.2908 38.869 16.6304 38.644 16.9569C39.2815 18.4328 39.6002 19.334 39.6002 19.6605C39.6002 19.7127 39.5752 19.7585 39.5252 19.7976C38.0002 20.725 37.2252 21.1886 37.2002 21.1886C37.1002 21.1886 36.8127 20.8817 36.3377 20.2678C35.8627 19.654 35.5377 19.2099 35.3627 18.9356C35.1127 18.9617 34.9252 18.9748 34.8002 18.9748C34.6752 18.9748 34.4877 18.9617 34.2377 18.9356C34.0627 19.2099 33.7377 19.654 33.2626 20.2678C32.7876 20.8817 32.5001 21.1886 32.4001 21.1886C32.3751 21.1886 31.6001 20.725 30.0751 19.7976C30.0251 19.7585 30.0001 19.7127 30.0001 19.6605C30.0001 19.334 30.3189 18.4328 30.9564 16.9569C30.7314 16.6304 30.5439 16.2908 30.3939 15.9381C28.5313 15.7422 27.6001 15.5398 27.6001 15.3308V12.588C27.6001 12.379 28.5313 12.1766 30.3939 11.9807C30.5564 11.6019 30.7439 11.2623 30.9564 10.9619C30.3189 9.48602 30.0001 8.58482 30.0001 8.2583C30.0001 8.20605 30.0251 8.16034 30.0751 8.12116C30.1251 8.09503 30.3439 7.96442 30.7314 7.72933C31.1189 7.49423 31.4876 7.27219 31.8376 7.06322C32.1876 6.85424 32.3751 6.74976 32.4001 6.74976C32.5001 6.74976 32.7876 7.05342 33.2626 7.66076C33.7377 8.26809 34.0627 8.7089 34.2377 8.98318C34.4877 8.95706 34.6752 8.94399 34.8002 8.94399C34.9252 8.94399 35.1127 8.95706 35.3627 8.98318C36.0002 8.05585 36.5752 7.32444 37.0877 6.78894L37.2002 6.74976C37.2502 6.74976 38.0252 7.20689 39.5252 8.12116C39.5752 8.16034 39.6002 8.20605 39.6002 8.2583C39.6002 8.58482 39.2815 9.48602 38.644 10.9619C38.8565 11.2623 39.044 11.6019 39.2065 11.9807C41.069 12.1766 42.0003 12.379 42.0003 12.588Z" fill="#E01A28"/>
</svg>
